<svg id="art" xmlns="http://www.w3.org/2000/svg" viewBox="0 0 64 64"><defs><style>.cls-1{fill:#f9dfcd;}.cls-2,.cls-8{fill:none;stroke:#041256;stroke-linecap:round;stroke-width:2px;}.cls-2{stroke-linejoin:bevel;}.cls-3{fill:#d8b96a;}.cls-4{fill:#ffeadc;}.cls-5{fill:#edd2c0;}.cls-6{fill:#5df9e6;}.cls-7{fill:#fff6f0;}.cls-8{stroke-miterlimit:10;}.cls-9{fill:#f7ad9f;}.cls-10{fill:#041256;}.cls-11{fill:#eacd8c;}.cls-12{fill:#212e5e;}.cls-13{fill:#304272;}</style></defs><title>game of thrones, game, thrones, series, character, avatar, cersei, queen</title><path class="cls-1" d="M38.86,46.59,37.78,34.7c0-.09,0-.18,0-.27,0-5.11-1.67-9.61-5.77-12.29-4.1,2.68-5.74,7.18-5.77,12.29,0,.09,0,.18,0,.27L25.14,46.59Z"/><path class="cls-2" d="M38.86,46.59,37.78,34.7c0-.09,0-.18,0-.27,0-5.11-1.67-9.61-5.77-12.29-4.1,2.68-5.74,7.18-5.77,12.29,0,.09,0,.18,0,.27L25.14,46.59Z"/><circle class="cls-3" cx="32" cy="19.56" r="14.06"/><path class="cls-4" d="M43.14,21.47A11.14,11.14,0,1,0,21.2,24.2a25.52,25.52,0,0,1,.9,6.38v.52A6.41,6.41,0,0,0,24.21,36l3.93,3.56a4,4,0,0,0,2.7,1h2.32a4,4,0,0,0,2.7-1L39.79,36a6.35,6.35,0,0,0,2.11-4.74v-.63a24.41,24.41,0,0,1,.86-6.25A10.84,10.84,0,0,0,43.14,21.47Z"/><path class="cls-5" d="M39.23,12.89a3.65,3.65,0,0,0-.25-.53c-1.68-2.91-7.26-2.84-12.46.17-4.31,2.49-7,6.2-6.84,9.06a3.13,3.13,0,0,0-.43,0l1.36,7.35a2.91,2.91,0,0,0,2.8-3.66c2.51.44,5.93-.29,9.2-2.18a17.56,17.56,0,0,0,1.6-1,18.71,18.71,0,0,1-1.63,1.86,16.81,16.81,0,0,1-1.69,1.5c2.59-.12,5.84-1.72,8.61-4.49a17.39,17.39,0,0,0,3.55-5A8.18,8.18,0,0,0,39.23,12.89Z"/><path class="cls-6" d="M31.55,10.34a3.57,3.57,0,0,0-.46,0A11.12,11.12,0,0,1,41.28,21.47a11.27,11.27,0,0,1-.37,2.86,24,24,0,0,0-.86,6.25v.63A6.39,6.39,0,0,1,37.94,36L34,39.51a4,4,0,0,1-2.71,1h1.86a4,4,0,0,0,2.7-1L39.79,36a6.35,6.35,0,0,0,2.11-4.74v-.63a24.41,24.41,0,0,1,.86-6.25,10.84,10.84,0,0,0,.38-2.86A11.13,11.13,0,0,0,31.55,10.34Z"/><path class="cls-7" d="M26.39,36a6.45,6.45,0,0,1-2.11-4.85v-.52a26,26,0,0,0-.89-6.38,11.13,11.13,0,0,1,9.7-13.81A11.13,11.13,0,0,0,21.2,24.2a25.52,25.52,0,0,1,.9,6.38v.52A6.41,6.41,0,0,0,24.21,36l3.93,3.56a4,4,0,0,0,2.7,1H33a4,4,0,0,1-2.71-1Z"/><polygon class="cls-7" points="29.52 25.52 31.5 26.71 31.5 31.42 30.27 30.75 30.81 30.03 30.1 28.24 30.81 27.5 29.52 25.52"/><polygon class="cls-1" points="34.48 25.52 32.49 26.71 32.49 31.42 33.73 30.75 33.19 30.03 33.9 28.24 33.19 27.5 34.48 25.52"/><path class="cls-8" d="M43.14,21.47A11.14,11.14,0,1,0,21.2,24.2a25.52,25.52,0,0,1,.9,6.38v.52A6.41,6.41,0,0,0,24.21,36l3.93,3.56a4,4,0,0,0,2.7,1h2.32a4,4,0,0,0,2.7-1L39.79,36a6.35,6.35,0,0,0,2.11-4.74v-.63a24.41,24.41,0,0,1,.86-6.25A10.84,10.84,0,0,0,43.14,21.47Z"/><path class="cls-3" d="M41,23a4.48,4.48,0,0,1,4.16-3.67l-1.36,7.35A2.9,2.9,0,0,1,41,23Z"/><ellipse class="cls-3" cx="40.86" cy="17.57" rx="4.33" ry="5.93"/><path class="cls-6" d="M44,19.56a14,14,0,0,1-2.36,7.78,10.59,10.59,0,0,1,1.41.9A14,14,0,0,0,32,5.5c-.35,0-.69,0-1,0A14.05,14.05,0,0,1,44,19.56Z"/><path class="cls-8" d="M36.53,17.57c0,3.28,1.94,5.93,4.33,5.93H41a2.85,2.85,0,0,0,2.85,3.22"/><path class="cls-5" d="M30.93,36.11a1.07,1.07,0,0,0,2.14,0Z"/><path class="cls-9" d="M33.22,34.23,32,34.52l-1.22-.29-1,.29a2.72,2.72,0,0,0,4.36,0Z"/><path class="cls-9" d="M32.9,33.55c-.3-.2-.9.27-.9.27s-.6-.47-.9-.27-1.69.81-1.69.81l.52.07.59-.11,1.48.44,1.48-.44.59.11.52-.07S33.21,33.74,32.9,33.55Z"/><path class="cls-5" d="M33.41,31.22l-.85.37v0L32,31.49l-.56.08v0l-.85-.37-.44.19.44.42a2.35,2.35,0,0,0,.76.48l.65.25.65-.25a2.35,2.35,0,0,0,.76-.48l.44-.42Z"/><path class="cls-10" d="M32,31.87a2.46,2.46,0,0,1-.52-.1,3,3,0,0,1-.44-.23l-.41-.25c-.11-.08-.26,0-.41.08.12-.08.24-.25.45-.19l.47.13a2,2,0,0,0,.44.1,1.72,1.72,0,0,0,.42,0Z"/><path class="cls-10" d="M33.78,31.37c-.15-.06-.3-.16-.41-.08l-.41.25a3,3,0,0,1-.44.23,2.46,2.46,0,0,1-.52.1v-.5a1.72,1.72,0,0,0,.42,0,2,2,0,0,0,.44-.1l.47-.13C33.54,31.12,33.66,31.29,33.78,31.37Z"/><path class="cls-10" d="M28.85,34.41h.89l.9-.15h0l1.3.07a.26.26,0,0,1,.23.27.23.23,0,0,1-.26.23h-.05l-1.26-.3h0l-.91.05h0Z"/><path class="cls-10" d="M35.15,34.41l-.89.18h0l-.91-.05h0l-1.26.3a.25.25,0,1,1-.12-.49h0l1.3-.07h0l.9.15h.89Z"/><path class="cls-10" d="M30.78,36.05a6.26,6.26,0,0,1,2.44,0,5.79,5.79,0,0,1-2.44,0Z"/><circle class="cls-10" cx="27.68" cy="26.46" r="0.78"/><path class="cls-10" d="M30.26,26c-.37-.16-.72-.38-1-.52a2.74,2.74,0,0,0-1-.2h0A11,11,0,0,1,26.4,25a8.07,8.07,0,0,1-1.72-.62,7.5,7.5,0,0,1,1.83,0,11.93,11.93,0,0,1,1.79.29h0a2.18,2.18,0,0,1,1.18.49A4.89,4.89,0,0,1,30.26,26Z"/><path class="cls-10" d="M22.86,27.28a4.4,4.4,0,0,0,1.25,3.31,6.85,6.85,0,0,0,.77.66,4.31,4.31,0,0,1,.76.84,4,4,0,0,1,.7,2,3.77,3.77,0,0,0-1.08-1.71,3.93,3.93,0,0,0-.8-.55,7.59,7.59,0,0,1-1-.5,5.7,5.7,0,0,1-1.68-1.64,6,6,0,0,1-.93-2.26v0a1,1,0,1,1,2-.4A1.18,1.18,0,0,1,22.86,27.28Z"/><circle class="cls-10" cx="36.32" cy="26.46" r="0.78"/><path class="cls-10" d="M33.74,26a4.89,4.89,0,0,1,.81-.9,2.18,2.18,0,0,1,1.18-.49h0a11.93,11.93,0,0,1,1.79-.29,7.5,7.5,0,0,1,1.83,0A8.07,8.07,0,0,1,37.6,25a11,11,0,0,1-1.79.3h0a2.74,2.74,0,0,0-1,.2C34.46,25.64,34.11,25.86,33.74,26Z"/><path class="cls-10" d="M43.13,27.47a6,6,0,0,1-.93,2.26,5.7,5.7,0,0,1-1.68,1.64,7.59,7.59,0,0,1-1,.5,3.93,3.93,0,0,0-.8.55,3.77,3.77,0,0,0-1.08,1.71,4,4,0,0,1,.7-2,4.31,4.31,0,0,1,.76-.84,6.85,6.85,0,0,0,.77-.66,4.4,4.4,0,0,0,1.25-3.31,1,1,0,1,1,2,.13Z"/><path class="cls-3" d="M38.79,10.7a3.65,3.65,0,0,0-.25-.53c-1.68-2.91-7.26-2.83-12.46.17-4.31,2.49-7,6.21-6.84,9.06-.14,0-.28,0-.43,0l1.36,7.35A2.91,2.91,0,0,0,23,23.05c2.5.44,5.92-.29,9.19-2.17.56-.33,1.09-.68,1.6-1a19.68,19.68,0,0,1-1.62,1.85,19.34,19.34,0,0,1-1.69,1.5c2.58-.12,5.83-1.72,8.6-4.49a17.16,17.16,0,0,0,3.55-5A8.14,8.14,0,0,0,38.79,10.7Z"/><path class="cls-11" d="M32,5.5A14.06,14.06,0,0,0,20.25,27.28,6.76,6.76,0,0,1,22.12,26a13.88,13.88,0,0,1-1-5.25A14.07,14.07,0,0,1,35.15,6.64,13.73,13.73,0,0,1,38.31,7,14,14,0,0,0,32,5.5Z"/><path class="cls-11" d="M33.91,11.3H34a10.84,10.84,0,0,1,3-.42,11,11,0,0,1,2.45.28,10.92,10.92,0,0,0-15,5.66A10.93,10.93,0,0,1,33.91,11.3Z"/><path class="cls-11" d="M31.15,13.16a10.94,10.94,0,0,0-4.44,3.39,11.05,11.05,0,0,0-1.62,3,5.33,5.33,0,0,1,1.05.1,10.89,10.89,0,0,1,5-6.46Z"/><path class="cls-8" d="M41.94,29.51a14.06,14.06,0,1,0-19.88,0"/><path class="cls-10" d="M20.17,25.71A1.81,1.81,0,0,0,21.72,25a2.42,2.42,0,0,0,.44-1.84L22,22l1.12.23a11.46,11.46,0,0,0,5.33-.4,18,18,0,0,0,2.61-1,26.74,26.74,0,0,0,2.44-1.38l2.77-1.62-2.13,2.28-1.65,1.77c-.29.28-.61.52-.92.78l-.92.77-.21-.56a10.81,10.81,0,0,0,4.62-1.32,18,18,0,0,0,4-2.86,18,18,0,0,1-3.85,3.14,11.36,11.36,0,0,1-4.74,1.67l-.89.08.68-.64.84-.8c.28-.27.57-.53.84-.81l1.46-1.79.64.66a27,27,0,0,1-2.47,1.63,20.07,20.07,0,0,1-2.71,1.23,12.85,12.85,0,0,1-6,.8l1-1a4.13,4.13,0,0,1-.59,3.21,3.74,3.74,0,0,1-3,1.59h0a1,1,0,0,1-1-1,1,1,0,0,1,1-1Z"/><circle class="cls-7" cx="27.89" cy="32.2" r="0.31"/><path class="cls-12" d="M39.32,44.59v-2.4a31.63,31.63,0,0,1-7.32.72,31.63,31.63,0,0,1-7.32-.72v2.4L8,47.21V56H56V47.21Z"/><path class="cls-13" d="M33.6,50.81l-1.36,3.87a.25.25,0,0,1-.48,0L30.4,50.81a.25.25,0,0,1,0-.17l1.36-3.87a.25.25,0,0,1,.48,0l1.36,3.87A.25.25,0,0,1,33.6,50.81Z"/><path class="cls-13" d="M39.32,44.52V42.19a31.63,31.63,0,0,1-7.32.72,31.63,31.63,0,0,1-7.32-.72v2.33a31.63,31.63,0,0,0,7.32.72A31.63,31.63,0,0,0,39.32,44.52Z"/><polygon class="cls-13" points="39.32 44.59 39.32 46.92 56 49.54 56 47.21 39.32 44.59"/><polygon class="cls-13" points="24.68 44.59 8 47.21 8 49.54 24.68 46.92 24.68 44.59"/><path class="cls-2" d="M39.32,44.59v-2.4a31.63,31.63,0,0,1-7.32.72,31.63,31.63,0,0,1-7.32-.72v2.4L8,47.21V56H56V47.21Z"/></svg>