<svg id="art" xmlns="http://www.w3.org/2000/svg" viewBox="0 0 64 64"><defs><style>.cls-1{fill:#304b87;}.cls-2{fill:#536299;}.cls-3{fill:#041256;}.cls-4{fill:#5df9e6;}.cls-5{fill:none;stroke:#041256;stroke-linecap:round;stroke-miterlimit:10;stroke-width:2px;}.cls-6{fill:#768dcc;}</style></defs><title>game of thrones, game, thrones, series, chair, iron, throne </title><path class="cls-1" d="M14.56,49.13v0l0,0,0,0s0,0,0,0h.09l2-1.36a.34.34,0,0,1,.14,0l4.93-.6H22l.18,0h0a.7.7,0,0,1,.2.08l0,0,.14.09,0,0,.15.14,0,0-.12-1a.21.21,0,0,1,.09-.2s0,0,0,0h0l.09,0,.2,0a.22.22,0,0,1,.16,0,.24.24,0,0,1,.09.15v.13l.06.52h.08v.13l1.61-.2a.54.54,0,0,0,.34-.16,1.26,1.26,0,0,1,.93-.32l.17,0,.06,0,.1,0,.07,0,.08,0,.07,0,.07,0,.07.06,0,0,.07.06a.08.08,0,0,0,0,0,1.09,1.09,0,0,1,.22.41,1.24,1.24,0,0,1-1,1.62,1.26,1.26,0,0,1-.72-.13.62.62,0,0,0-.4-.08l-1.66.2.07.56.06-.07,0,.2a.21.21,0,0,1-.09.2.21.21,0,0,1-.17.13h-.1l-.1,0a.22.22,0,0,1-.24-.19l-.13-1a1.09,1.09,0,0,1-.14.23,1.21,1.21,0,0,1-.82.47l-4.93.6a.26.26,0,0,1-.15,0l-.09,0h0L15.2,49.4h0l-.61-.23h0Z"/><path class="cls-2" d="M23.11,49.45h.2a.23.23,0,0,0,.17-.13.22.22,0,0,0,.09-.2l0-.21a.23.23,0,0,1-.07.07l-.06-.55,1.66-.21a.78.78,0,0,1,.4.08,1.23,1.23,0,0,0,1.76-1.41l0,0a1.09,1.09,0,0,1,.22.41,1.24,1.24,0,0,1-1,1.62,1.26,1.26,0,0,1-.72-.13.62.62,0,0,0-.4-.08l-1.66.2.07.56.06-.07,0,.2a.21.21,0,0,1-.09.2.21.21,0,0,1-.17.13h-.1l-.1,0a.22.22,0,0,1-.24-.19l0-.33Z"/><path class="cls-2" d="M23.38,46.5v.11h-.13v-.13h-.08l0-.32a.24.24,0,0,1,.15,0,.24.24,0,0,1,.09.15Z"/><path class="cls-2" d="M14.93,48.88l1.68.62.09,0a.39.39,0,0,0,.15,0L21.78,49a1.2,1.2,0,0,0,.82-.46,1.09,1.09,0,0,0,.14-.23l.1.78a1.24,1.24,0,0,1-.79.43l-4.93.6a.26.26,0,0,1-.15,0l-.09,0L15.2,49.4l-.61-.23h0v0l0,0,0,0s0,0,0,0h.09l.22-.15Z"/><path class="cls-3" d="M23.28,46.22a.24.24,0,0,1,.09.15v.13l.06.52h.08v.13l1.61-.2a.54.54,0,0,0,.34-.16,1.23,1.23,0,0,1,.83-.32h.1l.17,0,.06,0,.1,0,.07,0,.08,0,.07,0,.07,0,.07.06,0,0,.07.06a.08.08,0,0,0,0,0,1.09,1.09,0,0,1,.22.41,1.24,1.24,0,0,1-1,1.62h-.15a1.23,1.23,0,0,1-.57-.14.74.74,0,0,0-.33-.09h-.07l-1.66.2.07.56.06-.07,0,.2a.21.21,0,0,1-.09.2l-.61,0-.13-1a1.09,1.09,0,0,1-.14.23,1.21,1.21,0,0,1-.82.47l-4.93.6h0a.22.22,0,0,1-.11,0l-.09,0L15.2,49.4l-.61-.23,2.09-1.51a.34.34,0,0,1,.14,0l4.93-.6H22l.18,0h0a.7.7,0,0,1,.2.08l0,0,.14.09,0,0,.15.14,0,0-.12-1a.21.21,0,0,1,.09-.2s0,0,0,0h.45m1.8-2.91-.71,1.22-.4-.31H21.68l-.49.82-4.61.56a2.4,2.4,0,0,0-1,.39l0,0h0l-2.08,1.51-3,2.2,3.51,1.3.61.23,1.67.62.1,0a2.4,2.4,0,0,0,.8.14h.29l4-.49v.11l1.67.09.62,0,.74,0,.59-.46a2.13,2.13,0,0,0,.52-.56,3.24,3.24,0,0,0,.82.11,2.56,2.56,0,0,0,.39,0A3.19,3.19,0,0,0,29,49.44a3.21,3.21,0,0,0-.26-3.83l-.08-.1-.17-.17-.15-.13-.18-.14L28,45l-.18-.11-.22-.1-.18-.08-.27-.08-.16,0a3,3,0,0,0-.45-.07h-.25a3.19,3.19,0,0,0-1.06.18l-.17-1.33Z"/><path class="cls-1" d="M16.74,52.89s0,0,0,0l0,0,0,0s0,0,0,0h.08l1.92-1a.28.28,0,0,1,.13,0l4.45,0,.2,0h.05l.17,0h0l.17.08,0,0,.12.1,0,0,.12.14s0,0,0,0v-.91a.22.22,0,0,1,.11-.17v0h0l.09,0h.18a.2.2,0,0,1,.14.06.17.17,0,0,1,.06.14v.58h.07V52h1.45a.66.66,0,0,0,.33-.12,1.13,1.13,0,0,1,.86-.18l.14,0,.05,0,.09,0,.06,0,.07,0,.06,0,.05,0,.06.05a.1.1,0,0,1,0,0l.06.06s0,0,0,0a1.13,1.13,0,0,1,.17.39,1.12,1.12,0,0,1-1.08,1.34,1.14,1.14,0,0,1-.63-.19.61.61,0,0,0-.35-.11h-1.5v.5a.18.18,0,0,0,.07,0v.18a.19.19,0,0,1-.09.17.21.21,0,0,1-.17.1h-.18a.19.19,0,0,1-.2-.19v-.91a.9.9,0,0,1-.15.19,1.1,1.1,0,0,1-.78.33l-4.45,0a.28.28,0,0,1-.13,0l-.08,0h0l-1.43-.72h0l-.52-.26s0,0,0,0Z"/><path class="cls-2" d="M24.33,54h.18a.21.21,0,0,0,.17-.1.19.19,0,0,0,.09-.16v-.19l-.07.06v-.51h1.5a.61.61,0,0,1,.35.11,1.14,1.14,0,0,0,.63.19,1.1,1.1,0,0,0,1.08-1.27l0,0a1.13,1.13,0,0,1,.17.39,1.12,1.12,0,0,1-1.08,1.34,1.14,1.14,0,0,1-.63-.19.61.61,0,0,0-.35-.11h-1.5v.5a.18.18,0,0,0,.07,0v.18a.19.19,0,0,1-.09.17.21.21,0,0,1-.17.1h-.18a.19.19,0,0,1-.2-.19V54Z"/><path class="cls-2" d="M24.87,51.43v.1h-.12v-.12h-.07v-.29a.2.2,0,0,1,.13.06.17.17,0,0,1,.06.14Z"/><path class="cls-2" d="M17.1,52.7l1.43.72.08,0a.19.19,0,0,0,.13,0l4.45,0a1.1,1.1,0,0,0,.78-.34.7.7,0,0,0,.15-.19v.71a1.08,1.08,0,0,1-.75.3l-4.45,0a.28.28,0,0,1-.13,0l-.08,0-1.43-.72-.52-.26s0,0,0,0v0s0,0,0,0l0,0,0,0s0,0,0,0h.08l.21-.11Z"/><path class="cls-3" d="M24.4,51.13l.41,0a.17.17,0,0,1,.06.14v.58h.07V52h1.45a.66.66,0,0,0,.33-.12,1.08,1.08,0,0,1,.64-.2.86.86,0,0,1,.22,0l.14,0,.05,0,.09,0,.06,0,.07,0,.06,0,.05,0,.06.05a.1.1,0,0,1,0,0l.06.07,0,0a1.13,1.13,0,0,1,.17.39,1.12,1.12,0,0,1-1.08,1.34h0a1.11,1.11,0,0,1-.62-.19.6.6,0,0,0-.34-.11H24.89v.5a.18.18,0,0,0,.07,0v.18a.19.19,0,0,1-.09.17l-.55-.09v-.91a.9.9,0,0,1-.15.19,1.1,1.1,0,0,1-.78.33l-4.45,0h0a.28.28,0,0,1-.13,0l-.08,0-1.43-.72-.52-.26,2-1.14a.28.28,0,0,1,.13,0l4.45,0h0l.19,0h.05l.17,0h0l.17.08,0,0,.12.1,0,0,.12.14s0,0,0,0v-.91a.22.22,0,0,1,.11-.17v0m2.51-3-1,1.32-.21-.21L25,49.19l-.41,0L23.48,49l-.52.69-4.07,0a2.23,2.23,0,0,0-1,.26h0l0,0-2,1.13L12.52,53l3.35,1.68.52.26,1.43.73.08,0a2.26,2.26,0,0,0,1,.24l3.4,0V56L24,56.3l.55.09.73.13.64-.39a2,2,0,0,0,.47-.38,3.31,3.31,0,0,0,1,.16,3.11,3.11,0,0,0,2.41-1.15,3.14,3.14,0,0,0,.64-2.59,3.22,3.22,0,0,0-.46-1.1l0-.06,0,0-.14-.18-.13-.14-.16-.16-.15-.13-.16-.12-.2-.13L28.76,50l-.24-.11-.15,0a2.9,2.9,0,0,0-.42-.12,3.92,3.92,0,0,0-.59-.05,3.25,3.25,0,0,0-.44,0V48.15Z"/><path class="cls-1" d="M49.44,49.13v0l0,0,0,0s0,0,0,0h-.09l-2-1.36a.34.34,0,0,0-.14,0L42.25,47H42l-.18,0h0a.7.7,0,0,0-.2.08l-.05,0-.14.09,0,0-.15.14,0,0,.12-1a.21.21,0,0,0-.09-.2s0,0,0,0h0l-.09,0-.2,0a.22.22,0,0,0-.16,0,.24.24,0,0,0-.09.15v.13l-.06.52h-.08v.13l-1.61-.2a.54.54,0,0,1-.34-.16,1.26,1.26,0,0,0-.93-.32l-.17,0-.06,0-.1,0-.07,0-.08,0-.07,0-.07,0-.07.06,0,0-.07.06a.08.08,0,0,1,0,0,1.09,1.09,0,0,0-.22.41,1.24,1.24,0,0,0,1,1.62,1.26,1.26,0,0,0,.72-.13.62.62,0,0,1,.4-.08l1.66.2-.07.56-.06-.07,0,.2a.21.21,0,0,0,.09.2.21.21,0,0,0,.17.13h.1l.1,0a.22.22,0,0,0,.24-.19l.13-1a1.09,1.09,0,0,0,.14.23,1.21,1.21,0,0,0,.82.47l4.93.6a.26.26,0,0,0,.15,0l.09,0h0l1.68-.62h0l.61-.23h0Z"/><path class="cls-2" d="M40.89,49.45h-.2a.23.23,0,0,1-.17-.13.22.22,0,0,1-.09-.2l0-.21a.23.23,0,0,0,.07.07l.06-.55-1.66-.21a.78.78,0,0,0-.4.08,1.23,1.23,0,0,1-1.76-1.41l0,0a1.09,1.09,0,0,0-.22.41,1.24,1.24,0,0,0,1,1.62,1.26,1.26,0,0,0,.72-.13.62.62,0,0,1,.4-.08l1.66.2-.07.56-.06-.07,0,.2a.21.21,0,0,0,.09.2.21.21,0,0,0,.17.13h.1l.1,0a.22.22,0,0,0,.24-.19l0-.33Z"/><path class="cls-2" d="M40.62,46.5v.11h.13v-.13h.08l0-.32a.24.24,0,0,0-.15,0,.24.24,0,0,0-.09.15Z"/><path class="cls-2" d="M49.07,48.88l-1.68.62-.09,0a.39.39,0,0,1-.15,0L42.22,49a1.2,1.2,0,0,1-.82-.46,1.09,1.09,0,0,1-.14-.23l-.1.78a1.24,1.24,0,0,0,.79.43l4.93.6a.26.26,0,0,0,.15,0l.09,0,1.68-.62.61-.23h0v0l0,0,0,0s0,0,0,0h-.09l-.22-.15Z"/><path class="cls-3" d="M40.72,46.22h.45s0,0,0,0a.21.21,0,0,1,.09.2l-.12,1,0,0,.15-.14,0,0,.14-.09.05,0a.7.7,0,0,1,.2-.08h0L42,47h.28l4.93.6a.34.34,0,0,1,.14,0l2.09,1.51-.61.23L47.12,50l-.09,0a.22.22,0,0,1-.11,0h0L42,49.47a1.21,1.21,0,0,1-.82-.47,1.09,1.09,0,0,1-.14-.23l-.13,1-.61,0a.21.21,0,0,1-.09-.2l0-.2.06.07.07-.56-1.66-.2h-.07a.74.74,0,0,0-.33.09,1.23,1.23,0,0,1-.57.14h-.15a1.24,1.24,0,0,1-1-1.62,1.09,1.09,0,0,1,.22-.41.08.08,0,0,0,0,0l.07-.06,0,0,.07-.06.07,0,.07,0,.08,0,.07,0,.1,0,.06,0,.17,0h.1a1.23,1.23,0,0,1,.83.32.54.54,0,0,0,.34.16l1.61.2V47h.08l.06-.52v-.13a.24.24,0,0,1,.09-.15m-1.8-2.91-.17,1.33a3.19,3.19,0,0,0-1.06-.18h-.25a3.4,3.4,0,0,0-.46.07h-.06l-.11,0-.25.09-.17.06-.23.12L36,45l-.18.12-.18.14-.13.12-.19.18,0,.05-.06.08a3.23,3.23,0,0,0-.23,3.8,3.19,3.19,0,0,0,2.34,1.47,2.56,2.56,0,0,0,.39,0,3.24,3.24,0,0,0,.82-.11,2.13,2.13,0,0,0,.52.56l.59.46.74,0,.62,0,1.67-.09v-.11l4,.49h.28a2.4,2.4,0,0,0,.8-.14l.1,0,1.67-.62.61-.23,3.51-1.3-3-2.2L48.5,46h0l0,0a2.4,2.4,0,0,0-1-.39l-4.61-.56-.49-.82H40l-.4.31-.71-1.22Z"/><path class="cls-1" d="M47.26,52.89s0,0,0,0l0,0,0,0s0,0,0,0h-.08l-1.92-1a.28.28,0,0,0-.13,0l-4.45,0-.2,0h0l-.17,0h0l-.17.08,0,0-.12.1,0,0-.12.14s0,0,0,0v-.91a.22.22,0,0,0-.11-.17v0h0l-.09,0h-.18a.2.2,0,0,0-.14.06.17.17,0,0,0-.06.14v.58h-.07V52H37.61a.66.66,0,0,1-.33-.12,1.13,1.13,0,0,0-.86-.18l-.14,0-.05,0-.09,0-.06,0-.07,0-.06,0a.12.12,0,0,0-.05,0l-.06.05a.1.1,0,0,0,0,0l-.06.06,0,0a1.13,1.13,0,0,0-.17.39,1.12,1.12,0,0,0,1.08,1.34,1.14,1.14,0,0,0,.63-.19.61.61,0,0,1,.35-.11h1.5v.5a.18.18,0,0,1-.07,0v.18a.19.19,0,0,0,.09.17.21.21,0,0,0,.17.1h.18a.19.19,0,0,0,.2-.19v-.91a.9.9,0,0,0,.15.19,1.1,1.1,0,0,0,.78.33l4.45,0a.28.28,0,0,0,.13,0l.08,0h0l1.43-.72h0l.52-.26s0,0,0,0Z"/><path class="cls-2" d="M39.67,54h-.18a.21.21,0,0,1-.17-.1.19.19,0,0,1-.09-.16v-.19l.07.06v-.51H37.8a.61.61,0,0,0-.35.11,1.14,1.14,0,0,1-.63.19,1.1,1.1,0,0,1-1.08-1.27l0,0a1.13,1.13,0,0,0-.17.39,1.12,1.12,0,0,0,1.08,1.34,1.14,1.14,0,0,0,.63-.19.61.61,0,0,1,.35-.11h1.5v.5a.18.18,0,0,1-.07,0v.18a.19.19,0,0,0,.09.17.21.21,0,0,0,.17.1h.18a.19.19,0,0,0,.2-.19V54Z"/><path class="cls-2" d="M39.13,51.43v.1h.12v-.12h.07v-.29a.2.2,0,0,0-.13.06.17.17,0,0,0-.06.14Z"/><path class="cls-2" d="M46.9,52.7l-1.43.72-.08,0a.19.19,0,0,1-.13,0l-4.45,0a1.1,1.1,0,0,1-.78-.34.7.7,0,0,1-.15-.19v.71a1.08,1.08,0,0,0,.75.3l4.45,0a.28.28,0,0,0,.13,0l.08,0,1.43-.72.52-.26s0,0,0,0v0s0,0,0,0l0,0,0,0s0,0,0,0h-.08l-.21-.11Z"/><path class="cls-3" d="M39.6,51.13v0a.22.22,0,0,1,.11.17v.91s0,0,0,0l.12-.14,0,0,.12-.1,0,0,.17-.08h0l.17,0h0l.19,0h0l4.45,0a.28.28,0,0,1,.13,0l2,1.14-.52.26-1.43.72-.08,0a.28.28,0,0,1-.13,0h0l-4.45,0a1.1,1.1,0,0,1-.78-.33.9.9,0,0,1-.15-.19v.91l-.55.09a.19.19,0,0,1-.09-.17v-.18a.18.18,0,0,0,.07,0v-.5H37.6a.6.6,0,0,0-.34.11,1.11,1.11,0,0,1-.62.19h0a1.12,1.12,0,0,1-1.08-1.34,1.13,1.13,0,0,1,.17-.39l0,0,.06-.07a.1.1,0,0,1,0,0L35.9,52a.12.12,0,0,1,.05,0l.06,0,.07,0,.06,0,.09,0,.05,0,.14,0a.86.86,0,0,1,.22,0,1.08,1.08,0,0,1,.64.2.66.66,0,0,0,.33.12h1.45V51.9h.07v-.58a.17.17,0,0,1,.06-.14l.41,0m-2.51-3v1.57a3.25,3.25,0,0,0-.44,0,3.92,3.92,0,0,0-.59.05,2.9,2.9,0,0,0-.42.12l-.07,0-.1,0a2.29,2.29,0,0,0-.23.11l-.15.08-.21.13-.16.12-.16.14-.15.14-.12.14-.15.19-.05.06,0,.08a3,3,0,0,0-.44,1.06,3.14,3.14,0,0,0,.64,2.59,3.1,3.1,0,0,0,2.39,1.15h0a3.39,3.39,0,0,0,1-.16,2.23,2.23,0,0,0,.47.38l.64.39.73-.13L40,56.3,41.67,56V56l3.38,0h0a2.36,2.36,0,0,0,1.06-.24l.07,0L47.61,55l.52-.26L51.48,53l-3.26-1.85-2-1.13,0,0h0a2.23,2.23,0,0,0-1-.26l-4.07,0L40.52,49l-1.13.12-.41,0-.69.07-.21.21-1-1.32Z"/><path class="cls-1" d="M31.94,11h0s0,0,0,0l0,0,0,0v.09l1.12,2.14a.28.28,0,0,1,0,.15l0,5a1.79,1.79,0,0,1,0,.23.43.43,0,0,0,0,.05,1.27,1.27,0,0,1-.06.18v0a.69.69,0,0,1-.1.19l0,0a1.34,1.34,0,0,1-.11.14l0,0-.16.13,0,0h1a.21.21,0,0,1,.19.12h0a.29.29,0,0,1,0,.09v.2a.24.24,0,0,1-.07.16.2.2,0,0,1-.15.06H33v.07H32.9v1.62a.58.58,0,0,0,.12.36,1.22,1.22,0,0,1,.2,1,.75.75,0,0,1,0,.16.14.14,0,0,0,0,.06s0,.07-.05.1l0,.06a.56.56,0,0,1-.05.08l0,.06-.05.07-.06.06-.06,0-.07.06,0,0a1.27,1.27,0,0,1-.43.18,1.24,1.24,0,0,1-1.49-1.21,1.27,1.27,0,0,1,.21-.69.71.71,0,0,0,.13-.4V20.11h-.56a.16.16,0,0,0,.06.08H30.4a.45.45,0,0,1-.29-.29v-.2a.22.22,0,0,1,.22-.22h1a1.12,1.12,0,0,1-.21-.17,1.2,1.2,0,0,1-.37-.87l0-5a.33.33,0,0,1,0-.15l.05-.09h0l.81-1.59h0l.29-.58s0,0,0,0Z"/><path class="cls-4" d="M30.76,19.47h0Z"/><path class="cls-4" d="M30.55,20.12h-.29a.22.22,0,0,0,.14.06h.15Z"/><path class="cls-4" d="M32.91,21.79V20.17H33v-.06h-.56v.08h-.13V21.8a.65.65,0,0,0,.12.36,1.23,1.23,0,0,1,.21,1,1.09,1.09,0,0,1,0,.17s0,0,0,.05a1,1,0,0,1,0,.1.16.16,0,0,0,0,.07l-.05.07,0,.07,0,.06-.06.06-.06.05-.07.06,0,0a1.11,1.11,0,0,1-.39.16,1.25,1.25,0,0,0,.51,0,1.27,1.27,0,0,0,.43-.18l0,0,.07-.06.06,0,.06-.06.05-.07,0-.06a.56.56,0,0,0,.05-.08l0-.06s0-.07.05-.1a.14.14,0,0,1,0-.06.75.75,0,0,0,0-.16,1.22,1.22,0,0,0-.2-1A.6.6,0,0,1,32.91,21.79Z"/><path class="cls-4" d="M33.89,19.67a.29.29,0,0,0,0-.09h0a.21.21,0,0,0-.19-.12h-1l0,0,.16-.13,0,0a1.34,1.34,0,0,0,.11-.14l0,0a.69.69,0,0,0,.1-.19v0a1.27,1.27,0,0,0,.06-.18.43.43,0,0,1,0-.05,1.79,1.79,0,0,0,0-.23l0-5a.28.28,0,0,0,0-.15L32,11.16v-.09l0,0,0,0s0,0,0,0h0s0,0,0,0l-.23.46.93,1.8a.23.23,0,0,1,0,.14l0,5a1.64,1.64,0,0,1,0,.22s0,0,0,.06a1.21,1.21,0,0,1,0,.18v0c0,.07-.07.13-.1.19l0,0a1.13,1.13,0,0,1-.1.13l0,0-.16.14,0,0h1a.19.19,0,0,1,.18.11h0a.16.16,0,0,1,0,.09v.21a.21.21,0,0,1-.07.15.2.2,0,0,1-.13.06h.54a.2.2,0,0,0,.15-.06.24.24,0,0,0,.07-.16Z"/><path class="cls-2" d="M30.65,19.49v.2a.22.22,0,0,0,.11.18A.21.21,0,0,0,31,20h.21a.27.27,0,0,1-.07-.08h.56v1.67a.78.78,0,0,1-.12.4,1.09,1.09,0,0,0-.21.69,1.22,1.22,0,0,0,1.41,1.21l0,0a1.27,1.27,0,0,1-.43.18,1.24,1.24,0,0,1-1.49-1.21,1.27,1.27,0,0,1,.21-.69.71.71,0,0,0,.13-.4V20.11h-.56a.16.16,0,0,0,.06.08H30.4a.45.45,0,0,1-.29-.29v-.2a.22.22,0,0,1,.22-.22h.33Z"/><path class="cls-2" d="M33.55,20.09h-.11V20h.13v-.07h.32a.2.2,0,0,1-.06.14.2.2,0,0,1-.15.06Z"/><path class="cls-2" d="M32.15,11.43,31.34,13l0,.09a.24.24,0,0,0,0,.15l0,5a1.28,1.28,0,0,0,.37.87,1.18,1.18,0,0,0,.22.17h-.79a1.2,1.2,0,0,1-.34-.83l0-5a.33.33,0,0,1,0-.15l.05-.09.81-1.59.29-.58s0,0,0,0h0s0,0,0,0l0,0,0,0v.09l.12.24Z"/><path class="cls-3" d="M31.9,11.06l1.26,2.24a.28.28,0,0,1,0,.15l0,5a1.79,1.79,0,0,1,0,.23.43.43,0,0,0,0,.05,1.27,1.27,0,0,1-.06.18v0a.69.69,0,0,1-.1.19l0,0a1.34,1.34,0,0,1-.11.14l0,0-.16.13,0,0h1a.21.21,0,0,1,.19.12h0l-.05.45a.2.2,0,0,1-.15.06H33v.07H32.9v1.62a.58.58,0,0,0,.12.36,1.22,1.22,0,0,1,.2,1,.75.75,0,0,1,0,.16.14.14,0,0,0,0,.06s0,.07-.05.1l0,.06a.56.56,0,0,1-.05.08l0,.06-.05.07-.06.06-.06,0-.07.06,0,0a1.27,1.27,0,0,1-.43.18,1.06,1.06,0,0,1-.25,0,1.24,1.24,0,0,1-1.24-1.23,1.27,1.27,0,0,1,.21-.69.7.7,0,0,0,.13-.39V20.11h-.56a.16.16,0,0,0,.06.08H30.4a.19.19,0,0,1-.18-.11l.1-.6h1a1.12,1.12,0,0,1-.21-.17,1.2,1.2,0,0,1-.37-.87l0-5a.33.33,0,0,1,0-.15l.05-.09.81-1.59.29-.58m-.09-4.25-1.69,3.34-.3.58L29,12.33l0,.08a2.34,2.34,0,0,0-.25,1.07l0,4h-.1l-.29,1.64-.1.61-.13.74.38.64a2.5,2.5,0,0,0,.5.57,3.24,3.24,0,0,0,3,4.41,3.57,3.57,0,0,0,.65-.06,3.09,3.09,0,0,0,1.14-.48l.11-.07.19-.15.14-.13.17-.17.14-.16.12-.17a1.37,1.37,0,0,0,.13-.2l.1-.17a2,2,0,0,0,.11-.26,1.16,1.16,0,0,0,.06-.15,3.17,3.17,0,0,0,.12-.44,3.3,3.3,0,0,0,0-1.33h1.34l-1.13-.85.36-.36.07-.7,0-.45L36,18.66l-.76-.57,0-4.65a2.17,2.17,0,0,0-.27-1.06v-.06l-1.27-2.24L31.81,6.81Z"/><path class="cls-1" d="M25.44,16.35h0l0,0,0,0,0,.09L27.4,18a.34.34,0,0,1,.09.12l1.81,4.62a.79.79,0,0,1,.06.22.11.11,0,0,1,0,.05,1.37,1.37,0,0,1,0,.19v0a.76.76,0,0,1,0,.21s0,0,0,.06a1,1,0,0,1-.05.16s0,0,0,0a.77.77,0,0,1-.1.18l0,0,.94-.37a.22.22,0,0,1,.22,0h0l.06.08.07.18a.25.25,0,0,1,0,.17.28.28,0,0,1-.12.12l-.12.05-.49.19,0,.07-.13.05.6,1.5a.57.57,0,0,0,.24.29,1.26,1.26,0,0,1,.54.82c0,.06,0,.12,0,.17v.06a.41.41,0,0,0,0,.11s0,.05,0,.07,0,.06,0,.09,0,.05,0,.08l0,.08,0,.08,0,.06,0,.09,0,0a1.16,1.16,0,0,1-.34.32,1.24,1.24,0,0,1-1.88-1.31.71.71,0,0,0,0-.41l-.61-1.56-.53.21.09,0-.19.08a.24.24,0,0,1-.22,0,.24.24,0,0,1-.17-.14l0-.09,0-.09a.22.22,0,0,1,.12-.29l.94-.37a1.29,1.29,0,0,1-.26-.08,1.18,1.18,0,0,1-.65-.68l-1.82-4.62a.26.26,0,0,1,0-.15v-.1h0L25.35,17h0l.06-.65s0,0,0,0Z"/><path class="cls-2" d="M27.28,24.7l0,.1,0,.09a.21.21,0,0,0,.17.13.22.22,0,0,0,.22,0l.19-.08a.2.2,0,0,1-.09-.05l.53-.2L29,26.29a.71.71,0,0,1,0,.41,1.2,1.2,0,0,0,.06.72,1.23,1.23,0,0,0,1.75.62l0,0a1.16,1.16,0,0,1-.34.32,1.24,1.24,0,0,1-1.88-1.31.71.71,0,0,0,0-.41l-.61-1.56-.53.21.09,0-.19.08a.24.24,0,0,1-.22,0,.24.24,0,0,1-.17-.14l0-.09,0-.09a.22.22,0,0,1,.12-.29l.31-.12Z"/><path class="cls-2" d="M30.21,24.23l-.11,0,0-.13.12-.05,0-.07.3-.11a.2.2,0,0,1,0,.15.28.28,0,0,1-.12.12Z"/><path class="cls-2" d="M25.78,16.64l-.18,1.78v.1a.26.26,0,0,0,0,.15l1.82,4.62a1.19,1.19,0,0,0,.66.68,1.21,1.21,0,0,0,.25.08l-.73.29a1.2,1.2,0,0,1-.61-.66l-1.82-4.62a.26.26,0,0,1,0-.15v-.1L25.35,17l.06-.65s0,0,0,0h.07l0,0,0,0,0,.09.2.17Z"/><path class="cls-3" d="M25.41,16.39l2,1.64a.34.34,0,0,1,.09.12l1.81,4.62a.79.79,0,0,1,.06.22.11.11,0,0,1,0,.05,1.37,1.37,0,0,1,0,.19v0a.76.76,0,0,1,0,.21s0,0,0,.06a1,1,0,0,1-.05.16s0,0,0,0a.77.77,0,0,1-.1.18l0,0,.94-.37h.08a.24.24,0,0,1,.14.05h0l.12.44a.28.28,0,0,1-.12.12l-.12.05-.49.19,0,.07-.13.05.6,1.5a.57.57,0,0,0,.24.29,1.26,1.26,0,0,1,.54.82c0,.06,0,.12,0,.17v.06a.41.41,0,0,0,0,.11s0,.05,0,.07,0,.06,0,.09,0,.05,0,.08l0,.08,0,.08,0,.06,0,.09,0,0a1.16,1.16,0,0,1-.34.32,1.19,1.19,0,0,1-.67.2,1.24,1.24,0,0,1-1.21-1.51.71.71,0,0,0,0-.41l-.61-1.56-.53.21.09,0-.19.08h-.08a.23.23,0,0,1-.14,0L27,24.81l.94-.37a1.29,1.29,0,0,1-.26-.08,1.18,1.18,0,0,1-.65-.68l-1.82-4.62a.25.25,0,0,1,0-.15v-.1L25.35,17l.06-.65M23.8,12.46l-.38,3.73-.06.65-.18,1.77v.1a2.26,2.26,0,0,0,.15,1.09l1.46,3.72-.09,0L25,25.2l.12.6.15.74.59.46a2.38,2.38,0,0,0,.67.35,3.31,3.31,0,0,0,.22,1.2,3.23,3.23,0,0,0,3,2.05,3.27,3.27,0,0,0,1.74-.51,3.2,3.2,0,0,0,.9-.86l.08-.11.12-.2.09-.18.09-.21c0-.06.05-.13.07-.2a1.94,1.94,0,0,0,.05-.2,2,2,0,0,0,0-.24c0-.08,0-.14,0-.2a2.53,2.53,0,0,0,0-.28.76.76,0,0,0,0-.16c0-.15,0-.3-.05-.45a3.11,3.11,0,0,0-.5-1.23l1.25-.49-1.36-.39.2-.47-.18-.67-.12-.44L32,22l-.92-.26-1.7-4.33a2.45,2.45,0,0,0-.63-.89l0,0,0,0-2-1.64L23.8,12.46Z"/><path class="cls-1" d="M18.7,18.34s0,0,0,0h0l0,0a.05.05,0,0,1,0,0l.06.07,2.18,1a.35.35,0,0,1,.11.1l3,3.95a1.18,1.18,0,0,1,.11.19l0,.05a.64.64,0,0,1,.06.18v0a1.55,1.55,0,0,1,0,.21v.05a.91.91,0,0,1,0,.17v0a1.17,1.17,0,0,1,0,.2l0,0,.81-.61a.2.2,0,0,1,.21,0h0a.13.13,0,0,1,.07.06l.13.16a.24.24,0,0,1,0,.16.24.24,0,0,1-.09.15l-.1.07-.41.32,0,.06-.1.08,1,1.29a.69.69,0,0,0,.32.21,1.24,1.24,0,0,1,.74.65l.06.15s0,0,0,.06,0,.07,0,.11a.17.17,0,0,1,0,.07s0,.06,0,.09v.08a.28.28,0,0,1,0,.09.25.25,0,0,1,0,.08s0,.05,0,.07l0,.1s0,0,0,0a1.3,1.3,0,0,1-.24.41,1.24,1.24,0,0,1-1.92-.07,1.38,1.38,0,0,1-.25-.69.63.63,0,0,0-.13-.39l-1-1.33-.45.34a.16.16,0,0,0,.1,0l-.17.13a.2.2,0,0,1-.21,0,.2.2,0,0,1-.2-.08l-.06-.08-.06-.08a.21.21,0,0,1,0-.31l.8-.61a1.22,1.22,0,0,1-.27,0,1.25,1.25,0,0,1-.82-.48l-3-3.95a.35.35,0,0,1-.06-.14l0-.1h0L18.79,19h0l-.11-.64v0Z"/><path class="cls-2" d="M22.73,25.88l.07.08.06.08a.21.21,0,0,0,.2.08.2.2,0,0,0,.21,0l.17-.12-.1,0,.45-.34,1,1.33a.61.61,0,0,1,.13.39,1.31,1.31,0,0,0,.25.68,1.24,1.24,0,0,0,1.86.13v0a1.3,1.3,0,0,1-.24.41,1.24,1.24,0,0,1-1.92-.07,1.38,1.38,0,0,1-.25-.69.63.63,0,0,0-.13-.39l-1-1.33-.45.34a.16.16,0,0,0,.1,0l-.17.13a.2.2,0,0,1-.21,0,.2.2,0,0,1-.2-.08l-.06-.08-.06-.08a.21.21,0,0,1,0-.31l.26-.19Z"/><path class="cls-2" d="M25.42,24.62l-.09.07-.08-.11.11-.08-.05-.05.26-.2a.21.21,0,0,1,0,.15.24.24,0,0,1-.09.15Z"/><path class="cls-2" d="M19.1,18.53l.31,1.76,0,.1a.42.42,0,0,0,.06.14l3,3.95a1.24,1.24,0,0,0,.82.47.82.82,0,0,0,.27,0l-.63.48a1.29,1.29,0,0,1-.77-.47l-3-3.95a.35.35,0,0,1-.06-.14l0-.1L18.79,19l-.11-.64v0l0,0s0,0,0,0h0l0,0a.05.05,0,0,1,0,0l.06.07.24.12Z"/><path class="cls-3" d="M18.68,18.38l2.36,1a.35.35,0,0,1,.11.1l3,3.95a1.18,1.18,0,0,1,.11.19l0,.05a.64.64,0,0,1,.06.18v0a1.55,1.55,0,0,1,0,.21v.05a.91.91,0,0,1,0,.17v0a1.17,1.17,0,0,1,0,.2l0,0,.81-.61a.18.18,0,0,1,.12-.05l.09,0h0l.23.39a.24.24,0,0,1-.09.15l-.1.07-.41.32,0,.06-.1.08,1,1.29a.69.69,0,0,0,.32.21,1.24,1.24,0,0,1,.74.65l.06.15s0,0,0,.06a.43.43,0,0,1,0,.11.17.17,0,0,1,0,.07s0,.06,0,.09v.08a.28.28,0,0,1,0,.09.25.25,0,0,1,0,.08s0,.05,0,.07l0,.1s0,0,0,0a1.3,1.3,0,0,1-.24.41,1.24,1.24,0,0,1-.93.42,1.26,1.26,0,0,1-1-.49,1.38,1.38,0,0,1-.25-.69.63.63,0,0,0-.13-.39l-1-1.33-.45.34a.16.16,0,0,0,.1,0l-.17.13a.19.19,0,0,1-.12,0,.15.15,0,0,1-.09,0l-.28-.55.8-.61H23a1.25,1.25,0,0,1-.82-.48l-3-3.95a.35.35,0,0,1-.06-.14l0-.1L18.79,19l-.11-.64M16.06,15l.65,3.69.11.64.31,1.76,0,.1a2.2,2.2,0,0,0,.44,1L20,25.42l-.08.06L20.69,27l.28.55.33.67.7.28a2.39,2.39,0,0,0,.74.16,3.24,3.24,0,0,0,5.54,1.28,3.12,3.12,0,0,0,.63-1.07.4.4,0,0,0,0-.12,2.17,2.17,0,0,0,.07-.24l0-.19a.91.91,0,0,0,0-.23,1.36,1.36,0,0,0,0-.21v-.21c0-.08,0-.16,0-.24s0-.14,0-.2a2.61,2.61,0,0,0-.06-.27s0-.1,0-.16-.11-.28-.17-.42A3.25,3.25,0,0,0,28,25.3L29,24.49H27.62l.06-.5-.35-.6L27.1,23l-.59-1h-1l-2.81-3.7a2.47,2.47,0,0,0-.85-.69l0,0h0l-2.35-1L16.06,15Z"/><path class="cls-1" d="M12.49,22.19h.09s0,0,0,0l.08.05,2.4.27a.24.24,0,0,1,.14.05l4.13,2.76.17.14,0,0,.12.15,0,0a1.14,1.14,0,0,1,.1.19s0,0,0,.05a.94.94,0,0,1,0,.16l0,.05a1.49,1.49,0,0,1,0,.21v0l.56-.84a.22.22,0,0,1,.2-.1h0l.09,0,.17.12a.19.19,0,0,1,.09.14.23.23,0,0,1,0,.16L20.9,26l-.29.43.06,0-.07.11,1.34.9a.69.69,0,0,0,.37.1,1.23,1.23,0,0,1,.91.37.69.69,0,0,1,.11.13l0,0,.06.09,0,.06a.36.36,0,0,1,0,.09l0,.08a6165427505959.61,6165427505959.61,0,0,0,0,.16v.07a.38.38,0,0,1,0,.1v.05a1.22,1.22,0,0,1-.09.46,1.24,1.24,0,0,1-1.83.56,1.26,1.26,0,0,1-.46-.57.72.72,0,0,0-.25-.32L19.54,28l-.31.46a.17.17,0,0,0,.1,0l-.12.18a.23.23,0,0,1-.19.09.24.24,0,0,1-.22,0l-.08-.06-.08-.05a.22.22,0,0,1-.06-.31l.56-.84a.87.87,0,0,1-.26.08,1.19,1.19,0,0,1-.93-.18l-4.13-2.76a.22.22,0,0,1-.1-.11l-.05-.08h0l-.86-1.57h0l-.32-.57a0,0,0,0,1,0,0Z"/><path class="cls-2" d="M18.77,28l.08,0,.08.06a.24.24,0,0,0,.22,0,.19.19,0,0,0,.19-.09l.12-.17h-.1l.31-.47,1.4.93a.72.72,0,0,1,.25.32,1.16,1.16,0,0,0,.46.57,1.23,1.23,0,0,0,1.79-.49v0a1.22,1.22,0,0,1-.09.46,1.24,1.24,0,0,1-1.83.56,1.26,1.26,0,0,1-.46-.57.72.72,0,0,0-.25-.32L19.54,28l-.31.46a.17.17,0,0,0,.1,0l-.12.18a.23.23,0,0,1-.19.09.24.24,0,0,1-.22,0l-.08-.06-.08-.05a.22.22,0,0,1-.06-.31l.18-.27Z"/><path class="cls-2" d="M20.9,26l-.06.09L20.73,26l.07-.11-.06,0,.18-.26a.2.2,0,0,1,.08.13.23.23,0,0,1,0,.16Z"/><path class="cls-2" d="M12.94,22.25l.86,1.56,0,.08A.4.4,0,0,0,14,24l4.13,2.75A1.24,1.24,0,0,0,19,27a1.34,1.34,0,0,0,.26-.09l-.44.66a1.21,1.21,0,0,1-.88-.19l-4.13-2.76a.22.22,0,0,1-.1-.11l-.05-.08-.86-1.57-.32-.57a0,0,0,0,1,0,0v0h.09s0,0,0,0l.08.05.26,0Z"/><path class="cls-3" d="M12.49,22.24l2.57.22a.24.24,0,0,1,.14.05l4.13,2.76.17.14,0,0,.12.15,0,0a1.14,1.14,0,0,1,.1.19s0,0,0,.05a.94.94,0,0,1,0,.16l0,.05a1.49,1.49,0,0,1,0,.21v0l.56-.84a.2.2,0,0,1,.18-.1h0l.34.3a.23.23,0,0,1,0,.16L20.9,26l-.29.43.06,0-.07.11,1.34.9a.64.64,0,0,0,.35.1h.05a1.24,1.24,0,0,1,.88.37.69.69,0,0,1,.11.13l0,0,.06.09,0,.06a.36.36,0,0,1,0,.09l0,.08a6165427505959.61,6165427505959.61,0,0,0,0,.16v.07a.38.38,0,0,1,0,.1v.05a1.22,1.22,0,0,1-.09.46,1.25,1.25,0,0,1-1.15.77,1.23,1.23,0,0,1-.68-.21,1.26,1.26,0,0,1-.46-.57.72.72,0,0,0-.25-.32L19.54,28l-.31.46h0l.08,0-.12.18a.21.21,0,0,1-.18.09h0l-.44-.43.56-.84a.87.87,0,0,1-.26.08,1,1,0,0,1-.24,0,1.24,1.24,0,0,1-.69-.21l-4.13-2.76a.22.22,0,0,1-.1-.11l-.05-.08-.86-1.57-.32-.57m6.84,6.19h0M8.93,19.94l1.81,3.27.32.57.86,1.57.05.08a2.5,2.5,0,0,0,.74.81L16,28.46l0,.09,1.2,1.16.44.43.54.52.75,0H19a2.25,2.25,0,0,0,.64-.09A3.28,3.28,0,0,0,22.33,32a3.26,3.26,0,0,0,3-2,3.11,3.11,0,0,0,.24-1.21v-.14a2,2,0,0,0,0-.23,1.12,1.12,0,0,0,0-.2,1.89,1.89,0,0,0-.05-.23.89.89,0,0,0-.06-.2l-.06-.2-.1-.22-.09-.18A1.58,1.58,0,0,0,25,27l-.09-.13a3.27,3.27,0,0,0-.3-.35,3.4,3.4,0,0,0-1.11-.73l.75-1.11-1.34.46-.1-.5-.54-.45L22,23.86l-.87-.74-.9.31-3.87-2.58a2.22,2.22,0,0,0-1-.38h-.06l-2.56-.22-3.73-.31Z"/><path class="cls-1" d="M12.49,29.22h.09s0,0,0,0l.08,0,2.4.27a.34.34,0,0,1,.14.05l4.13,2.76.17.14,0,0,.12.15,0,0a1.14,1.14,0,0,1,.1.19s0,0,0,0a.85.85,0,0,1,0,.17s0,0,0,0a1.49,1.49,0,0,1,0,.21v0l.56-.84a.22.22,0,0,1,.2-.1h0l.09,0,.17.12a.19.19,0,0,1,.09.14.23.23,0,0,1,0,.16L20.9,33l-.29.43.06,0-.07.11,1.34.9a.69.69,0,0,0,.37.1,1.23,1.23,0,0,1,.91.37.69.69,0,0,1,.11.13l0,0,.06.09,0,.06a.36.36,0,0,1,0,.09l0,.08a4110285003975.36,4110285003975.36,0,0,1,0,.16v.07a.38.38,0,0,1,0,.1v.05a1.22,1.22,0,0,1-.09.46,1.24,1.24,0,0,1-1.83.56,1.26,1.26,0,0,1-.46-.57.72.72,0,0,0-.25-.32L19.54,35l-.31.46a.17.17,0,0,0,.1,0l-.12.18a.23.23,0,0,1-.19.09.24.24,0,0,1-.22,0l-.08-.06-.08,0a.22.22,0,0,1-.06-.31l.56-.84a1.34,1.34,0,0,1-.26.09,1.24,1.24,0,0,1-.93-.19L13.82,31.6a.22.22,0,0,1-.1-.11l-.05-.08h0l-.86-1.57h0l-.32-.57a0,0,0,0,1,0,0S12.49,29.23,12.49,29.22Z"/><path class="cls-2" d="M18.77,35l.08.05.08.06a.22.22,0,0,0,.22,0,.19.19,0,0,0,.19-.09l.12-.17h-.1l.31-.47,1.4.93a.72.72,0,0,1,.25.32,1.16,1.16,0,0,0,.46.57,1.23,1.23,0,0,0,1.79-.49v0a1.22,1.22,0,0,1-.09.46,1.24,1.24,0,0,1-1.83.56,1.26,1.26,0,0,1-.46-.57.72.72,0,0,0-.25-.32L19.54,35l-.31.46a.17.17,0,0,0,.1,0l-.12.18a.23.23,0,0,1-.19.09.24.24,0,0,1-.22,0l-.08-.06-.08,0a.22.22,0,0,1-.06-.31l.18-.27Z"/><path class="cls-2" d="M20.9,33l-.06.09L20.73,33l.07-.11-.06,0,.18-.26a.22.22,0,0,1,.08.13.23.23,0,0,1,0,.16Z"/><path class="cls-2" d="M12.94,29.28l.86,1.56,0,.08A.4.4,0,0,0,14,31l4.13,2.75A1.24,1.24,0,0,0,19,34a1.34,1.34,0,0,0,.26-.09l-.44.66a1.21,1.21,0,0,1-.88-.19L13.82,31.6a.22.22,0,0,1-.1-.11l-.05-.08-.86-1.57-.32-.57a0,0,0,0,1,0,0s0,0,0,0h.09s0,0,0,0l.08,0,.26,0Z"/><path class="cls-3" d="M12.49,29.27l2.57.22a.34.34,0,0,1,.14.05l4.13,2.76.17.14,0,0,.12.15,0,0a1.14,1.14,0,0,1,.1.19s0,0,0,0a.85.85,0,0,1,0,.17s0,0,0,0a1.49,1.49,0,0,1,0,.21v0l.56-.84a.2.2,0,0,1,.18-.1h0l.34.3a.23.23,0,0,1,0,.16L20.9,33l-.29.43.06,0-.07.11,1.34.9a.64.64,0,0,0,.35.1h.05a1.24,1.24,0,0,1,.88.37.69.69,0,0,1,.11.13l0,0,.06.09,0,.06a.36.36,0,0,1,0,.09l0,.08a4110285003975.36,4110285003975.36,0,0,1,0,.16v.07a.38.38,0,0,1,0,.1v.05a1.22,1.22,0,0,1-.09.46,1.25,1.25,0,0,1-1.15.77,1.23,1.23,0,0,1-.68-.21,1.26,1.26,0,0,1-.46-.57.72.72,0,0,0-.25-.32L19.54,35l-.31.46h0l.08,0-.12.18a.21.21,0,0,1-.18.09h0l-.44-.43.56-.84a1.34,1.34,0,0,1-.26.09l-.24,0a1.24,1.24,0,0,1-.69-.21L13.82,31.6a.22.22,0,0,1-.1-.11l-.05-.08-.86-1.57-.32-.57m6.84,6.19h0M8.93,27l1.81,3.27.32.57.86,1.57.05.08a2.5,2.5,0,0,0,.74.81L16,35.49l0,.09,1.2,1.16.44.43.54.52.75,0H19a2.25,2.25,0,0,0,.64-.09A3.28,3.28,0,0,0,22.33,39a3.26,3.26,0,0,0,3-2,3.11,3.11,0,0,0,.24-1.21v-.14a2,2,0,0,0,0-.23,1.12,1.12,0,0,0,0-.2,1.89,1.89,0,0,0-.05-.23.89.89,0,0,0-.06-.2l-.06-.2-.1-.22-.09-.18A1.58,1.58,0,0,0,25,34l-.09-.13a3.27,3.27,0,0,0-.3-.35,3.22,3.22,0,0,0-1.11-.72l.75-1.12-1.34.46-.1-.5-.54-.45L22,30.89l-.87-.74-.9.31-3.87-2.58a2.22,2.22,0,0,0-1-.38h-.06l-2.56-.22L8.93,27Z"/><path class="cls-1" d="M8.28,35.11s0,0,0,0,0,0,0,0h0s0,0,0,0l.09,0,2.34-.61h.15l4.84,1.09.21.07,0,0a1,1,0,0,1,.17.1h0l.16.14,0,0,.1.14,0,0a.76.76,0,0,1,.09.18s0,0,0,.05l.22-1a.24.24,0,0,1,.15-.16h.12l.19,0a.21.21,0,0,1,.14.1.22.22,0,0,1,0,.16l0,.13-.11.51h.07l0,.13L19,36.6a.63.63,0,0,0,.38,0,1.28,1.28,0,0,1,1,0l.15.09.05,0,.08.06.06,0,.06.07.05.06.05.07.05.07,0,.07a.56.56,0,0,1,0,.08s0,0,0,.05a1,1,0,0,1,.08.46,1.24,1.24,0,0,1-1.51,1.18,1.32,1.32,0,0,1-.63-.36.66.66,0,0,0-.35-.21L16.94,38l-.13.55.09-.05,0,.21a.19.19,0,0,1-.14.15.21.21,0,0,1-.21.07l-.1,0-.09,0a.23.23,0,0,1-.17-.27l.22-1a1.2,1.2,0,0,1-.21.17,1.25,1.25,0,0,1-.93.16l-4.85-1.09a.24.24,0,0,1-.13-.07l-.08-.06h0L8.79,35.58h0l-.5-.42v0A0,0,0,0,1,8.28,35.11Z"/><path class="cls-2" d="M16.22,38.28l.1,0,.1,0a.21.21,0,0,0,.2-.06.22.22,0,0,0,.15-.16l.05-.2-.09,0,.12-.55,1.64.37a.75.75,0,0,1,.35.21,1.14,1.14,0,0,0,.63.36,1.23,1.23,0,0,0,1.5-1.1v0a1,1,0,0,1,.08.46,1.24,1.24,0,0,1-1.51,1.18,1.32,1.32,0,0,1-.63-.36.66.66,0,0,0-.35-.21L16.94,38l-.13.55.09-.05,0,.21a.19.19,0,0,1-.14.15.21.21,0,0,1-.21.07l-.1,0-.09,0a.23.23,0,0,1-.17-.27l.07-.32Z"/><path class="cls-2" d="M17.47,35.59l0,.11-.13,0,0-.13-.08,0,.07-.31a.18.18,0,0,1,.13.09.22.22,0,0,1,0,.16Z"/><path class="cls-2" d="M8.71,35l1.37,1.14.07.07.14.07,4.84,1.08a1.22,1.22,0,0,0,.94-.16l.21-.17-.18.77a1.22,1.22,0,0,1-.88.14l-4.85-1.09a.24.24,0,0,1-.13-.07l-.08-.06L8.79,35.58l-.5-.42v0a0,0,0,0,1,0,0s0,0,0,0,0,0,0,0h0s0,0,0,0l.09,0L8.68,35Z"/><path class="cls-3" d="M10.85,34.42h.07l4.84,1.09.21.07,0,0a1,1,0,0,1,.17.1h0l.16.14,0,0,.1.14,0,0a.76.76,0,0,1,.09.18s0,0,0,.05l.22-1a.24.24,0,0,1,.15-.16h0l.43.15a.22.22,0,0,1,0,.16l0,.13-.11.51h.07l0,.13L19,36.6h.12a.8.8,0,0,0,.26,0,1.2,1.2,0,0,1,.47-.1,1.38,1.38,0,0,1,.51.11l.15.09.05,0,.08.06.06,0,.06.07.05.06.05.07.05.07,0,.07a.56.56,0,0,1,0,.08s0,0,0,.05a1,1,0,0,1,.08.46,1.23,1.23,0,0,1-1.23,1.21,1.24,1.24,0,0,1-.91-.39.66.66,0,0,0-.35-.21L16.94,38l-.13.55.09-.05,0,.21a.19.19,0,0,1-.14.15l-.57-.24.22-1a1.2,1.2,0,0,1-.21.17,1.24,1.24,0,0,1-.93.16l-4.85-1.09a.24.24,0,0,1-.13-.07l-.08-.06L8.79,35.58l-.5-.42,2.48-.73h.08m6,4h0m-6.06-6a2.33,2.33,0,0,0-.59.08H10.2l-2.47.72-3.59,1L7,36.69l.5.42,1.37,1.15.07.06a2.34,2.34,0,0,0,1,.48l3.9.88,0,.1,1.54.65.57.24.69.3.71-.24a2.38,2.38,0,0,0,.67-.35,3.12,3.12,0,0,0,1.12.48,3.36,3.36,0,0,0,.71.08,3.22,3.22,0,0,0,3.23-3.15,3,3,0,0,0-.2-1.22l-.05-.13c0-.07-.07-.14-.11-.22l-.09-.17-.12-.19-.13-.17a1.07,1.07,0,0,0-.14-.16l-.17-.18-.14-.13-.23-.17L21.55,35a3,3,0,0,0-.4-.21,3.28,3.28,0,0,0-1.3-.29l.29-1.3-1.08.91-.28-.43-.65-.23-.43-.15-1.08-.37-.73.61-4.53-1a2.22,2.22,0,0,0-.51-.06Z"/><path class="cls-1" d="M11.6,42.67s0,0,0,0l0,0h0s0,0,0,0l.09,0,2.32-.67a.26.26,0,0,1,.15,0l4.87.95.21.07.06,0a.65.65,0,0,1,.16.09h0a1.07,1.07,0,0,1,.16.14s0,0,0,0a.69.69,0,0,1,.11.13l0,0a1,1,0,0,1,.09.18.08.08,0,0,1,0,0l.2-1a.19.19,0,0,1,.14-.16l0,0v0a.14.14,0,0,1,.09,0l.2,0a.19.19,0,0,1,.14.09.2.2,0,0,1,0,.17l0,.12-.1.51.07,0,0,.13,1.58.31a.71.71,0,0,0,.38,0,1.23,1.23,0,0,1,1,0l.16.07,0,0L24,44,24,44l.07.06.05.06.05.07.05.07,0,.06,0,.09s0,0,0,0A1.24,1.24,0,0,1,23,46.15a1.17,1.17,0,0,1-.65-.34.69.69,0,0,0-.35-.2l-1.65-.32-.11.55a.19.19,0,0,0,.09-.05l0,.2a.22.22,0,0,1-.14.17.26.26,0,0,1-.21.07l-.09,0-.1,0a.23.23,0,0,1-.18-.26l.2-1a.91.91,0,0,1-.21.18,1.24,1.24,0,0,1-.93.18l-4.87-.95a.35.35,0,0,1-.14-.06l-.07-.06h0l-1.41-1.11h0l-.51-.4v0Z"/><path class="cls-2" d="M19.63,45.62h.1l.1,0a.2.2,0,0,0,.2-.07.19.19,0,0,0,.14-.16l0-.2a.2.2,0,0,1-.08,0l.1-.55,1.65.32a.73.73,0,0,1,.36.21,1.17,1.17,0,0,0,.64.34,1.23,1.23,0,0,0,1.46-1.14l0,0A1.24,1.24,0,0,1,23,46.15a1.17,1.17,0,0,1-.65-.34.69.69,0,0,0-.35-.2l-1.65-.32-.11.55a.19.19,0,0,0,.09-.05l0,.2a.22.22,0,0,1-.14.17.26.26,0,0,1-.21.07l-.09,0-.1,0a.23.23,0,0,1-.18-.26l.07-.32Z"/><path class="cls-2" d="M20.8,42.89l0,.11-.13,0,0-.13H20.6l.06-.32a.25.25,0,0,1,.13.09.2.2,0,0,1,0,.17Z"/><path class="cls-2" d="M12,42.55l1.4,1.1.08.07a.31.31,0,0,0,.13.06l4.87.95a1.3,1.3,0,0,0,1.14-.36l-.15.77a1.19,1.19,0,0,1-.89.16l-4.87-.95a.35.35,0,0,1-.14-.06l-.07-.06-1.41-1.11-.51-.4v0s0,0,0,0l0,0h0s0,0,0,0l.09,0,.25-.07Z"/><path class="cls-3" d="M14.16,41.91h.06l4.87.95.21.07.06,0a.65.65,0,0,1,.16.09h0a1.07,1.07,0,0,1,.16.14s0,0,0,0a.69.69,0,0,1,.11.13l0,0a1,1,0,0,1,.09.18.08.08,0,0,1,0,0l.2-1a.19.19,0,0,1,.14-.16l0,0,.43.14a.2.2,0,0,1,0,.17l0,.12-.1.51.07,0,0,.13,1.58.31h.11a.6.6,0,0,0,.27-.06,1.25,1.25,0,0,1,.5-.11,1.18,1.18,0,0,1,.48.1l.16.07,0,0L24,44,24,44l.07.06.05.06.05.07.05.07,0,.06,0,.09s0,0,0,0a1.22,1.22,0,0,1,.09.46,1.24,1.24,0,0,1-1.24,1.25l-.23,0a1.17,1.17,0,0,1-.65-.34.69.69,0,0,0-.35-.2l-1.65-.32-.11.55a.19.19,0,0,0,.09-.05l0,.2a.22.22,0,0,1-.14.17l-.58-.23.2-1a.91.91,0,0,1-.21.18,1.27,1.27,0,0,1-.69.21,1,1,0,0,1-.24,0l-4.87-.95a.35.35,0,0,1-.14-.06l-.07-.06-1.41-1.11-.51-.4,2.46-.79.09,0m6.15,3.88h0m-6.16-5.88a2.05,2.05,0,0,0-.65.1h-.06l-2.45.8L7.44,42l2.94,2.32.51.4,1.4,1.11.07.06a2.35,2.35,0,0,0,1,.46l3.93.76,0,.11,1.56.61.57.22.7.27.7-.25a2.27,2.27,0,0,0,.66-.38,3.19,3.19,0,0,0,1.75.52,3.25,3.25,0,0,0,3.24-3.25,3.18,3.18,0,0,0-.24-1.21.33.33,0,0,0-.05-.12,1.51,1.51,0,0,0-.11-.22,1,1,0,0,0-.1-.17,2.14,2.14,0,0,0-.13-.19l-.13-.17-.14-.15a1.45,1.45,0,0,0-.18-.17l-.14-.13L25,42.24l-.14-.09a2.6,2.6,0,0,0-.41-.2,3.12,3.12,0,0,0-1.24-.25h-.06l.26-1.31-1.07.94-.28-.42-.66-.22L21,40.56l-1.08-.35-.71.64L14.6,40a2.12,2.12,0,0,0-.44-.05Z"/><path class="cls-1" d="M26.93,35a0,0,0,0,0,0,0V34.9h0l-.07-.08-.61-2.75a.44.44,0,0,0-.08-.15l-3.71-4.44a1.07,1.07,0,0,0-.19-.18s0,0,0-.05l-.18-.12h0a1.09,1.09,0,0,0-.23-.09l-.07,0-.19,0h-.06a1,1,0,0,0-.24,0h-.05l.9-.76a.24.24,0,0,0,.08-.24,0,0,0,0,0,0,0h0a.24.24,0,0,0-.05-.1L22,25.67a.21.21,0,0,0-.17-.09.23.23,0,0,0-.19.06l-.11.09-.47.39L21,26.06l-.12.09-1.21-1.44a.7.7,0,0,1-.16-.42,1.48,1.48,0,0,0-.54-1l-.17-.11-.06,0-.11-.05-.08,0-.11,0-.09,0-.09,0h-.36a1.43,1.43,0,0,0-.52.16A1.44,1.44,0,0,0,17,25.34a1.46,1.46,0,0,0,.72.47.74.74,0,0,1,.4.25l1.25,1.5-.5.42a.24.24,0,0,1,0-.12l-.18.16a.24.24,0,0,0-.09.23.25.25,0,0,0,0,.25l.08.09.07.09a.25.25,0,0,0,.36,0L20,28a1.55,1.55,0,0,0-.07.31,1.47,1.47,0,0,0,.33,1.05L24,33.76a.45.45,0,0,0,.14.1l.11,0h0l1.92.81h0l.7.29h0Z"/><path class="cls-2" d="M19.41,28.46l-.07-.09-.08-.09a.25.25,0,0,1,0-.25.27.27,0,0,1,.09-.24l.18-.15v.11l.51-.42-1.25-1.49a.85.85,0,0,0-.41-.26A1.43,1.43,0,0,1,18,23h0a1.43,1.43,0,0,0-.52.16A1.44,1.44,0,0,0,17,25.34a1.46,1.46,0,0,0,.72.47.74.74,0,0,1,.4.25l1.25,1.5-.5.42a.24.24,0,0,1,0-.12l-.18.16a.24.24,0,0,0-.09.23.25.25,0,0,0,0,.25l.08.09.07.09a.25.25,0,0,0,.36,0l.3-.24Z"/><path class="cls-2" d="M21.54,25.73l-.1.08.1.12.12-.1.05.07.29-.24a.21.21,0,0,0-.16-.08.23.23,0,0,0-.19.06Z"/><path class="cls-2" d="M26.82,34.5l-1.92-.81-.11,0a.45.45,0,0,1-.14-.1L20.94,29.1A1.49,1.49,0,0,1,20.61,28a1.63,1.63,0,0,1,.07-.3l-.71.59a1.46,1.46,0,0,0,.33,1L24,33.76a.45.45,0,0,0,.14.1l.11,0,1.92.81.7.29h0l0,0a0,0,0,0,0,0,0V34.9h0l-.07-.08-.07-.3Z"/><path class="cls-3" d="M18.06,23h.22l.09,0,.09,0,.11,0,.08,0,.11.05.06,0,.17.11a1.48,1.48,0,0,1,.54,1,.7.7,0,0,0,.16.42l1.21,1.44.12-.09.05.06.47-.39.11-.09a.27.27,0,0,1,.17-.06h0a.21.21,0,0,1,.17.09l.15.18a.24.24,0,0,1,.05.1h0a0,0,0,0,1,0,0,.24.24,0,0,1-.08.24l-.9.75h.35l.19,0,.07,0a1.09,1.09,0,0,1,.23.09h0l.18.12s0,0,0,.05a1.07,1.07,0,0,1,.19.18l3.71,4.44a.44.44,0,0,1,.08.15l.61,2.75.07.08h0V35a0,0,0,0,1,0,0l0,0h0l-.7-.29-1.92-.81-.11,0a.45.45,0,0,1-.14-.1L20.3,29.32A1.47,1.47,0,0,1,20,28.27,1.55,1.55,0,0,1,20,28l-.91.75a.23.23,0,0,1-.16.06.27.27,0,0,1-.2-.09l-.07-.09-.08-.09a.25.25,0,0,1,0-.25.24.24,0,0,1,.09-.23l.18-.16a.24.24,0,0,0,0,.12l.5-.42-1.25-1.5a.74.74,0,0,0-.4-.25,1.46,1.46,0,0,1-.72-.47,1.44,1.44,0,0,1,.42-2.19,1.43,1.43,0,0,1,.52-.16h.14m0-2h-.23l-.18,0a3.18,3.18,0,0,0-1.21.39,3.44,3.44,0,0,0,.24,6.16,2.3,2.3,0,0,0-.1.51,2.26,2.26,0,0,0,.51,1.71l.07.09.08.09a2.26,2.26,0,0,0,1.67.81L22.48,35a2.39,2.39,0,0,0,.9.67l.1,0,1.92.81.7.29a2,2,0,0,0,.8.17,2,2,0,0,0,.34,0,2.1,2.1,0,0,0,1-.45,2.18,2.18,0,0,0,.57-.77,2.14,2.14,0,0,0,.19-.7,2.05,2.05,0,0,0-.18-1l-.54-2.4a2.4,2.4,0,0,0-.5-1l-3.57-4.27a1.9,1.9,0,0,0,0-.25,2,2,0,0,0-.3-1.21,1.81,1.81,0,0,0-.22-.32l-.15-.18a2.2,2.2,0,0,0-1.53-.8h-.2a2.34,2.34,0,0,0-.38,0,3.43,3.43,0,0,0-1.2-1.88,3.13,3.13,0,0,0-.4-.28l-.16-.08-.26-.13-.18-.06L19,21.09,18.76,21l-.23,0-.23,0h-.24Z"/><path class="cls-1" d="M29.78,43.14a0,0,0,0,0,0,0l0,0v-.05h.05l0-.1.49-2.77a.37.37,0,0,0,0-.18l-1.72-5.52a2.44,2.44,0,0,0-.1-.24l0-.06a1.88,1.88,0,0,0-.12-.18s0,0,0,0l-.18-.17-.05,0-.17-.11-.05,0-.22-.1h-.05l1.12-.35a.27.27,0,0,0,.17-.19l0,0h0a.21.21,0,0,0,0-.11l-.07-.23a.27.27,0,0,0-.13-.15.21.21,0,0,0-.19,0l-.14,0-.59.18,0-.08-.15,0L27,30.86a.69.69,0,0,1,0-.45,1.42,1.42,0,0,0-.12-1.13,1,1,0,0,0-.1-.17l-.05-.05-.08-.1-.06-.06-.09-.07-.07,0-.09-.05-.09-.05-.07,0-.11,0-.05,0a1.42,1.42,0,0,0-.54-.05,1.45,1.45,0,0,0-.75,2.57.79.79,0,0,1,.28.39l.58,1.86-.62.19a.21.21,0,0,1,0-.1l-.23.07a.25.25,0,0,0-.17.19.23.23,0,0,0-.06.24l0,.11,0,.12a.25.25,0,0,0,.32.16L26.11,34a1.51,1.51,0,0,0-.18.26,1.44,1.44,0,0,0-.1,1.1l1.73,5.52a.29.29,0,0,0,.09.15l.08.09h0l1.46,1.48h0l.53.54h.06Z"/><path class="cls-2" d="M25.34,34.22l0-.12,0-.11a.23.23,0,0,1,.06-.24.25.25,0,0,1,.17-.19l.23-.07a.37.37,0,0,0-.05.11l.63-.2-.58-1.86a.85.85,0,0,0-.28-.39,1.42,1.42,0,0,1-.49-.7A1.45,1.45,0,0,1,26.1,28.6h0a1.42,1.42,0,0,0-.54-.05,1.45,1.45,0,0,0-.75,2.57.79.79,0,0,1,.28.39l.58,1.86-.62.19a.21.21,0,0,1,0-.1l-.23.07a.25.25,0,0,0-.17.19.23.23,0,0,0-.06.24l0,.11,0,.12a.25.25,0,0,0,.32.16l.37-.11Z"/><path class="cls-2" d="M28.35,32.51l-.13,0,.05.15.15-.05,0,.08.36-.11a.24.24,0,0,0-.12-.14.21.21,0,0,0-.19,0Z"/><path class="cls-2" d="M29.87,42.63l-1.46-1.48-.08-.09a.31.31,0,0,1-.1-.15l-1.72-5.52a1.44,1.44,0,0,1,.1-1.1,1.51,1.51,0,0,1,.18-.26l-.88.28a1.43,1.43,0,0,0-.08,1l1.73,5.52a.29.29,0,0,0,.09.15l.08.09,1.46,1.48.53.54h.06a0,0,0,0,0,0,0l0,0v-.05h.05l0-.1.06-.3Z"/><path class="cls-3" d="M25.66,28.53a1.39,1.39,0,0,1,.4.06l.05,0,.11,0,.07,0,.09.05.09.05.07,0,.09.07.06.06.08.1.05.05a1,1,0,0,1,.1.17A1.42,1.42,0,0,1,27,30.41a.69.69,0,0,0,0,.45l.56,1.8.15,0,0,.08.59-.18.14,0,.07,0a.21.21,0,0,1,.12,0,.27.27,0,0,1,.13.15l.07.23a.21.21,0,0,1,0,.11h0l0,0a.27.27,0,0,1-.17.19l-1.12.35h.05l.22.1.05,0,.17.11.05,0,.18.17s0,0,0,0a1.88,1.88,0,0,1,.12.18l0,.06a2.44,2.44,0,0,1,.1.24L30.31,40a.37.37,0,0,1,0,.18L29.84,43l0,.1h-.05v.05l0,0a0,0,0,0,1,0,0h-.06l-.53-.54-1.46-1.48L27.65,41a.29.29,0,0,1-.09-.15l-1.73-5.52a1.44,1.44,0,0,1,.1-1.1,1.51,1.51,0,0,1,.18-.26L25,34.34l-.07,0a.27.27,0,0,1-.25-.18l0-.12,0-.11a.23.23,0,0,1,.06-.24.25.25,0,0,1,.17-.19l.23-.07a.21.21,0,0,0,0,.1l.62-.19-.58-1.86a.79.79,0,0,0-.28-.39,1.45,1.45,0,0,1,.75-2.57h.14m0-2-.37,0a3.46,3.46,0,0,0-2.14,5.79,2.2,2.2,0,0,0-.28.44,2.27,2.27,0,0,0-.19,1.77l0,.11,0,.11A2.23,2.23,0,0,0,24,36.16l1.66,5.31a2.41,2.41,0,0,0,.57,1l.08.08L27.77,44l.53.54a2.08,2.08,0,0,0,1,.56,2.4,2.4,0,0,0,.46,0,2.16,2.16,0,0,0,.62-.09,2.22,2.22,0,0,0,.82-.49,2.1,2.1,0,0,0,.45-.57,2.06,2.06,0,0,0,.22-1l.43-2.43a2.37,2.37,0,0,0-.08-1.12L30.56,34.1l.12-.22a2,2,0,0,0,.19-1.24,2.57,2.57,0,0,0-.08-.38L30.72,32a2.26,2.26,0,0,0-1.11-1.33,2.13,2.13,0,0,0-.55-.2,3.42,3.42,0,0,0-.38-2.19,3.54,3.54,0,0,0-.26-.41l-.12-.15-.19-.21L28,27.42l-.21-.17-.18-.13-.2-.13-.21-.11L27,26.8l-.25-.09-.18-.05a3.26,3.26,0,0,0-.9-.13Z"/><path class="cls-1" d="M32,44h0s0,0,0,0l0,0,0,0v-.11l1.28-2.5a.34.34,0,0,0,.05-.17V35.43a2.06,2.06,0,0,0,0-.26s0-.05,0-.07a.83.83,0,0,0-.06-.21v0a.94.94,0,0,0-.12-.22l0,0c0-.05-.08-.11-.12-.15l0,0-.19-.16,0,0H34a.24.24,0,0,0,.22-.13h0a.23.23,0,0,0,0-.11v-.24a.25.25,0,0,0-.08-.18.23.23,0,0,0-.18-.07H33.2v-.09H33V31.5a.81.81,0,0,1,.14-.43A1.39,1.39,0,0,0,33.41,30a1.8,1.8,0,0,0,0-.19l0-.06a.61.61,0,0,0,0-.12.43.43,0,0,1,0-.07l-.06-.09-.06-.07-.06-.08L33,29.2l-.06-.06-.09-.07-.05,0a1.48,1.48,0,0,0-.5-.21,1.45,1.45,0,0,0-1.73,1.42,1.41,1.41,0,0,0,.25.81.83.83,0,0,1,.15.45v2H30.3a.24.24,0,0,1,.08-.09h-.24a.24.24,0,0,0-.22.13.23.23,0,0,0-.13.21V34a.26.26,0,0,0,.26.25h1.18a1.22,1.22,0,0,0-.25.2,1.44,1.44,0,0,0-.43,1v5.78a.34.34,0,0,0,.05.17l0,.11h0l1,1.85h0L32,44l0,0Z"/><path class="cls-2" d="M30.43,34.2V34a.24.24,0,0,1,.12-.21.26.26,0,0,1,.22-.13H31a.22.22,0,0,0-.07.09h.65V31.76a.77.77,0,0,0-.15-.46,1.41,1.41,0,0,1-.25-.81,1.44,1.44,0,0,1,1.64-1.42l0,0a1.48,1.48,0,0,0-.5-.21,1.45,1.45,0,0,0-1.73,1.42,1.41,1.41,0,0,0,.25.81.83.83,0,0,1,.15.45v2H30.3a.24.24,0,0,1,.08-.09h-.24a.24.24,0,0,0-.22.13.23.23,0,0,0-.13.21V34a.26.26,0,0,0,.26.25h.38Z"/><path class="cls-2" d="M33.81,33.47h-.13v.15h.15v.09h.38a.25.25,0,0,0-.08-.17.23.23,0,0,0-.18-.07Z"/><path class="cls-2" d="M32.24,43.58l-1-1.85-.05-.11a.33.33,0,0,1,0-.17V35.67a1.44,1.44,0,0,1,.42-1,1.57,1.57,0,0,1,.25-.2h-.92a1.44,1.44,0,0,0-.39,1v5.78a.34.34,0,0,0,.05.17l0,.11,1,1.85L32,44l0,0H32s0,0,0,0l0,0,0,0v-.11l.14-.27Z"/><path class="cls-3" d="M32,28.81a1.27,1.27,0,0,1,.79.23l.05,0,.09.07.06.06.07.07.06.08.06.07.06.09a.43.43,0,0,0,0,.07.61.61,0,0,1,0,.12l0,.06a1.8,1.8,0,0,1,0,.19,1.39,1.39,0,0,1-.23,1.12.81.81,0,0,0-.14.43v1.88h.16v.09H34a.23.23,0,0,1,.18.07.25.25,0,0,1,.08.18V34a.23.23,0,0,1,0,.11h0a.24.24,0,0,1-.22.13H32.77l0,0,.19.16,0,0s.08.1.12.15l0,0a.94.94,0,0,1,.12.22v0a.83.83,0,0,1,.06.21s0,0,0,.07a2.06,2.06,0,0,1,0,.26v5.78a.34.34,0,0,1-.05.17l-1.28,2.5V44l0,0,0,0s0,0,0,0H32l0,0-.35-.67-1-1.85,0-.11a.34.34,0,0,1-.05-.17V35.43a1.44,1.44,0,0,1,.43-1,1.22,1.22,0,0,1,.25-.2H30.05a.26.26,0,0,1-.26-.25v-.24a.23.23,0,0,1,.13-.21.24.24,0,0,1,.22-.13h.24a.24.24,0,0,0-.08.09H31v-2a.83.83,0,0,0-.15-.45,1.41,1.41,0,0,1-.25-.81A1.43,1.43,0,0,1,32,28.81m0-2h0a3.43,3.43,0,0,0-3.44,3.44,3.54,3.54,0,0,0,.34,1.5,2.57,2.57,0,0,0-.4.34,2.23,2.23,0,0,0-.71,1.63V34a2.29,2.29,0,0,0,.76,1.69v5.56a2.44,2.44,0,0,0,.27,1.09l.05.1.95,1.85.35.68a2.17,2.17,0,0,0,.79.83A2.13,2.13,0,0,0,32,46a2.11,2.11,0,0,0,.92-.22,2,2,0,0,0,1.13-1.33l1.13-2.19a2.44,2.44,0,0,0,.27-1.09V35.64a1.37,1.37,0,0,0,.17-.17,1.92,1.92,0,0,0,.55-1.13,1.58,1.58,0,0,0,0-.38v-.24a2.25,2.25,0,0,0-.66-1.59,2.6,2.6,0,0,0-.46-.36,3.47,3.47,0,0,0,.29-2.2c0-.16-.08-.31-.13-.47l-.07-.18-.12-.26a1.4,1.4,0,0,0-.1-.16l-.14-.23-.14-.18-.15-.18-.17-.17a.86.86,0,0,1-.14-.13L34,27.45l-.15-.1a3.16,3.16,0,0,0-1.18-.48,3.79,3.79,0,0,0-.67-.06Z"/><path class="cls-1" d="M26.87,42.59a0,0,0,0,0,0,0l0,0,0,0,0,0-.1,0-1.87-2.1a.42.42,0,0,0-.15-.11l-5.39-2.08-.25-.07h-.32a1,1,0,0,0-.25,0h-.06l-.19.07-.05,0-.21.11-.05,0,.43-1.1a.25.25,0,0,0-.05-.25v0h0a.33.33,0,0,0-.1-.06L18,36.81a.25.25,0,0,0-.19,0,.27.27,0,0,0-.14.14l-.05.14-.22.57-.08,0-.06.15-1.75-.68a.74.74,0,0,1-.35-.28,1.4,1.4,0,0,0-1-.62l-.19,0h-.28l-.11,0-.09,0-.09,0-.09,0-.08,0-.1.06,0,0a1.56,1.56,0,0,0-.38.39A1.45,1.45,0,0,0,14.34,39a.76.76,0,0,1,.47,0l1.82.7-.23.61a.21.21,0,0,1-.06-.1l-.09.23a.25.25,0,0,0,.05.25.23.23,0,0,0,.15.19l.11,0,.11,0a.26.26,0,0,0,.33-.15l.43-1.1a1.32,1.32,0,0,0,.09.3,1.47,1.47,0,0,0,.8.77l5.39,2.08a.37.37,0,0,0,.18,0H24l2.07-.22h0l.76-.08h0Z"/><path class="cls-2" d="M17.12,40.51l-.11,0-.1,0a.5.5,0,0,1-.2-.45l.09-.22a.47.47,0,0,0,.05.1l.24-.61-1.82-.71a.79.79,0,0,0-.48,0,1.39,1.39,0,0,1-.85-.06,1.44,1.44,0,0,1-.74-2l0,0a1.56,1.56,0,0,0-.38.39A1.45,1.45,0,0,0,14.34,39a.76.76,0,0,1,.47,0l1.82.7-.23.61a.21.21,0,0,1-.06-.1l-.09.23a.25.25,0,0,0,.05.25.23.23,0,0,0,.15.19l.11,0,.11,0a.26.26,0,0,0,.33-.15l.14-.35Z"/><path class="cls-2" d="M17.66,37.1l-.05.12.15.05,0-.14.08,0,.14-.35a.22.22,0,0,0-.18,0,.24.24,0,0,0-.14.14Z"/><path class="cls-2" d="M26.53,42.2l-2.07.23h-.12a.32.32,0,0,1-.17,0l-5.4-2.09a1.42,1.42,0,0,1-.8-.76,1.71,1.71,0,0,1-.09-.3l-.33.86a1.45,1.45,0,0,0,.77.71l5.39,2.08a.37.37,0,0,0,.18,0H24l2.07-.22.76-.08h0l0,0a0,0,0,0,0,0,0l0,0,0,0,0,0-.1,0-.21-.23Z"/><path class="cls-3" d="M14,36.18h0l.19,0a1.4,1.4,0,0,1,1,.62.74.74,0,0,0,.35.28l1.75.68.06-.15.08,0,.22-.57.05-.14a.27.27,0,0,1,.14-.14.18.18,0,0,1,.1,0H18l.22.09a.33.33,0,0,1,.1.06h0v0a.25.25,0,0,1,.05.25L18,38.33l.05,0,.21-.11.05,0,.19-.07h.06a1,1,0,0,1,.25,0h.32l.25.07,5.39,2.08a.42.42,0,0,1,.15.11l1.87,2.1.1,0,0,0,0,0,0,0a0,0,0,0,1,0,0l0,0h0l-.76.08L24,42.93h-.15a.35.35,0,0,1-.14,0l-5.39-2.08a1.47,1.47,0,0,1-.8-.77,1.32,1.32,0,0,1-.09-.3L17,40.87a.26.26,0,0,1-.24.17l-.09,0-.11,0-.11,0a.23.23,0,0,1-.15-.19.25.25,0,0,1-.05-.25l.09-.23a.21.21,0,0,0,.06.1l.23-.61-1.82-.7a.75.75,0,0,0-.26,0,.71.71,0,0,0-.21,0l-.33,0a1.54,1.54,0,0,1-.52-.09,1.45,1.45,0,0,1-.7-2.13,1.56,1.56,0,0,1,.38-.39l0,0,.1-.06.08,0,.09,0,.09,0,.09,0,.11,0H14m0-2h-.12l-.29,0-.19,0-.27.05-.21.06-.22.08-.22.1a.7.7,0,0,0-.17.09l-.23.13-.15.11a3.23,3.23,0,0,0-.87.93,3.48,3.48,0,0,0-.36,2.93,3.44,3.44,0,0,0,2,2.12,3.25,3.25,0,0,0,1.24.23h.28a3,3,0,0,0,.17.5,2.23,2.23,0,0,0,1.27,1.25l.11,0,.11,0a2.25,2.25,0,0,0,.81.16,2.32,2.32,0,0,0,1-.26l5.19,2a2.52,2.52,0,0,0,.86.16l.25,0h.12l2.07-.22.75-.08a2,2,0,0,0,1.06-.44,2.07,2.07,0,0,0,.64-.86,2.17,2.17,0,0,0,.13-1A2,2,0,0,0,28,40.84L26.4,39a2.43,2.43,0,0,0-.92-.64l-5.2-2a2.14,2.14,0,0,0-.1-.22,2,2,0,0,0-.85-.93A2.85,2.85,0,0,0,19,35L18.76,35A2.27,2.27,0,0,0,17,35a2.29,2.29,0,0,0-.5.3,3.4,3.4,0,0,0-1.95-1.06,2.63,2.63,0,0,0-.49,0Z"/><path class="cls-1" d="M31.91,46.73a0,0,0,0,0,0-.06l0,0a.05.05,0,0,0,0,0l-.1-.05-1.5-2.38a.34.34,0,0,0-.12-.12l-5-2.93A1.28,1.28,0,0,0,25,41l-.06,0-.21-.05h-.35a.69.69,0,0,0-.2,0h-.05l-.23.08-.05,0,.6-1a.25.25,0,0,0,0-.25v0h0a.3.3,0,0,0-.08-.08l-.2-.11a.24.24,0,0,0-.2,0,.22.22,0,0,0-.15.12l-.08.12-.31.53-.07-.05-.08.14-1.62-1a.69.69,0,0,1-.3-.33,1.43,1.43,0,0,0-.84-.77l-.2,0h-.48l-.09,0-.1,0-.08,0-.1,0-.06,0a1.34,1.34,0,0,0-.43.32A1.44,1.44,0,0,0,19.29,41a1.46,1.46,0,0,0,.83.2.77.77,0,0,1,.47.1l1.68,1-.33.56a.21.21,0,0,1,0-.11l-.12.21a.23.23,0,0,0,0,.25.24.24,0,0,0,.12.22l.1.06.1.06a.26.26,0,0,0,.35-.09l.6-1a1.12,1.12,0,0,0,0,.32,1.4,1.4,0,0,0,.67.88l5,2.93a.34.34,0,0,0,.17.05H29l2.08.11h0l.76,0h0S31.91,46.74,31.91,46.73Z"/><path class="cls-2" d="M22.63,43.1l-.1-.06-.1-.06a.25.25,0,0,1-.12-.22.23.23,0,0,1,0-.25l.12-.21a.25.25,0,0,0,0,.11l.33-.57-1.68-1a.85.85,0,0,0-.47-.1,1.45,1.45,0,0,1-.83-.19,1.43,1.43,0,0,1-.39-2.13l-.05,0a1.34,1.34,0,0,0-.43.32A1.44,1.44,0,0,0,19.29,41a1.46,1.46,0,0,0,.83.2.77.77,0,0,1,.47.1l1.68,1-.33.56a.21.21,0,0,1,0-.11l-.12.21a.23.23,0,0,0,0,.25.24.24,0,0,0,.12.22l.1.06.1.06a.26.26,0,0,0,.35-.09l.19-.33Z"/><path class="cls-2" d="M23.71,39.81l-.06.11.13.08.08-.13.07,0,.19-.32a.24.24,0,0,0-.33.1Z"/><path class="cls-2" d="M31.63,46.29l-2.08-.12h-.11a.48.48,0,0,1-.17-.05l-5-2.94a1.4,1.4,0,0,1-.67-.88,1.06,1.06,0,0,1,0-.31l-.47.79a1.41,1.41,0,0,0,.65.83l5,2.93a.34.34,0,0,0,.17.05H29l2.08.11.76,0h0s0,0,0,0a0,0,0,0,0,0-.06l0,0a.05.05,0,0,0,0,0l-.1-.05-.16-.26Z"/><path class="cls-3" d="M20.05,38.3h.24l.2,0a1.43,1.43,0,0,1,.84.77.69.69,0,0,0,.3.33l1.62,1,.08-.14.07.05.31-.53.08-.12a.22.22,0,0,1,.15-.12H24a.22.22,0,0,1,.13,0l.2.11a.3.3,0,0,1,.08.08h0v0a.25.25,0,0,1,0,.25l-.6,1,.05,0,.23-.08h.05a.69.69,0,0,1,.2,0h.35l.21.05L25,41a1.28,1.28,0,0,1,.24.11l5,2.93a.34.34,0,0,1,.12.12l1.5,2.38.1.05a.05.05,0,0,1,0,0l0,0a0,0,0,0,1,0,.06s0,0,0,0h0l-.76,0L29,46.6h-.11a.34.34,0,0,1-.17-.05l-5-2.93a1.4,1.4,0,0,1-.67-.88,1.12,1.12,0,0,1,0-.32l-.6,1a.26.26,0,0,1-.22.13.22.22,0,0,1-.13,0l-.1-.06-.1-.06a.24.24,0,0,1-.12-.22.23.23,0,0,1,0-.25l.12-.21a.21.21,0,0,0,0,.11l.33-.56-1.68-1a.8.8,0,0,0-.4-.11H20a1.39,1.39,0,0,1-.73-.2A1.44,1.44,0,0,1,19,38.77a1.34,1.34,0,0,1,.43-.32l.06,0,.1,0,.08,0,.1,0,.09,0h.24m0-2h-.31l-.22,0-.23,0-.23.06-.18.06-.26.1-.16.08a3.45,3.45,0,0,0-1.84,3.61,3.44,3.44,0,0,0,3.13,2.89,2.46,2.46,0,0,0,1.13,2l.11.06.1.06a2.27,2.27,0,0,0,1.14.31,2.06,2.06,0,0,0,.7-.12l4.8,2.82a2.24,2.24,0,0,0,1.07.33h.11l2.08.11.76,0h.11a2.23,2.23,0,0,0,1-.26,2,2,0,0,0,.76-.76,2,2,0,0,0,.28-.9,2,2,0,0,0-.57-1.65L32,43.1a2.45,2.45,0,0,0-.8-.77l-4.8-2.83-.06-.24a2,2,0,0,0-.69-1,1.86,1.86,0,0,0-.32-.23l-.2-.12A2.3,2.3,0,0,0,24,37.56a2.22,2.22,0,0,0-.57.07,2.11,2.11,0,0,0-.54.22,3.46,3.46,0,0,0-1.75-1.37,3.59,3.59,0,0,0-.47-.12l-.19,0a2.16,2.16,0,0,0-.29,0Z"/><path class="cls-1" d="M38.56,16.35h-.05l0,0,0,0,0,.09L36.6,18a.34.34,0,0,0-.09.12L34.7,22.77a.79.79,0,0,0-.06.22.11.11,0,0,0,0,.05,1.37,1.37,0,0,0,0,.19v0a.76.76,0,0,0,0,.21s0,0,0,.06a1,1,0,0,0,.05.16s0,0,0,0a.77.77,0,0,0,.1.18l0,0-.94-.37a.22.22,0,0,0-.22,0h0l-.06.08-.07.18a.25.25,0,0,0,0,.17.28.28,0,0,0,.12.12l.12.05.49.19,0,.07.13.05-.6,1.5a.57.57,0,0,1-.24.29,1.26,1.26,0,0,0-.54.82c0,.06,0,.12,0,.17v.06a.41.41,0,0,1,0,.11s0,.05,0,.07,0,.06,0,.09,0,.05,0,.08l0,.08,0,.08a.21.21,0,0,0,0,.06l0,.09,0,0a1.16,1.16,0,0,0,.34.32,1.24,1.24,0,0,0,1.88-1.31.71.71,0,0,1,0-.41l.61-1.56.53.21-.09,0,.19.08a.24.24,0,0,0,.22,0,.24.24,0,0,0,.17-.14l0-.09,0-.09a.22.22,0,0,0-.12-.29l-.94-.37a1.29,1.29,0,0,0,.26-.08,1.18,1.18,0,0,0,.65-.68l1.82-4.62a.26.26,0,0,0,0-.15v-.1h0L38.65,17h0l-.06-.65s0,0,0,0Z"/><path class="cls-2" d="M36.72,24.7l0,.1,0,.09a.21.21,0,0,1-.17.13.22.22,0,0,1-.22,0L36.07,25a.2.2,0,0,0,.09-.05l-.53-.2L35,26.29a.71.71,0,0,0,0,.41,1.2,1.2,0,0,1-.06.72,1.23,1.23,0,0,1-1.75.62l0,0a1.16,1.16,0,0,0,.34.32,1.24,1.24,0,0,0,1.88-1.31.71.71,0,0,1,0-.41l.61-1.56.53.21-.09,0,.19.08a.24.24,0,0,0,.22,0,.24.24,0,0,0,.17-.14l0-.09,0-.09a.22.22,0,0,0-.12-.29l-.31-.12Z"/><path class="cls-2" d="M33.79,24.23l.11,0,0-.13-.12-.05,0-.07-.3-.11a.19.19,0,0,0,0,.15.28.28,0,0,0,.12.12Z"/><path class="cls-4" d="M38.22,16.64l.18,1.78v.1a.26.26,0,0,1,0,.15l-1.82,4.62a1.19,1.19,0,0,1-.66.68,1.21,1.21,0,0,1-.25.08l.73.29a1.2,1.2,0,0,0,.61-.66l1.82-4.62a.26.26,0,0,0,0-.15v-.1L38.65,17l-.06-.65s0,0,0,0h-.07l0,0,0,0,0,.09-.2.17Z"/><path class="cls-3" d="M38.59,16.39l.06.65.18,1.77v.1a.25.25,0,0,1,0,.15L37,23.68a1.18,1.18,0,0,1-.65.68,1.29,1.29,0,0,1-.26.08l.94.37-.12.61a.23.23,0,0,1-.14,0h-.08l-.19-.08.09,0-.53-.21-.61,1.56a.71.71,0,0,0,0,.41,1.24,1.24,0,0,1-1.21,1.51,1.19,1.19,0,0,1-.67-.2,1.16,1.16,0,0,1-.34-.32l0,0,0-.09a.21.21,0,0,1,0-.06l0-.08,0-.08s0-.05,0-.08,0-.06,0-.09,0,0,0-.07a.41.41,0,0,0,0-.11v-.06c0-.05,0-.11,0-.17a1.26,1.26,0,0,1,.54-.82.57.57,0,0,0,.24-.29l.6-1.5-.13-.05,0-.07-.49-.19-.12-.05a.28.28,0,0,1-.12-.12l.12-.44h0a.24.24,0,0,1,.14-.05h.08l.94.37,0,0a.77.77,0,0,1-.1-.18s0,0,0,0a1,1,0,0,1-.05-.16s0,0,0-.06a.76.76,0,0,1,0-.21v0a1.37,1.37,0,0,1,0-.19.11.11,0,0,1,0-.05.79.79,0,0,1,.06-.22l1.81-4.62A.34.34,0,0,1,36.6,18l2-1.64m1.61-3.93-2.89,2.39-2,1.64,0,0,0,0a2.45,2.45,0,0,0-.63.89L33,21.75,32,22l-.29,1.1-.12.44-.18.67.2.47-1.36.39,1.25.49A3.11,3.11,0,0,0,31,26.8a3.42,3.42,0,0,0,0,.45v.18a2.62,2.62,0,0,0,0,.27l0,.17a1.72,1.72,0,0,0,0,.26,1.94,1.94,0,0,0,.05.2,1.8,1.8,0,0,0,.08.21c0,.06.05.13.08.2l.09.16a1.26,1.26,0,0,0,.13.23l0,.06.07.08a3.21,3.21,0,0,0,.86.82,3.33,3.33,0,0,0,1.75.51,3.23,3.23,0,0,0,3-2.05,3.31,3.31,0,0,0,.22-1.2,2.38,2.38,0,0,0,.67-.35l.59-.46.15-.74.12-.6.32-1.64-.09,0,1.46-3.72a2.26,2.26,0,0,0,.15-1.09v-.1l-.18-1.77-.06-.65-.38-3.73Z"/><path class="cls-1" d="M45.3,18.34s0,0,0,0h0l0,0a.05.05,0,0,0,0,0l-.06.07-2.18,1a.35.35,0,0,0-.11.1l-3,3.95a1.18,1.18,0,0,0-.11.19l0,.05a.64.64,0,0,0-.06.18v0a1.55,1.55,0,0,0,0,.21v.05a.91.91,0,0,0,0,.17v0a1.17,1.17,0,0,0,0,.2l0,0L38.86,24a.2.2,0,0,0-.21,0h0a.13.13,0,0,0-.07.06l-.13.16a.24.24,0,0,0,0,.16.24.24,0,0,0,.09.15l.1.07.41.32L39,25l.1.08-1,1.29a.69.69,0,0,1-.32.21,1.24,1.24,0,0,0-.74.65l-.06.15s0,0,0,.06,0,.07,0,.11a.17.17,0,0,0,0,.07s0,.06,0,.09v.08a.28.28,0,0,0,0,.09.25.25,0,0,0,0,.08s0,.05,0,.07l0,.1s0,0,0,0a1.3,1.3,0,0,0,.24.41,1.24,1.24,0,0,0,1.92-.07,1.38,1.38,0,0,0,.25-.69.63.63,0,0,1,.13-.39l1-1.33.45.34a.16.16,0,0,1-.1,0l.17.13a.2.2,0,0,0,.21,0,.2.2,0,0,0,.2-.08l.06-.08.06-.08a.21.21,0,0,0,0-.31l-.8-.61a1.22,1.22,0,0,0,.27,0,1.25,1.25,0,0,0,.82-.48l3-3.95a.35.35,0,0,0,.06-.14l0-.1h0L45.21,19h0l.11-.64v0S45.31,18.34,45.3,18.34Z"/><path class="cls-2" d="M41.27,25.88,41.2,26l-.06.08a.21.21,0,0,1-.2.08.2.2,0,0,1-.21,0L40.56,26l.1,0-.45-.34-1,1.33a.61.61,0,0,0-.13.39,1.31,1.31,0,0,1-.25.68,1.24,1.24,0,0,1-1.86.13v0a1.3,1.3,0,0,0,.24.41,1.24,1.24,0,0,0,1.92-.07,1.38,1.38,0,0,0,.25-.69.63.63,0,0,1,.13-.39l1-1.33.45.34a.16.16,0,0,1-.1,0l.17.13a.2.2,0,0,0,.21,0,.2.2,0,0,0,.2-.08l.06-.08.06-.08a.21.21,0,0,0,0-.31l-.26-.19Z"/><path class="cls-2" d="M38.58,24.62l.09.07.08-.11-.11-.08,0-.05-.26-.2a.21.21,0,0,0,0,.15.24.24,0,0,0,.09.15Z"/><path class="cls-4" d="M44.9,18.53l-.31,1.76,0,.1a.42.42,0,0,1-.06.14l-3,3.95a1.24,1.24,0,0,1-.82.47.82.82,0,0,1-.27,0l.63.48a1.29,1.29,0,0,0,.77-.47l3-3.95a.35.35,0,0,0,.06-.14l0-.1L45.21,19l.11-.64v0s0,0,0,0,0,0,0,0h0l0,0a.05.05,0,0,0,0,0l-.06.07-.24.12Z"/><path class="cls-3" d="M45.32,18.38h0m0,0-.11.64-.31,1.76,0,.1a.35.35,0,0,1-.06.14l-3,3.95a1.25,1.25,0,0,1-.82.48h-.27l.8.61-.28.55a.15.15,0,0,1-.09,0,.19.19,0,0,1-.12,0l-.17-.13a.16.16,0,0,0,.1,0l-.45-.34-1,1.33a.63.63,0,0,0-.13.39,1.38,1.38,0,0,1-.25.69,1.26,1.26,0,0,1-1,.49,1.24,1.24,0,0,1-.93-.42,1.3,1.3,0,0,1-.24-.41s0,0,0,0l0-.1s0,0,0-.07a.25.25,0,0,1,0-.08.28.28,0,0,1,0-.09v-.08s0-.06,0-.09a.17.17,0,0,1,0-.07.43.43,0,0,1,0-.11s0,0,0-.06l.06-.15a1.24,1.24,0,0,1,.74-.65.69.69,0,0,0,.32-.21l1-1.29L39,25l0-.06-.41-.32-.1-.07a.24.24,0,0,1-.09-.15l.23-.39h0l.09,0a.18.18,0,0,1,.12.05l.81.61,0,0a1.17,1.17,0,0,1,0-.2v0a.91.91,0,0,1,0-.17v-.05a1.55,1.55,0,0,1,0-.21v0a.64.64,0,0,1,.06-.18l0-.05a1.18,1.18,0,0,1,.11-.19l3-3.95a.35.35,0,0,1,.11-.1l2.36-1M47.94,15l-3.43,1.51-2.35,1h0l0,0a2.47,2.47,0,0,0-.85.69L38.44,22h-.95l-.58,1-.24.39-.35.6.06.5H35L36,25.3a3.25,3.25,0,0,0-.81,1.05c-.06.14-.12.28-.17.42l0,.07L35,27c0,.07,0,.16,0,.26l0,.17c0,.1,0,.18,0,.26v.21a1.64,1.64,0,0,0,0,.22,1.8,1.8,0,0,0,0,.22,1.16,1.16,0,0,1,0,.18,1.82,1.82,0,0,0,.07.25l0,.06,0,.1a3.15,3.15,0,0,0,.62,1,3.24,3.24,0,0,0,5.54-1.28,2.39,2.39,0,0,0,.74-.16l.7-.28.33-.67.28-.55.76-1.49L44,25.42l2.42-3.19a2.2,2.2,0,0,0,.44-1l0-.1.31-1.76.11-.64L47.94,15Zm-2.61,1.34Zm0,4h0Z"/><path class="cls-1" d="M51.51,22.19h-.09s0,0,0,0l-.08.05-2.4.27a.24.24,0,0,0-.14.05l-4.13,2.76-.17.14,0,0-.12.15,0,0a1.14,1.14,0,0,0-.1.19s0,0,0,.05a.94.94,0,0,0,0,.16l0,.05a1.49,1.49,0,0,0,0,.21v0l-.56-.84a.22.22,0,0,0-.2-.1h0l-.09,0-.17.12a.19.19,0,0,0-.09.14.23.23,0,0,0,0,.16l.07.11.29.43-.06,0,.07.11-1.34.9a.69.69,0,0,1-.37.1,1.23,1.23,0,0,0-.91.37.69.69,0,0,0-.11.13l0,0-.06.09,0,.06a.36.36,0,0,0,0,.09l0,.08a880775357994.78,880775357994.78,0,0,1,0,.16v.07a.38.38,0,0,0,0,.1v.05a1.22,1.22,0,0,0,.09.46,1.24,1.24,0,0,0,1.83.56,1.26,1.26,0,0,0,.46-.57.72.72,0,0,1,.25-.32l1.4-.93.31.46a.17.17,0,0,1-.1,0l.12.18a.23.23,0,0,0,.19.09.24.24,0,0,0,.22,0l.08-.06.08-.05a.22.22,0,0,0,.06-.31l-.56-.84a.87.87,0,0,0,.26.08,1.19,1.19,0,0,0,.93-.18l4.13-2.76a.22.22,0,0,0,.1-.11l0-.08h0l.86-1.57h0l.32-.57a0,0,0,0,0,0,0Z"/><path class="cls-2" d="M45.23,28l-.08,0-.08.06a.24.24,0,0,1-.22,0,.19.19,0,0,1-.19-.09l-.12-.17h.1l-.31-.47-1.4.93a.72.72,0,0,0-.25.32,1.16,1.16,0,0,1-.46.57,1.23,1.23,0,0,1-1.79-.49v0a1.22,1.22,0,0,0,.09.46,1.24,1.24,0,0,0,1.83.56,1.26,1.26,0,0,0,.46-.57.72.72,0,0,1,.25-.32l1.4-.93.31.46a.17.17,0,0,1-.1,0l.12.18a.23.23,0,0,0,.19.09.24.24,0,0,0,.22,0l.08-.06.08-.05a.22.22,0,0,0,.06-.31L45.24,28Z"/><path class="cls-2" d="M43.1,26l.06.09.11-.08-.07-.11.06,0-.18-.26a.2.2,0,0,0-.08.13.23.23,0,0,0,0,.16Z"/><path class="cls-4" d="M51.06,22.25l-.86,1.56-.05.08a.4.4,0,0,1-.1.12l-4.13,2.75A1.24,1.24,0,0,1,45,27a1.34,1.34,0,0,1-.26-.09l.44.66a1.21,1.21,0,0,0,.88-.19l4.13-2.76a.22.22,0,0,0,.1-.11l0-.08.86-1.57.32-.57a0,0,0,0,0,0,0v0h-.09s0,0,0,0l-.08.05-.26,0Z"/><path class="cls-3" d="M51.51,22.24h0m0,0-.32.57-.86,1.57,0,.08a.22.22,0,0,1-.1.11l-4.13,2.76a1.24,1.24,0,0,1-.69.21l-.24,0a.87.87,0,0,1-.26-.08l.56.84L45,28.7h0a.21.21,0,0,1-.18-.09l-.12-.18.08,0h0L44.46,28l-1.4.93a.72.72,0,0,0-.25.32,1.26,1.26,0,0,1-.46.57,1.23,1.23,0,0,1-.68.21,1.25,1.25,0,0,1-1.15-.77,1.22,1.22,0,0,1-.09-.46v-.05a.38.38,0,0,1,0-.1v-.07a880775357994.78,880775357994.78,0,0,0,0-.16l0-.08a.36.36,0,0,1,0-.09l0-.06.06-.09,0,0a.69.69,0,0,1,.11-.13,1.24,1.24,0,0,1,.88-.37h.05a.64.64,0,0,0,.35-.1l1.34-.9-.07-.11.06,0L43.1,26,43,25.84a.23.23,0,0,1,0-.16l.34-.3h0a.2.2,0,0,1,.18.1l.56.84v0a1.49,1.49,0,0,1,0-.21l0-.05a.94.94,0,0,1,0-.16s0,0,0-.05a1.14,1.14,0,0,1,.1-.19l0,0,.12-.15,0,0,.17-.14,4.13-2.76a.24.24,0,0,1,.14-.05l2.57-.22m3.56-2.3-3.73.31-2.56.22h-.06a2.22,2.22,0,0,0-1,.38l-3.87,2.58-.9-.31-.87.74-.34.29-.54.45-.1.5-1.34-.46.75,1.12a3.13,3.13,0,0,0-1.11.72,3.27,3.27,0,0,0-.3.35l0,.06L39,27a1,1,0,0,0-.14.23.8.8,0,0,0-.08.16l-.11.23-.06.2a.83.83,0,0,0-.06.21,1.42,1.42,0,0,0-.05.22,1.1,1.1,0,0,0,0,.18c0,.1,0,.18,0,.26v.17A3.06,3.06,0,0,0,38.67,30a3.26,3.26,0,0,0,3,2,3.28,3.28,0,0,0,2.66-1.4,2.25,2.25,0,0,0,.64.09h.11l.75,0,.54-.52.44-.43L48,28.55l0-.09,3.33-2.22a2.5,2.5,0,0,0,.74-.81l0-.08.86-1.57.32-.57,1.81-3.27Zm-3.56.3h0Zm0,4Z"/><path class="cls-1" d="M51.51,29.22h-.09s0,0,0,0l-.08,0-2.4.27a.34.34,0,0,0-.14.05L44.67,32.3l-.17.14,0,0-.12.15,0,0a1.14,1.14,0,0,0-.1.19s0,0,0,0a.85.85,0,0,0,0,.17l0,0a1.49,1.49,0,0,0,0,.21v0l-.56-.84a.22.22,0,0,0-.2-.1h0l-.09,0-.17.12a.19.19,0,0,0-.09.14.23.23,0,0,0,0,.16l.07.11.29.43-.06,0,.07.11-1.34.9a.69.69,0,0,1-.37.1,1.23,1.23,0,0,0-.91.37.69.69,0,0,0-.11.13l0,0-.06.09,0,.06a.36.36,0,0,0,0,.09l0,.08a1370095001323.7,1370095001323.7,0,0,1,0,.16v.07a.38.38,0,0,0,0,.1v.05a1.22,1.22,0,0,0,.09.46,1.24,1.24,0,0,0,1.83.56,1.26,1.26,0,0,0,.46-.57.72.72,0,0,1,.25-.32l1.4-.93.31.46a.17.17,0,0,1-.1,0l.12.18a.23.23,0,0,0,.19.09.24.24,0,0,0,.22,0l.08-.06.08,0a.22.22,0,0,0,.06-.31l-.56-.84a1.34,1.34,0,0,0,.26.09,1.24,1.24,0,0,0,.93-.19l4.13-2.76a.22.22,0,0,0,.1-.11l0-.08h0l.86-1.57h0l.32-.57a0,0,0,0,0,0,0S51.51,29.23,51.51,29.22Z"/><path class="cls-2" d="M45.23,35l-.08.05-.08.06a.22.22,0,0,1-.22,0,.19.19,0,0,1-.19-.09l-.12-.17h.1l-.31-.47-1.4.93a.72.72,0,0,0-.25.32,1.16,1.16,0,0,1-.46.57,1.23,1.23,0,0,1-1.79-.49v0a1.22,1.22,0,0,0,.09.46,1.24,1.24,0,0,0,1.83.56,1.26,1.26,0,0,0,.46-.57.72.72,0,0,1,.25-.32l1.4-.93.31.46a.17.17,0,0,1-.1,0l.12.18a.23.23,0,0,0,.19.09.24.24,0,0,0,.22,0l.08-.06.08,0a.22.22,0,0,0,.06-.31L45.24,35Z"/><path class="cls-2" d="M43.1,33l.06.09.11-.08-.07-.11.06,0-.18-.26a.22.22,0,0,0-.08.13.23.23,0,0,0,0,.16Z"/><path class="cls-4" d="M51.06,29.28l-.86,1.56-.05.08a.4.4,0,0,1-.1.12l-4.13,2.75A1.24,1.24,0,0,1,45,34a1.34,1.34,0,0,1-.26-.09l.44.66a1.21,1.21,0,0,0,.88-.19l4.13-2.76a.22.22,0,0,0,.1-.11l0-.08.86-1.57.32-.57a0,0,0,0,0,0,0s0,0,0,0h-.09s0,0,0,0l-.08,0-.26,0Z"/><path class="cls-3" d="M51.51,29.27h0m0,0-.32.57-.86,1.57,0,.08a.22.22,0,0,1-.1.11l-4.13,2.76a1.24,1.24,0,0,1-.69.21l-.24,0a1.34,1.34,0,0,1-.26-.09l.56.84-.44.43h0a.21.21,0,0,1-.18-.09l-.12-.18.08,0h0L44.46,35l-1.4.93a.72.72,0,0,0-.25.32,1.26,1.26,0,0,1-.46.57,1.23,1.23,0,0,1-.68.21,1.25,1.25,0,0,1-1.15-.77,1.22,1.22,0,0,1-.09-.46v-.05a.38.38,0,0,1,0-.1v-.07a1370095001323.7,1370095001323.7,0,0,0,0-.16l0-.08a.36.36,0,0,1,0-.09l0-.06.06-.09,0,0a.69.69,0,0,1,.11-.13,1.24,1.24,0,0,1,.88-.37h.05a.64.64,0,0,0,.35-.1l1.34-.9-.07-.11.06,0L43.1,33,43,32.87a.23.23,0,0,1,0-.16l.34-.3h0a.2.2,0,0,1,.18.1l.56.84v0a1.49,1.49,0,0,1,0-.21l0,0a.85.85,0,0,1,0-.17s0,0,0,0a1.14,1.14,0,0,1,.1-.19l0,0,.12-.15,0,0,.17-.14,4.13-2.76a.34.34,0,0,1,.14-.05l2.57-.22M55.07,27l-3.73.31-2.56.22h-.06a2.22,2.22,0,0,0-1,.38l-3.87,2.58-.9-.31-.87.74-.34.29-.54.45-.1.5-1.34-.46.75,1.12a3.13,3.13,0,0,0-1.11.72,3.27,3.27,0,0,0-.3.35l0,.06L39,34a1,1,0,0,0-.14.23.8.8,0,0,0-.08.16l-.11.23-.06.2a.83.83,0,0,0-.06.21,1.42,1.42,0,0,0-.05.22,1.1,1.1,0,0,0,0,.18c0,.1,0,.18,0,.26v.17A3.06,3.06,0,0,0,38.67,37a3.26,3.26,0,0,0,3,2,3.28,3.28,0,0,0,2.66-1.4,2.25,2.25,0,0,0,.64.09h.11l.75,0,.54-.52.44-.43L48,35.58l0-.09,3.33-2.22a2.5,2.5,0,0,0,.74-.81l0-.08.86-1.57.32-.57L55.07,27Zm-3.56.3h0Zm0,4Z"/><path class="cls-1" d="M55.72,35.11s0,0,0,0,0,0,0,0h0s0,0,0,0l-.09,0-2.34-.61h-.15l-4.84,1.09-.21.07-.05,0a1,1,0,0,0-.17.1h0l-.16.14,0,0-.1.14,0,0a.76.76,0,0,0-.09.18s0,0,0,.05l-.22-1a.24.24,0,0,0-.15-.16h-.12l-.19,0a.21.21,0,0,0-.14.1.22.22,0,0,0,0,.16l0,.13.11.51h-.07l0,.13L45,36.6a.63.63,0,0,1-.38,0,1.28,1.28,0,0,0-1,0l-.15.09,0,0-.08.06-.06,0-.06.07,0,.06-.05.07,0,.07,0,.07a.56.56,0,0,0,0,.08s0,0,0,.05a1,1,0,0,0-.08.46,1.24,1.24,0,0,0,1.51,1.18,1.32,1.32,0,0,0,.63-.36.66.66,0,0,1,.35-.21L47.06,38l.13.55-.09-.05,0,.21a.19.19,0,0,0,.14.15.21.21,0,0,0,.21.07l.1,0,.09,0a.23.23,0,0,0,.17-.27l-.22-1a1.2,1.2,0,0,0,.21.17,1.25,1.25,0,0,0,.93.16l4.85-1.09a.24.24,0,0,0,.13-.07l.08-.06h0l1.37-1.14h0l.5-.42v0A0,0,0,0,0,55.72,35.11Z"/><path class="cls-2" d="M47.78,38.28l-.1,0-.1,0a.21.21,0,0,1-.2-.06.22.22,0,0,1-.15-.16l0-.2.09,0-.12-.55-1.64.37a.75.75,0,0,0-.35.21,1.14,1.14,0,0,1-.63.36,1.23,1.23,0,0,1-1.5-1.1v0a1,1,0,0,0-.08.46,1.24,1.24,0,0,0,1.51,1.18,1.32,1.32,0,0,0,.63-.36.66.66,0,0,1,.35-.21L47.06,38l.13.55-.09-.05,0,.21a.19.19,0,0,0,.14.15.21.21,0,0,0,.21.07l.1,0,.09,0a.23.23,0,0,0,.17-.27l-.07-.32Z"/><path class="cls-2" d="M46.53,35.59l0,.11.13,0,0-.13.08,0-.07-.31a.18.18,0,0,0-.13.09.22.22,0,0,0,0,.16Z"/><path class="cls-4" d="M55.29,35l-1.37,1.14-.07.07-.14.07-4.84,1.08a1.22,1.22,0,0,1-.94-.16L47.72,37l.18.77a1.22,1.22,0,0,0,.88.14l4.85-1.09a.24.24,0,0,0,.13-.07l.08-.06,1.37-1.14.5-.42v0a0,0,0,0,0,0,0s0,0,0,0,0,0,0,0h0s0,0,0,0l-.09,0L55.32,35Z"/><path class="cls-3" d="M53.15,34.42h.08l2.48.73-.5.42-1.37,1.14-.08.06a.24.24,0,0,1-.13.07l-4.85,1.09a1.24,1.24,0,0,1-.93-.16,1.2,1.2,0,0,1-.21-.17l.22,1-.57.24a.19.19,0,0,1-.14-.15l0-.21.09.05L47.06,38l-1.63.37a.66.66,0,0,0-.35.21,1.24,1.24,0,0,1-.91.39,1.23,1.23,0,0,1-1.23-1.21,1,1,0,0,1,.08-.46s0,0,0-.05a.56.56,0,0,1,0-.08l0-.07,0-.07.05-.07,0-.06.06-.07.06,0,.08-.06,0,0,.15-.09a1.38,1.38,0,0,1,.51-.11,1.2,1.2,0,0,1,.47.1.8.8,0,0,0,.26,0H45l1.58-.36,0-.13h.07l-.11-.51,0-.13a.22.22,0,0,1,0-.16l.43-.15h0a.24.24,0,0,1,.15.16l.22,1s0,0,0-.05a.76.76,0,0,1,.09-.18l0,0,.1-.14,0,0,.16-.14h0a1,1,0,0,1,.17-.1l.05,0,.21-.07,4.84-1.09h.07m0-2a2.22,2.22,0,0,0-.51.06l-4.53,1-.73-.61-1.08.37-.43.15-.65.23-.28.43-1.08-.91.29,1.3a3.28,3.28,0,0,0-1.3.29,3,3,0,0,0-.4.21l-.06,0-.09.06a2.62,2.62,0,0,0-.21.17.71.71,0,0,0-.13.12,1.53,1.53,0,0,0-.18.18,1.07,1.07,0,0,0-.14.16l-.13.17-.12.19-.09.16-.11.23,0,.07,0,.1a2.87,2.87,0,0,0-.19,1.18,3.22,3.22,0,0,0,3.23,3.15,3.36,3.36,0,0,0,.71-.08A3.12,3.12,0,0,0,46,40.38a2.38,2.38,0,0,0,.67.35l.71.24.69-.3.57-.24,1.54-.65,0-.1,3.9-.88a2.34,2.34,0,0,0,1-.48l.07-.06,1.37-1.15.5-.42,2.87-2.4-3.59-1-2.47-.72h-.06a2.33,2.33,0,0,0-.59-.08Z"/><path class="cls-1" d="M52.4,42.67s0,0,0,0l0,0h0s0,0,0,0l-.09,0-2.32-.67a.26.26,0,0,0-.15,0l-4.87.95-.21.07-.06,0a.65.65,0,0,0-.16.09h0a1.07,1.07,0,0,0-.16.14s0,0,0,0a.69.69,0,0,0-.11.13l0,0a1,1,0,0,0-.09.18.08.08,0,0,0,0,0l-.2-1a.19.19,0,0,0-.14-.16l0,0v0a.14.14,0,0,0-.09,0l-.2,0a.19.19,0,0,0-.14.09.2.2,0,0,0,0,.17l0,.12.1.51-.07,0,0,.13-1.58.31a.71.71,0,0,1-.38,0,1.23,1.23,0,0,0-1,0l-.16.07,0,0L40,44,40,44l-.07.06,0,.06-.05.07,0,.07,0,.06,0,.09s0,0,0,0A1.24,1.24,0,0,0,41,46.15a1.17,1.17,0,0,0,.65-.34.69.69,0,0,1,.35-.2l1.65-.32.11.55a.19.19,0,0,1-.09-.05l0,.2a.22.22,0,0,0,.14.17.26.26,0,0,0,.21.07l.09,0,.1,0a.23.23,0,0,0,.18-.26l-.2-1a.91.91,0,0,0,.21.18,1.24,1.24,0,0,0,.93.18l4.87-.95a.35.35,0,0,0,.14-.06l.07-.06h0l1.41-1.11h0l.51-.4v0Z"/><path class="cls-2" d="M44.37,45.62h-.1l-.1,0a.2.2,0,0,1-.2-.07.19.19,0,0,1-.14-.16l0-.2.08,0-.1-.55L42.12,45a.73.73,0,0,0-.36.21,1.17,1.17,0,0,1-.64.34,1.23,1.23,0,0,1-1.46-1.14l0,0A1.24,1.24,0,0,0,41,46.15a1.17,1.17,0,0,0,.65-.34.69.69,0,0,1,.35-.2l1.65-.32.11.55a.19.19,0,0,1-.09-.05l0,.2a.22.22,0,0,0,.14.17.26.26,0,0,0,.21.07l.09,0,.1,0a.23.23,0,0,0,.18-.26l-.07-.32Z"/><path class="cls-2" d="M43.2,42.89l0,.11.13,0,0-.13h.07l-.06-.32a.25.25,0,0,0-.13.09.2.2,0,0,0,0,.17Z"/><path class="cls-4" d="M52,42.55l-1.4,1.1-.08.07a.31.31,0,0,1-.13.06l-4.87.95a1.3,1.3,0,0,1-1.14-.36l.15.77a1.19,1.19,0,0,0,.89.16l4.87-.95a.35.35,0,0,0,.14-.06l.07-.06,1.41-1.11.51-.4v0s0,0,0,0l0,0h0s0,0,0,0l-.09,0L52,42.53Z"/><path class="cls-3" d="M49.84,41.91l.09,0,2.46.79-.51.4-1.41,1.11-.07.06a.35.35,0,0,1-.14.06l-4.87.95a1,1,0,0,1-.24,0,1.27,1.27,0,0,1-.69-.21.91.91,0,0,1-.21-.18l.2,1-.58.23a.22.22,0,0,1-.14-.17l0-.2a.19.19,0,0,0,.09.05l-.11-.55L42,45.61a.69.69,0,0,0-.35.2,1.17,1.17,0,0,1-.65.34l-.23,0a1.24,1.24,0,0,1-1.24-1.25,1.22,1.22,0,0,1,.09-.46s0,0,0,0l0-.09,0-.06,0-.07.05-.07,0-.06L40,44,40,44l.08-.06,0,0,.16-.07a1.18,1.18,0,0,1,.48-.1,1.25,1.25,0,0,1,.5.11.6.6,0,0,0,.27.06h.11l1.58-.31,0-.13.07,0-.1-.51,0-.12a.2.2,0,0,1,0-.17l.43-.14,0,0a.19.19,0,0,1,.14.16l.2,1a.08.08,0,0,1,0,0,1,1,0,0,1,.09-.18l0,0a.69.69,0,0,1,.11-.13s0,0,0,0a1.07,1.07,0,0,1,.16-.14h0a.65.65,0,0,1,.16-.09l.06,0,.21-.07,4.87-.95h.06m0-2a2.12,2.12,0,0,0-.44.05l-4.57.89-.71-.64L43,40.56l-.44.13-.66.22-.28.42-1.07-.94.26,1.31h-.06a3.12,3.12,0,0,0-1.24.25,2.6,2.6,0,0,0-.41.2l-.06,0-.09.06a2.39,2.39,0,0,0-.22.16l-.14.11c-.07.06-.12.12-.18.18l-.14.15-.14.18-.12.18a.65.65,0,0,0-.09.16,1.27,1.27,0,0,0-.12.23l0,.06,0,.1a3.2,3.2,0,0,0-.22,1.17,3.25,3.25,0,0,0,3.24,3.25,3.19,3.19,0,0,0,1.75-.52,2.27,2.27,0,0,0,.66.38l.7.25.7-.27.57-.22,1.56-.61,0-.11,3.93-.76a2.35,2.35,0,0,0,1-.46l.07-.06,1.4-1.11.51-.4L56.56,42,53,40.82,50.55,40h-.06a2.05,2.05,0,0,0-.65-.1Z"/><path class="cls-1" d="M37.07,35a0,0,0,0,1,0,0V34.9H37l.07-.08.61-2.75a.44.44,0,0,1,.08-.15l3.71-4.44a1.07,1.07,0,0,1,.19-.18s0,0,0-.05l.18-.12h0a1.09,1.09,0,0,1,.23-.09l.07,0,.19,0h.06a1,1,0,0,1,.24,0h.05l-.9-.76a.24.24,0,0,1-.08-.24,0,0,0,0,1,0,0h0a.24.24,0,0,1,.05-.1l.15-.18a.21.21,0,0,1,.17-.09.23.23,0,0,1,.19.06l.11.09.47.39,0-.06.12.09,1.21-1.44a.7.7,0,0,0,.16-.42,1.48,1.48,0,0,1,.54-1l.17-.11.06,0,.11-.05.08,0,.11,0,.09,0,.09,0h.36a1.43,1.43,0,0,1,.52.16A1.44,1.44,0,0,1,47,25.34a1.46,1.46,0,0,1-.72.47.74.74,0,0,0-.4.25l-1.25,1.5.5.42a.24.24,0,0,0,0-.12l.18.16a.24.24,0,0,1,.09.23.25.25,0,0,1,0,.25l-.08.09-.07.09a.25.25,0,0,1-.36,0L44,28a1.55,1.55,0,0,1,.07.31,1.47,1.47,0,0,1-.33,1.05L40,33.76a.45.45,0,0,1-.14.1l-.11,0h0l-1.92.81h0l-.7.29h0Z"/><path class="cls-4" d="M44.59,28.46l.07-.09.08-.09a.25.25,0,0,0,0-.25.27.27,0,0,0-.09-.24l-.18-.15v.11L44,27.33l1.25-1.49a.85.85,0,0,1,.41-.26A1.43,1.43,0,0,0,46,23h0a1.43,1.43,0,0,1,.52.16A1.44,1.44,0,0,1,47,25.34a1.46,1.46,0,0,1-.72.47.74.74,0,0,0-.4.25l-1.25,1.5.5.42a.24.24,0,0,0,0-.12l.18.16a.24.24,0,0,1,.09.23.25.25,0,0,1,0,.25l-.08.09-.07.09a.25.25,0,0,1-.36,0l-.3-.24Z"/><path class="cls-2" d="M42.46,25.73l.1.08-.1.12-.12-.1-.05.07L42,25.66a.21.21,0,0,1,.16-.08.23.23,0,0,1,.19.06Z"/><path class="cls-2" d="M37.18,34.5l1.92-.81.11,0a.45.45,0,0,0,.14-.1l3.71-4.44A1.49,1.49,0,0,0,43.39,28a1.63,1.63,0,0,0-.07-.3l.71.59a1.46,1.46,0,0,1-.33,1L40,33.76a.45.45,0,0,1-.14.1l-.11,0-1.92.81-.7.29h0l0,0a0,0,0,0,1,0,0V34.9H37l.07-.08.07-.3Z"/><path class="cls-3" d="M45.94,23h.14a1.43,1.43,0,0,1,.52.16A1.44,1.44,0,0,1,47,25.34a1.46,1.46,0,0,1-.72.47.74.74,0,0,0-.4.25l-1.25,1.5.5.42a.24.24,0,0,0,0-.12l.18.16a.24.24,0,0,1,.09.23.25.25,0,0,1,0,.25l-.08.09-.07.09a.27.27,0,0,1-.2.09.23.23,0,0,1-.16-.06L44,28a1.55,1.55,0,0,1,.07.31,1.47,1.47,0,0,1-.33,1.05L40,33.76a.45.45,0,0,1-.14.1l-.11,0-1.92.81-.7.29h0l0,0a0,0,0,0,1,0,0V34.9H37l.07-.08.61-2.75a.44.44,0,0,1,.08-.15l3.71-4.44a1.07,1.07,0,0,1,.19-.18s0,0,0-.05l.18-.12h0a1.09,1.09,0,0,1,.23-.09l.07,0,.19,0h.35l-.9-.75a.24.24,0,0,1-.08-.24,0,0,0,0,1,0,0h0a.24.24,0,0,1,.05-.1l.15-.18a.21.21,0,0,1,.17-.09h0a.27.27,0,0,1,.17.06l.11.09.47.39,0-.06.12.09,1.21-1.44a.7.7,0,0,0,.16-.42,1.48,1.48,0,0,1,.54-1l.17-.11.06,0,.11-.05.08,0,.11,0,.09,0,.09,0h.22m0-2h-.23l-.25,0-.22,0-.22.05-.25.08-.19.07-.27.13-.15.09a2.33,2.33,0,0,0-.4.27,3.43,3.43,0,0,0-1.2,1.88,2.34,2.34,0,0,0-.38,0H42a2.2,2.2,0,0,0-1.53.8l-.15.18A2.36,2.36,0,0,0,40,25a2,2,0,0,0-.24,1.11,2.13,2.13,0,0,0,0,.25l-3.57,4.27a2.4,2.4,0,0,0-.5,1L35.2,34a2.05,2.05,0,0,0-.18,1,2.14,2.14,0,0,0,.19.7A2,2,0,0,0,36.76,37a2,2,0,0,0,.34,0,2,2,0,0,0,.8-.17l.7-.29,1.92-.81.1,0a2.39,2.39,0,0,0,.9-.67l3.57-4.27A2.26,2.26,0,0,0,46.76,30l.08-.09.07-.09a2.26,2.26,0,0,0,.51-1.71,2.3,2.3,0,0,0-.1-.51,3.44,3.44,0,0,0,.24-6.16,3.34,3.34,0,0,0-1.25-.4h-.37Z"/><path class="cls-1" d="M34.22,43.14a0,0,0,0,1,0,0l0,0v-.05h-.05l0-.1-.49-2.77a.37.37,0,0,1,0-.18l1.72-5.52a2.44,2.44,0,0,1,.1-.24l0-.06a1.88,1.88,0,0,1,.12-.18s0,0,0,0l.18-.17.05,0,.17-.11,0,0,.22-.1h0l-1.12-.35a.27.27,0,0,1-.17-.19l0,0h0a.21.21,0,0,1,0-.11l.07-.23a.27.27,0,0,1,.13-.15.21.21,0,0,1,.19,0l.14,0,.59.18,0-.08.15,0,.56-1.8a.69.69,0,0,0,0-.45,1.42,1.42,0,0,1,.12-1.13,1,1,0,0,1,.1-.17l0-.05.08-.1.06-.06.09-.07.07,0,.09-.05.09-.05.07,0,.11,0,0,0a1.42,1.42,0,0,1,.54-.05,1.45,1.45,0,0,1,.75,2.57.79.79,0,0,0-.28.39l-.58,1.86.62.19a.21.21,0,0,0,0-.1l.23.07a.25.25,0,0,1,.17.19.23.23,0,0,1,.06.24l0,.11,0,.12a.25.25,0,0,1-.32.16L37.89,34a1.51,1.51,0,0,1,.18.26,1.44,1.44,0,0,1,.1,1.1l-1.73,5.52a.29.29,0,0,1-.09.15l-.08.09h0l-1.46,1.48h0l-.53.54h-.06Z"/><path class="cls-4" d="M38.66,34.22l0-.12,0-.11a.23.23,0,0,0-.06-.24.25.25,0,0,0-.17-.19l-.23-.07a.37.37,0,0,1,0,.11l-.63-.2.58-1.86a.85.85,0,0,1,.28-.39,1.42,1.42,0,0,0,.49-.7A1.45,1.45,0,0,0,37.9,28.6h0a1.42,1.42,0,0,1,.54-.05,1.45,1.45,0,0,1,.75,2.57.79.79,0,0,0-.28.39l-.58,1.86.62.19a.21.21,0,0,0,0-.1l.23.07a.25.25,0,0,1,.17.19.23.23,0,0,1,.06.24l0,.11,0,.12a.25.25,0,0,1-.32.16l-.37-.11Z"/><path class="cls-2" d="M35.65,32.51l.13,0-.05.15-.15-.05,0,.08-.36-.11a.24.24,0,0,1,.12-.14.21.21,0,0,1,.19,0Z"/><path class="cls-2" d="M34.13,42.63l1.46-1.48.08-.09a.31.31,0,0,0,.1-.15l1.72-5.52a1.44,1.44,0,0,0-.1-1.1,1.51,1.51,0,0,0-.18-.26l.88.28a1.43,1.43,0,0,1,.08,1l-1.73,5.52a.29.29,0,0,1-.09.15l-.08.09-1.46,1.48-.53.54h-.06a0,0,0,0,1,0,0l0,0v-.05h-.05l0-.1-.06-.3Z"/><path class="cls-3" d="M38.34,28.53h.14a1.45,1.45,0,0,1,.75,2.57.79.79,0,0,0-.28.39l-.58,1.86.62.19a.21.21,0,0,0,0-.1l.23.07a.25.25,0,0,1,.17.19.23.23,0,0,1,.06.24l0,.11,0,.12a.27.27,0,0,1-.25.18l-.07,0L37.89,34a1.51,1.51,0,0,1,.18.26,1.44,1.44,0,0,1,.1,1.1l-1.73,5.52a.29.29,0,0,1-.09.15l-.08.09-1.46,1.48-.53.54h-.06a0,0,0,0,1,0,0l0,0v-.05h-.05l0-.1-.49-2.77a.37.37,0,0,1,0-.18l1.72-5.52a2.44,2.44,0,0,1,.1-.24l0-.06a1.88,1.88,0,0,1,.12-.18s0,0,0,0l.18-.17.05,0,.17-.11,0,0,.22-.1h0l-1.12-.35a.27.27,0,0,1-.17-.19l0,0h0a.21.21,0,0,1,0-.11l.07-.23a.27.27,0,0,1,.13-.15.21.21,0,0,1,.12,0l.07,0,.14,0,.59.18,0-.08.15,0,.56-1.8a.69.69,0,0,0,0-.45,1.42,1.42,0,0,1,.12-1.13,1,1,0,0,1,.1-.17l0-.05.08-.1.06-.06.09-.07.07,0,.09-.05.09-.05.07,0,.11,0,0,0a1.39,1.39,0,0,1,.4-.06m0-2a3.4,3.4,0,0,0-.94.14l-.13,0a1.06,1.06,0,0,0-.25.09l-.19.08-.21.12a1.06,1.06,0,0,0-.2.12l-.18.13-.2.16-.15.14a2.2,2.2,0,0,0-.2.23l-.11.13a3.54,3.54,0,0,0-.26.41,3.42,3.42,0,0,0-.38,2.19,2.13,2.13,0,0,0-.55.2A2.26,2.26,0,0,0,33.28,32l-.07.22a2.1,2.1,0,0,0-.09.5,1.94,1.94,0,0,0,.2,1.11l.12.23-1.66,5.31a2.37,2.37,0,0,0-.08,1.12L32.13,43a2.06,2.06,0,0,0,.22,1,2.11,2.11,0,0,0,1.89,1.15,1.77,1.77,0,0,0,.45,0,2.07,2.07,0,0,0,1-.56l.53-.54,1.47-1.48.08-.08a2.41,2.41,0,0,0,.57-1L40,36.16a2.23,2.23,0,0,0,1.24-1.39l0-.11,0-.11a2.27,2.27,0,0,0-.19-1.77,2.2,2.2,0,0,0-.28-.44,3.46,3.46,0,0,0-2.14-5.79l-.37,0Z"/><path class="cls-1" d="M37.13,42.59a0,0,0,0,1,0,0l0,0,0,0,0,0,.1,0,1.87-2.1a.42.42,0,0,1,.15-.11l5.39-2.08.25-.07h.32a1,1,0,0,1,.25,0h.06l.19.07,0,0,.21.11.05,0-.43-1.1a.25.25,0,0,1,0-.25v0h0a.33.33,0,0,1,.1-.06l.22-.09a.25.25,0,0,1,.19,0,.27.27,0,0,1,.14.14l.05.14.22.57.08,0,.06.15,1.75-.68a.74.74,0,0,0,.35-.28,1.4,1.4,0,0,1,1-.62l.19,0h.28l.11,0,.09,0,.09,0,.09,0,.08,0,.1.06,0,0a1.56,1.56,0,0,1,.38.39A1.45,1.45,0,0,1,49.66,39a.76.76,0,0,0-.47,0l-1.82.7.23.61a.21.21,0,0,0,.06-.1l.09.23a.25.25,0,0,1,0,.25.23.23,0,0,1-.15.19l-.11,0-.11,0a.26.26,0,0,1-.33-.15l-.43-1.1a1.32,1.32,0,0,1-.09.3,1.47,1.47,0,0,1-.8.77l-5.39,2.08a.37.37,0,0,1-.18,0H40l-2.07-.22h0l-.76-.08h0Z"/><path class="cls-4" d="M46.88,40.51l.11,0,.1,0a.5.5,0,0,0,.2-.45l-.09-.22a.47.47,0,0,1-.05.1l-.24-.61,1.82-.71a.79.79,0,0,1,.48,0,1.39,1.39,0,0,0,.85-.06,1.44,1.44,0,0,0,.74-2l0,0a1.56,1.56,0,0,1,.38.39A1.45,1.45,0,0,1,49.66,39a.76.76,0,0,0-.47,0l-1.82.7.23.61a.21.21,0,0,0,.06-.1l.09.23a.25.25,0,0,1,0,.25.23.23,0,0,1-.15.19l-.11,0-.11,0a.26.26,0,0,1-.33-.15l-.14-.35Z"/><path class="cls-2" d="M46.34,37.1l0,.12-.15.05-.05-.14-.08,0L46,36.81a.22.22,0,0,1,.18,0,.24.24,0,0,1,.14.14Z"/><path class="cls-2" d="M37.47,42.2l2.07.23h.12a.32.32,0,0,0,.17,0l5.4-2.09a1.42,1.42,0,0,0,.8-.76,1.71,1.71,0,0,0,.09-.3l.33.86a1.45,1.45,0,0,1-.77.71l-5.39,2.08a.37.37,0,0,1-.18,0H40l-2.07-.22-.76-.08h0l0,0a0,0,0,0,1,0,0l0,0,0,0,0,0,.1,0,.21-.23Z"/><path class="cls-3" d="M50,36.18h.27l.11,0,.09,0,.09,0,.09,0,.08,0,.1.06,0,0a1.56,1.56,0,0,1,.38.39,1.45,1.45,0,0,1-.7,2.13,1.54,1.54,0,0,1-.52.09l-.33,0a.71.71,0,0,0-.21,0,.75.75,0,0,0-.26,0l-1.82.7.23.61a.21.21,0,0,0,.06-.1l.09.23a.25.25,0,0,1,0,.25.23.23,0,0,1-.15.19l-.11,0-.11,0-.09,0a.26.26,0,0,1-.24-.17l-.43-1.1a1.32,1.32,0,0,1-.09.3,1.47,1.47,0,0,1-.8.77l-5.39,2.08a.35.35,0,0,1-.14,0H40l-2.07-.22-.76-.08h0l0,0a0,0,0,0,1,0,0l0,0,0,0,0,0,.1,0,1.87-2.1a.42.42,0,0,1,.15-.11l5.39-2.08.25-.07h.32a1,1,0,0,1,.25,0h.06l.19.07,0,0,.21.11.05,0-.43-1.1a.25.25,0,0,1,0-.25v0h0a.33.33,0,0,1,.1-.06l.22-.09h.09a.18.18,0,0,1,.1,0,.27.27,0,0,1,.14.14l.05.14.22.57.08,0,.06.15,1.75-.68a.74.74,0,0,0,.35-.28,1.4,1.4,0,0,1,1-.62l.19,0h0m0-2H49.9a2.63,2.63,0,0,0-.49,0,3.4,3.4,0,0,0-1.95,1.06A2.29,2.29,0,0,0,47,35a2.22,2.22,0,0,0-.91-.19,2.33,2.33,0,0,0-.82.15L45,35a2.31,2.31,0,0,0-1.2,1.09,2.29,2.29,0,0,0-.1.23l-5.19,2a2.29,2.29,0,0,0-.92.64L36,40.84a2.15,2.15,0,0,0-.71,2.47,2.13,2.13,0,0,0,.64.87,2,2,0,0,0,1.06.44l.75.08,2.07.22h.12l.25,0a2.52,2.52,0,0,0,.86-.16l5.19-2a2.32,2.32,0,0,0,1,.26,2.25,2.25,0,0,0,.81-.16l.11,0,.11,0a2.23,2.23,0,0,0,1.27-1.25,3,3,0,0,0,.17-.5H50a3.25,3.25,0,0,0,1.24-.23,3.44,3.44,0,0,0,2-2.12,3.48,3.48,0,0,0-.36-2.93,3.25,3.25,0,0,0-.9-1l-.11-.08-.22-.14-.19-.09-.22-.1L51,34.34l-.22-.06-.25-.05-.2,0-.3,0Z"/><path class="cls-1" d="M32.09,46.73a0,0,0,0,1,0-.06l0,0a.05.05,0,0,1,0,0l.1-.05,1.5-2.38a.34.34,0,0,1,.12-.12l5-2.93A1.28,1.28,0,0,1,39,41l.06,0,.21-.05h.35a.69.69,0,0,1,.2,0h0l.23.08.05,0-.6-1a.25.25,0,0,1,0-.25v0h0l.08-.08.2-.11a.24.24,0,0,1,.2,0,.22.22,0,0,1,.15.12l.08.12.31.53.07-.05.08.14,1.62-1a.69.69,0,0,0,.3-.33,1.43,1.43,0,0,1,.84-.77l.2,0h.48l.09,0,.1,0,.08,0,.1,0,.06,0a1.34,1.34,0,0,1,.43.32A1.44,1.44,0,0,1,44.71,41a1.46,1.46,0,0,1-.83.2.77.77,0,0,0-.47.1l-1.68,1,.33.56a.21.21,0,0,0,0-.11l.12.21a.23.23,0,0,1,0,.25.24.24,0,0,1-.12.22l-.1.06-.1.06a.26.26,0,0,1-.35-.09l-.6-1a1.12,1.12,0,0,1,0,.32,1.4,1.4,0,0,1-.67.88l-5,2.93a.34.34,0,0,1-.17.05H35l-2.08.11h0l-.76,0h0S32.09,46.74,32.09,46.73Z"/><path class="cls-4" d="M41.37,43.1l.1-.06.1-.06a.25.25,0,0,0,.12-.22.23.23,0,0,0,0-.25l-.12-.21a.25.25,0,0,1,0,.11l-.33-.57,1.68-1a.85.85,0,0,1,.47-.1,1.45,1.45,0,0,0,.83-.19,1.43,1.43,0,0,0,.39-2.13l0,0a1.34,1.34,0,0,1,.43.32A1.44,1.44,0,0,1,44.71,41a1.46,1.46,0,0,1-.83.2.77.77,0,0,0-.47.1l-1.68,1,.33.56a.21.21,0,0,0,0-.11l.12.21a.23.23,0,0,1,0,.25.24.24,0,0,1-.12.22l-.1.06-.1.06a.26.26,0,0,1-.35-.09l-.19-.33Z"/><path class="cls-2" d="M40.29,39.81l.06.11-.13.08-.08-.13-.07,0-.19-.32a.24.24,0,0,1,.33.1Z"/><path class="cls-2" d="M32.37,46.29l2.08-.12h.11a.48.48,0,0,0,.17-.05l5-2.94a1.4,1.4,0,0,0,.67-.88,1.06,1.06,0,0,0,0-.31l.47.79a1.41,1.41,0,0,1-.65.83l-5,2.93a.34.34,0,0,1-.17.05H35l-2.08.11-.76,0h0s0,0,0,0a0,0,0,0,1,0-.06l0,0a.05.05,0,0,1,0,0l.1-.05.16-.26Z"/><path class="cls-3" d="M44,38.3h.24l.09,0,.1,0,.08,0,.1,0,.06,0a1.34,1.34,0,0,1,.43.32A1.44,1.44,0,0,1,44.71,41a1.39,1.39,0,0,1-.73.2h-.17a.8.8,0,0,0-.4.11l-1.68,1,.33.56a.21.21,0,0,0,0-.11l.12.21a.23.23,0,0,1,0,.25.24.24,0,0,1-.12.22l-.1.06-.1.06a.22.22,0,0,1-.13,0,.26.26,0,0,1-.22-.13l-.6-1a1.12,1.12,0,0,1,0,.32,1.4,1.4,0,0,1-.67.88l-5,2.93a.34.34,0,0,1-.17.05H35l-2.08.11-.76,0h0s0,0,0,0a0,0,0,0,1,0-.06l0,0a.05.05,0,0,1,0,0l.1-.05,1.5-2.38a.34.34,0,0,1,.12-.12l5-2.93A1.28,1.28,0,0,1,39,41l.06,0,.21-.05h.35a.69.69,0,0,1,.2,0h0l.23.08.05,0-.6-1a.25.25,0,0,1,0-.25v0h0l.08-.08.2-.11a.22.22,0,0,1,.13,0h.07a.22.22,0,0,1,.15.12l.08.12.31.53.07-.05.08.14,1.62-1a.69.69,0,0,0,.3-.33,1.43,1.43,0,0,1,.84-.77l.2,0H44m0-2h-.16l-.3,0-.17,0a3.59,3.59,0,0,0-.47.12,3.46,3.46,0,0,0-1.75,1.37,2.11,2.11,0,0,0-.54-.22,2.22,2.22,0,0,0-.57-.07,2.3,2.3,0,0,0-1.14.31l-.2.12a2.1,2.1,0,0,0-.41.31,2,2,0,0,0-.6,1l-.06.24-4.8,2.83a2.45,2.45,0,0,0-.8.77l-1.32,2.09a2,2,0,0,0-.58,1.64,2.1,2.1,0,0,0,.28.91,2.05,2.05,0,0,0,.77.75,2,2,0,0,0,1,.27h.11l.76,0,2.08-.11h.11a2.24,2.24,0,0,0,1.07-.33l4.8-2.82a2.06,2.06,0,0,0,.7.12,2.27,2.27,0,0,0,1.14-.31l.1-.06.11-.06a2.46,2.46,0,0,0,1.13-2,3.44,3.44,0,0,0,1.25-6.52l-.12-.06-.24-.09-.2-.07-.24-.06-.22,0-.22,0H44Z"/><path class="cls-1" d="M32,32.81h0l0,0,0-.05a.05.05,0,0,0,0,0v-.11l1.28-2.5a.34.34,0,0,0,.05-.17V24.19a2.13,2.13,0,0,0,0-.25.64.64,0,0,0,0-.07.83.83,0,0,0-.06-.21s0,0,0,0a.94.94,0,0,0-.12-.22.1.1,0,0,0,0-.05l-.12-.16,0,0L32.82,23l0,0H34a.26.26,0,0,0,.22-.13s0,0,0,0h0a.2.2,0,0,0,0-.11v-.23a.27.27,0,0,0-.26-.26H33.2v-.08H33V20.26a.78.78,0,0,1,.14-.42,1.4,1.4,0,0,0,.23-1.12,1.33,1.33,0,0,0,0-.19l0-.06a.61.61,0,0,0,0-.12l0-.07-.06-.09-.06-.08L33.06,18,33,18l-.06-.06-.09-.07-.05,0a1.3,1.3,0,0,0-.5-.21A1.44,1.44,0,0,0,30.56,19a1.42,1.42,0,0,0,.25.82.81.81,0,0,1,.15.45v1.95H30.3l.08-.09h-.24a.26.26,0,0,0-.22.13.25.25,0,0,0-.13.22v.23a.26.26,0,0,0,.26.26h1.18a1.64,1.64,0,0,0-.25.19,1.46,1.46,0,0,0-.43,1V30a.34.34,0,0,0,.05.17l0,.1h0l1,1.85h0l.35.68,0,0Z"/><path class="cls-4" d="M34.21,22.49a.27.27,0,0,0-.26-.26H33.2v-.08H33V20.26a.78.78,0,0,1,.14-.42,1.4,1.4,0,0,0,.23-1.12,1.33,1.33,0,0,0,0-.19l0-.06a.61.61,0,0,0,0-.12l0-.07-.06-.09-.06-.08L33.06,18,33,18l-.06-.06-.09-.07-.05,0a1.3,1.3,0,0,0-.5-.21A1.42,1.42,0,0,0,31,18a1.42,1.42,0,0,1,.94-.13,1.3,1.3,0,0,1,.5.21l0,0,.09.07.06.05.08.08.06.07.06.07a.41.41,0,0,1,0,.09l.05.08,0,.11,0,.07a1.05,1.05,0,0,1,0,.19,1.48,1.48,0,0,1-.23,1.12.71.71,0,0,0-.14.42v1.88h.15v.09h.76a.29.29,0,0,1,.18.07.32.32,0,0,1,.07.19V23H34a.26.26,0,0,0,.22-.13s0,0,0,0h0a.2.2,0,0,0,0-.11Z"/><path class="cls-4" d="M30,22.39l-.07.09h.65v-.25H30.3l.08-.09h-.24a.26.26,0,0,0-.22.13.23.23,0,0,0-.1.12Z"/><path class="cls-4" d="M33.4,23.87a.83.83,0,0,0-.06-.21s0,0,0,0a.94.94,0,0,0-.12-.22.1.1,0,0,0,0-.05,1.47,1.47,0,0,0-.1-.13h-.63l.05,0a.84.84,0,0,1,.18.15l0,0,.13.15a.21.21,0,0,0,0,.06,2.12,2.12,0,0,1,.11.21.06.06,0,0,1,0,0,1,1,0,0,1,.07.21.13.13,0,0,1,0,.06,1.15,1.15,0,0,1,0,.26v5.78a.39.39,0,0,1,0,.18L31.9,32.67l.05.11,0,0H32l0,0,0-.05a.05.05,0,0,0,0,0v-.11l1.28-2.5a.34.34,0,0,0,.05-.17V24.19a2.13,2.13,0,0,0,0-.25A.64.64,0,0,0,33.4,23.87Z"/><path class="cls-2" d="M30.43,23v-.23a.27.27,0,0,1,.12-.22.29.29,0,0,1,.22-.13H31l-.07.09h.65V20.52a.74.74,0,0,0-.15-.45,1.41,1.41,0,0,1-.25-.81,1.45,1.45,0,0,1,1.64-1.43l0,0a1.3,1.3,0,0,0-.5-.21A1.44,1.44,0,0,0,30.56,19a1.42,1.42,0,0,0,.25.82.81.81,0,0,1,.15.45v1.95H30.3l.08-.09h-.24a.26.26,0,0,0-.22.13.25.25,0,0,0-.13.22v.23a.26.26,0,0,0,.26.26h.38Z"/><path class="cls-2" d="M33.81,22.23h-.13v.16h.15v.08h.38a.25.25,0,0,0-.08-.16.23.23,0,0,0-.18-.08Z"/><path class="cls-2" d="M32.24,32.34l-1-1.85-.05-.1a.33.33,0,0,1,0-.17V24.44a1.48,1.48,0,0,1,.42-1l.25-.19h-.92a1.43,1.43,0,0,0-.39,1V30a.34.34,0,0,0,.05.17l0,.1,1,1.85.35.68,0,0H32l0,0,0-.05a.05.05,0,0,0,0,0v-.11l.14-.27Z"/><path class="cls-3" d="M32,17.57l.29,0a1.3,1.3,0,0,1,.5.21l.05,0,.09.07L33,18l.07.07.06.07.06.08.06.09,0,.07a.61.61,0,0,1,0,.12l0,.06a1.33,1.33,0,0,1,0,.19,1.4,1.4,0,0,1-.23,1.12.78.78,0,0,0-.14.42v1.89h.16v.08H34a.27.27,0,0,1,.26.26v.23a.2.2,0,0,1,0,.11h0s0,0,0,0A.26.26,0,0,1,34,23H32.77l0,0,.19.15,0,0,.12.16a.1.1,0,0,1,0,.05.94.94,0,0,1,.12.22s0,0,0,0a.83.83,0,0,1,.06.21.64.64,0,0,1,0,.07,2.13,2.13,0,0,1,0,.25V30a.34.34,0,0,1-.05.17l-1.28,2.5v.11a.05.05,0,0,1,0,0l0,.05,0,0H32l0,0-.35-.68-1-1.85,0-.1a.34.34,0,0,1-.05-.17V24.19a1.46,1.46,0,0,1,.43-1,1.64,1.64,0,0,1,.25-.19H30.05a.26.26,0,0,1-.26-.26v-.23a.25.25,0,0,1,.13-.22.26.26,0,0,1,.22-.13h.24l-.08.09H31V20.28a.81.81,0,0,0-.15-.45,1.42,1.42,0,0,1-.25-.82A1.44,1.44,0,0,1,32,17.57m0-2h0A3.45,3.45,0,0,0,28.56,19a3.55,3.55,0,0,0,.34,1.51,2.06,2.06,0,0,0-.4.33,2.25,2.25,0,0,0-.71,1.64v.23a2.27,2.27,0,0,0,.76,1.69V30a2.47,2.47,0,0,0,.27,1.09l.05.1L29.82,33l.35.67a2.1,2.1,0,0,0,.79.83,2,2,0,0,0,1,.29,2.11,2.11,0,0,0,.92-.22,2,2,0,0,0,1.13-1.33l1.13-2.19A2.47,2.47,0,0,0,35.45,30V24.41a1.45,1.45,0,0,0,.17-.18,1.87,1.87,0,0,0,.55-1.12,1.72,1.72,0,0,0,0-.39v-.23a2.29,2.29,0,0,0-.66-1.6,2.15,2.15,0,0,0-.46-.35,3.5,3.5,0,0,0,.29-2.21c0-.16-.08-.31-.13-.47l-.07-.17c0-.08-.08-.17-.12-.26l-.1-.17L34.81,17a1.09,1.09,0,0,0-.13-.17l-.15-.18-.17-.17-.14-.13L34,16.21l-.15-.1a3.32,3.32,0,0,0-1.18-.47,3.05,3.05,0,0,0-.67-.07Z"/><path class="cls-2" d="M24.85,43.29a2.79,2.79,0,1,0-2.36,0A2.63,2.63,0,0,0,21,45.64V56h5.28V45.64A2.63,2.63,0,0,0,24.85,43.29Z"/><rect class="cls-2" x="24.87" y="46.18" width="15.01" height="9.82"/><polyline class="cls-5" points="39.88 46.18 39.88 56 24.87 56"/><path class="cls-6" d="M24.14,43.29a2.81,2.81,0,0,1-1.62-2.53,2.78,2.78,0,0,1,2-2.65,2.74,2.74,0,0,0-3.61,2.65,2.8,2.8,0,0,0,1.61,2.53A2.63,2.63,0,0,0,21,45.64V56h1.65V45.64A2.63,2.63,0,0,1,24.14,43.29Z"/><path class="cls-5" d="M26.31,45.64a2.63,2.63,0,0,0-1.46-2.35,2.79,2.79,0,1,0-2.36,0A2.63,2.63,0,0,0,21,45.64V56h5.28"/><path class="cls-2" d="M39.15,43.29a2.79,2.79,0,1,1,2.36,0A2.63,2.63,0,0,1,43,45.64V56H37.69V45.64A2.63,2.63,0,0,1,39.15,43.29Z"/><path class="cls-4" d="M39.86,43.29a2.81,2.81,0,0,0,1.62-2.53,2.78,2.78,0,0,0-2-2.65,2.74,2.74,0,0,1,3.61,2.65,2.8,2.8,0,0,1-1.61,2.53A2.63,2.63,0,0,1,43,45.64V56H41.32V45.64A2.63,2.63,0,0,0,39.86,43.29Z"/><path class="cls-5" d="M37.69,45.64a2.63,2.63,0,0,1,1.46-2.35,2.79,2.79,0,1,1,2.36,0A2.63,2.63,0,0,1,43,45.64V56H37.69"/><line class="cls-5" x1="24.5" y1="46.18" x2="39.5" y2="46.18"/><rect class="cls-6" x="26.83" y="48.83" width="10.33" height="0.4"/><rect class="cls-6" x="26.83" y="50.33" width="10.33" height="0.4"/><rect class="cls-6" x="26.83" y="51.83" width="10.33" height="0.4"/><line class="cls-5" x1="9.04" y1="56.06" x2="54.96" y2="56.06"/></svg>