<svg id="art" xmlns="http://www.w3.org/2000/svg" viewBox="0 0 64 64"><defs><style>.cls-1{fill:#664c52;}.cls-2{fill:#041256;}.cls-3{fill:#211668;}.cls-4{fill:#5df9e6;}.cls-5{fill:#8e6464;}.cls-6{fill:#e8c8b1;}.cls-7{fill:#ffe2cf;}.cls-8{fill:#fff;}.cls-9{fill:#a57c7c;}.cls-10{fill:none;stroke:#041256;stroke-linecap:round;stroke-miterlimit:10;stroke-width:2px;}.cls-11{fill:#f48837;}.cls-12{fill:#d8712b;}.cls-13{fill:#ffd37b;}</style></defs><title>game of thrones, game, thrones, series, character, avatar, dragon</title><polyline class="cls-1" points="15.75 40.51 10.39 44.13 22.46 42.73"/><path class="cls-2" d="M15.75,40.51a23.28,23.28,0,0,1-2.34,2.32c-.81.72-1.65,1.41-2.51,2.06l-.62-1.67c1-.19,2-.31,3-.43s2-.2,3-.25,2-.07,3.06,0a23,23,0,0,1,3.08.24,22.94,22.94,0,0,1-2.95.94c-1,.25-2,.48-3,.65s-2,.33-3,.45-2,.23-3,.27l-3.62.15,3-1.82q1.38-.82,2.85-1.56A24.74,24.74,0,0,1,15.75,40.51Z"/><line class="cls-3" x1="10.39" y1="44.13" x2="22.46" y2="42.73"/><polyline class="cls-1" points="21.93 42.57 16.57 46.19 28.64 44.78"/><path class="cls-2" d="M21.93,42.57a25.5,25.5,0,0,1-2.33,2.32c-.82.72-1.66,1.4-2.52,2l-.61-1.66c1-.19,2-.31,3-.44s2-.19,3-.24,2-.08,3.06-.05a22.92,22.92,0,0,1,3.08.23,22.94,22.94,0,0,1-2.95.94c-1,.26-2,.48-3,.65s-2,.34-3,.46-2,.22-3,.26l-3.63.15,3-1.81q1.38-.84,2.85-1.56A23.89,23.89,0,0,1,21.93,42.57Z"/><line class="cls-3" x1="16.57" y1="46.19" x2="28.64" y2="44.78"/><polyline class="cls-4" points="28.11 44.62 22.75 48.24 34.83 46.84"/><path class="cls-2" d="M28.11,44.62a24.28,24.28,0,0,1-2.33,2.32c-.82.72-1.66,1.41-2.52,2.06l-.61-1.67c1-.19,2-.31,3-.43s2-.2,3-.25,2-.07,3,0a23.22,23.22,0,0,1,3.09.24,23.45,23.45,0,0,1-2.95.94c-1,.25-2,.48-3,.65s-2,.33-3,.45-2,.22-3,.27l-3.63.15,3-1.82c.93-.55,1.87-1.08,2.85-1.56A25.43,25.43,0,0,1,28.11,44.62Z"/><line class="cls-3" x1="22.75" y1="48.24" x2="34.83" y2="46.84"/><polyline class="cls-4" points="34.29 46.68 28.93 50.29 41.01 48.89"/><path class="cls-2" d="M34.29,46.68A24.29,24.29,0,0,1,32,49c-.82.72-1.65,1.4-2.52,2l-.61-1.66c1-.19,2-.32,3-.44s2-.2,3-.24,2-.08,3.05-.05a23.19,23.19,0,0,1,3.09.23,23.45,23.45,0,0,1-2.95.94c-1,.26-2,.48-3,.65s-2,.34-3,.46-2,.22-3,.26l-3.63.15,3-1.81c.93-.56,1.87-1.08,2.85-1.57A23.84,23.84,0,0,1,34.29,46.68Z"/><line class="cls-3" x1="28.93" y1="50.29" x2="41.01" y2="48.89"/><path class="cls-5" d="M54.3,36.69l-1.57-.34L47.37,29.8a76.43,76.43,0,0,1-9.86-15.55l-1.72-3.63L34,20.22,32.83,19a33.14,33.14,0,0,0-10.32-7.25L20,10.62l6.21,11L12.12,14.38,22.62,28l-2.69-1.2A36.17,36.17,0,0,1,7.71,17.88l-.34-.38h0a22.14,22.14,0,0,0,13.77,18l1.59.63-5.11.23L6.62,36,10,37.66A54.24,54.24,0,0,0,27.4,42.88l1,.12-5.53,2.81L36,46.62l-5.18,2.32,10.81.42a3.35,3.35,0,0,1,1.78.59l1.92,1.32a11.85,11.85,0,0,0,6.74,2.11h0a1.65,1.65,0,0,0,1.65-1.66v-5.1l3.66-3.77Z"/><path class="cls-1" d="M49.87,48.4l3.85.62V46.89l-6.39-2.35-4.21-3.08-1.91-.92-1.42.08-2-.08L36.12,40l-1.5-.71-1.7-1.63.41.71A10.72,10.72,0,0,0,39,43h0a2.49,2.49,0,0,0,1.64,0h0a2.46,2.46,0,0,1,2.26.33Z"/><path class="cls-6" d="M33.12,24.38l1.5-2-.74-2.25L32.83,19a33.14,33.14,0,0,0-10.32-7.25L20,10.62l5.66,10,2.93,3.26Z"/><path class="cls-7" d="M27.53,19.2l2.94,3.26,3.78.39.37-.5-.74-2.25L32.83,19a33.07,33.07,0,0,0-9.2-6.72Z"/><path class="cls-6" d="M27.56,36.81l-8.83-2.44a23.15,23.15,0,0,0,2.41,1.15l1.59.63-5.11.23L6.62,36,10,37.66a54.23,54.23,0,0,0,15.4,4.93l6.57-.4Z"/><path class="cls-7" d="M7.42,36l3.17.95a54.53,54.53,0,0,0,16,2.27l2.49-.58-1.52-1.86-8.83-2.44a23.15,23.15,0,0,0,2.41,1.15l1.59.63-5.11.23Z"/><polygon class="cls-6" points="30.79 29.58 28.5 23.67 25.44 21.23 12.12 14.38 18.53 22.66 25.7 30.32 30.79 29.58"/><polygon class="cls-7" points="13.45 15.06 28.36 28.57 30.29 28.29 28.5 23.67 25.44 21.23 13.45 15.06"/><path class="cls-6" d="M24.54,28.88l-3.08-2.42L22.62,28l-2.69-1.2A36.17,36.17,0,0,1,7.71,17.88l-.34-.38A22.1,22.1,0,0,0,19.61,34.83l1.53.69,6.42,1.29Z"/><path class="cls-7" d="M18.24,26l-.9-.49-.72-.39c-.41-.23-.81-.48-1.2-.73l-.37-.22-1.34-.92-.16-.11c-.49-.35-1-.71-1.42-1.08l0,0a35.57,35.57,0,0,1-4-3.75h0a22.07,22.07,0,0,0,11,12.3l1.53.69,5.2,1-1.3-3.4-3.08-2.42L22.62,28l-2.69-1.2C19.36,26.51,18.8,26.24,18.24,26Z"/><path class="cls-8" d="M9.82,20a21.94,21.94,0,0,0,9.29,8.6l1.53.69,5.06,1-1.16-1.44-3.08-2.42L22.62,28l-2.69-1.2A35.92,35.92,0,0,1,9.82,20Z"/><path class="cls-9" d="M35.3,29.5a5,5,0,0,1-.62-4.59s.85,2.78,2.25,3.21l-.25-1.56s2,.88,2,2c0,0,.22-2.78-.68-3.93,0,0,3.31,1.87,3,5.12l.62-1.34s1.18,1.85.54,2.94l.87-.85-.44,1.82,1-.36s-.06,1-.56,1.29l3.18,3.25-9-5s-3.21.31-4.48-1.34a5.43,5.43,0,0,0,1.92.12l-.79-1.72Z"/><path class="cls-8" d="M21.06,37.4l-1.58-.63-1-.43-.88,0L6.62,36l2.84,1.4,6.5.22Z"/><path class="cls-8" d="M31.16,20.25l1.18,1.22L32.8,19a33.07,33.07,0,0,0-10.29-7.23L20,10.62l1.52,2.7A33.39,33.39,0,0,1,31.16,20.25Z"/><polygon class="cls-4" points="26.07 44.17 22.84 45.81 23.55 45.85 26.7 44.25 26.07 44.17"/><polygon class="cls-4" points="33.34 47.81 30.82 48.94 31.86 48.98 34.33 47.88 33.34 47.81"/><polygon class="cls-8" points="24.54 22.88 22.86 19.9 12.12 14.38 14.83 17.88 24.54 22.88"/><path class="cls-4" d="M54.3,36.69l-1.57-.34L47.37,29.8a76.43,76.43,0,0,1-9.86-15.55l-1.72-3.63L35.15,14l.7,1.46A76,76,0,0,0,45.7,31.05l5.36,6.55,1.58.34,3.07,6.16-3.66,3.78V53a1.75,1.75,0,0,1,0,.4h.07a1.65,1.65,0,0,0,1.65-1.66v-5.1l3.66-3.77Z"/><path class="cls-10" d="M54.3,36.69l-1.57-.34L47.37,29.8a76.43,76.43,0,0,1-9.86-15.55l-1.72-3.63L34,20.22,32.83,19a33.14,33.14,0,0,0-10.32-7.25L20,10.62l6.21,11L12.12,14.38,22.62,28l-2.69-1.2A36.17,36.17,0,0,1,7.71,17.88l-.34-.38h0a22.14,22.14,0,0,0,13.77,18l1.59.63-5.11.23L6.62,36,10,37.66A54.24,54.24,0,0,0,27.4,42.88l1,.12-5.53,2.81L36,46.62l-5.18,2.32,10.81.42a3.35,3.35,0,0,1,1.78.59l1.92,1.32a11.85,11.85,0,0,0,6.74,2.11h0a1.65,1.65,0,0,0,1.65-1.66v-5.1l3.66-3.77Z"/><path class="cls-2" d="M37.44,30.66l1.28-.22a1.29,1.29,0,0,1,1.12.35l1.85,1.79v.89h1.13a3.89,3.89,0,0,1-3.67.22l-2.08-1A3.05,3.05,0,0,1,35.3,30h0l1.31.6A1.4,1.4,0,0,0,37.44,30.66Z"/><polygon class="cls-2" points="51.91 40.08 52.66 38.99 54.1 41.69 51.91 40.08"/><circle class="cls-11" cx="39.07" cy="31.99" r="0.72"/><circle class="cls-12" cx="39.07" cy="31.99" r="0.36"/><circle class="cls-13" cx="38.82" cy="31.74" r="0.36"/><path class="cls-2" d="M55,46.74l-.58.56-.32.31h-.38L52,47.54l-.45,0a3.72,3.72,0,0,1-.57-.08A3.27,3.27,0,0,1,50,47l-2.82-1.94-2.78-1.93-1.39-1a8.88,8.88,0,0,0-1.37-.84,5,5,0,0,0-1.49-.44,6.81,6.81,0,0,0-.78,0,6.68,6.68,0,0,1-.89,0,6.39,6.39,0,0,1-1.73-.45c-.56-.24-1-.52-1.53-.78a7.61,7.61,0,0,1-1.48-.9,4.71,4.71,0,0,1-1.12-1.32A4.94,4.94,0,0,1,32,34.05a4.8,4.8,0,0,0,.79,3.18,4.66,4.66,0,0,0,1.14,1.16,7,7,0,0,0,1.47.76c.51.21,1,.47,1.54.65a5.5,5.5,0,0,0,1.56.28,5.4,5.4,0,0,0,.8,0,6.91,6.91,0,0,1,.91,0,6.51,6.51,0,0,1,1.78.38,10.17,10.17,0,0,1,1.58.82l1.45.87,2.92,1.72,2.88,1.7a1.48,1.48,0,0,0,.54.17,1.23,1.23,0,0,0,.27,0l.4,0,1.69-.06L53,46l.55-.6A1,1,0,0,1,55,45.27a1,1,0,0,1,.07,1.42Z"/><circle class="cls-9" cx="32.32" cy="32.31" r="0.32"/><circle class="cls-9" cx="34.43" cy="34.4" r="0.57"/><circle class="cls-9" cx="33.54" cy="33.6" r="0.24"/><circle class="cls-9" cx="34.52" cy="32.98" r="0.27"/><circle class="cls-9" cx="30.92" cy="33.11" r="0.14"/><circle class="cls-9" cx="37.46" cy="34.56" r="0.19"/><circle class="cls-9" cx="37.35" cy="36.1" r="0.31"/><circle class="cls-9" cx="40.3" cy="35.83" r="0.27"/><circle class="cls-9" cx="39.03" cy="35.34" r="0.22"/><circle class="cls-9" cx="42.38" cy="36.46" r="0.36"/><circle class="cls-9" cx="32.13" cy="27.34" r="0.18"/><circle class="cls-9" cx="37.93" cy="22.91" r="0.28"/><circle class="cls-9" cx="29.84" cy="36.67" r="0.26"/><polygon class="cls-9" points="44.25 40.13 51.66 44.92 53.06 44.92 51.91 44.38 44.25 40.13"/><polyline class="cls-4" points="47.8 32.34 49.4 28.86 50.26 35.84"/><path class="cls-2" d="M47.8,32.34a9.14,9.14,0,0,1,.23-2,14.35,14.35,0,0,1,.53-1.87l1-3,.71,3.27a17.78,17.78,0,0,1,.4,3.49A15.27,15.27,0,0,1,50.63,34a9.38,9.38,0,0,1-.38,1.82,8.72,8.72,0,0,1-.79-1.67,12.38,12.38,0,0,1-.52-1.71A17.85,17.85,0,0,1,48.48,29l1.76.28a13.71,13.71,0,0,1-1.08,1.61A9.4,9.4,0,0,1,47.8,32.34Z"/><line class="cls-3" x1="49.4" y1="28.86" x2="50.25" y2="35.84"/><polyline class="cls-4" points="39.62 21.25 41.57 17.01 42.61 25.52"/><path class="cls-2" d="M39.62,21.25A13,13,0,0,1,40,18.87a18.78,18.78,0,0,1,.7-2.24l1.1-3,.66,3.26A26.34,26.34,0,0,1,43,21.16a19.55,19.55,0,0,1,0,2.16,12.33,12.33,0,0,1-.33,2.2,12.39,12.39,0,0,1-.84-2.06,17.5,17.5,0,0,1-.57-2.09,26.31,26.31,0,0,1-.55-4.24l1.76.27a20.7,20.7,0,0,1-1.25,2A13.33,13.33,0,0,1,39.62,21.25Z"/><line class="cls-3" x1="41.57" y1="17.01" x2="42.61" y2="25.52"/><polyline class="cls-4" points="42.38 25.18 44.34 20.94 45.38 29.44"/><path class="cls-2" d="M42.38,25.18a15,15,0,0,1,.41-2.38,21.76,21.76,0,0,1,.71-2.25l1.1-3,.65,3.27a25.28,25.28,0,0,1,.5,4.25,17.52,17.52,0,0,1,0,2.17,12.06,12.06,0,0,1-.32,2.19,12.87,12.87,0,0,1-.85-2.05A19.56,19.56,0,0,1,44,25.3a26.44,26.44,0,0,1-.55-4.25l1.76.28a20.7,20.7,0,0,1-1.25,2A14.16,14.16,0,0,1,42.38,25.18Z"/><line class="cls-3" x1="44.34" y1="20.94" x2="45.38" y2="29.44"/><polyline class="cls-4" points="45.15 29.1 47.1 24.87 48.15 33.37"/><path class="cls-2" d="M45.15,29.1a13,13,0,0,1,.41-2.37,21,21,0,0,1,.7-2.25l1.11-3L48,24.76a26.36,26.36,0,0,1,.5,4.25,19.47,19.47,0,0,1-.05,2.16,12,12,0,0,1-.32,2.2,12,12,0,0,1-.85-2,19.56,19.56,0,0,1-.56-2.09A25.36,25.36,0,0,1,46.19,25l1.75.28a20,20,0,0,1-1.25,2A13.25,13.25,0,0,1,45.15,29.1Z"/><line class="cls-3" x1="47.1" y1="24.87" x2="48.15" y2="33.37"/><circle class="cls-11" cx="49.37" cy="13.5" r="1.22"/><circle class="cls-11" cx="45.12" cy="14.32" r="0.26"/><circle class="cls-11" cx="49.32" cy="18.06" r="1.69"/><circle class="cls-11" cx="53.56" cy="24.31" r="0.56"/><circle class="cls-11" cx="49.8" cy="22.22" r="0.41"/><circle class="cls-11" cx="53.36" cy="20.74" r="0.36"/><path class="cls-11" d="M53.31,28.69a.44.44,0,0,1-.44.43.44.44,0,0,1,0-.87A.44.44,0,0,1,53.31,28.69Z"/><circle class="cls-11" cx="50.83" cy="23.99" r="0.24"/><circle class="cls-11" cx="54.29" cy="32.19" r="0.19"/><circle class="cls-11" cx="56.58" cy="29.01" r="0.33"/><circle class="cls-11" cx="11.92" cy="51.83" r="1.53"/><circle class="cls-11" cx="21.96" cy="54.25" r="0.87"/><circle class="cls-11" cx="17.9" cy="51.53" r="0.43"/><circle class="cls-11" cx="16.09" cy="54.59" r="0.34"/><circle class="cls-11" cx="15.33" cy="49.25" r="0.76"/><circle class="cls-11" cx="9.82" cy="48.11" r="0.57"/><circle class="cls-11" cx="12.5" cy="56.38" r="0.38"/><circle class="cls-11" cx="31.39" cy="54.85" r="0.61"/><circle class="cls-11" cx="21.76" cy="51.8" r="0.7"/><circle class="cls-11" cx="36.89" cy="53.26" r="0.76"/></svg>