<svg id="art" xmlns="http://www.w3.org/2000/svg" viewBox="0 0 64 64"><defs><style>.cls-1{fill:#f2e8d1;}.cls-2{fill:#fff8e9;}.cls-3,.cls-6,.cls-9{fill:none;stroke:#041256;stroke-linecap:round;}.cls-3,.cls-6{stroke-miterlimit:10;}.cls-4{fill:#823c50;}.cls-5{fill:#9b566d;}.cls-6,.cls-9{stroke-width:2px;}.cls-7{fill:#f9dfcd;}.cls-8{fill:#eacab5;}.cls-9{stroke-linejoin:bevel;}.cls-10{fill:#ffeadc;}.cls-11{fill:#fff6f0;}.cls-12{fill:#5df9e6;}.cls-13{fill:#041256;}.cls-14{fill:#edd2c0;}.cls-15{fill:#f7ad9f;}</style></defs><title>game of thrones, game, thrones, series, character, avatar, unburned, daenerys, dragons, queen</title><path class="cls-1" d="M14.72,45a3.71,3.71,0,0,0,.86,3.4,3.73,3.73,0,0,0,1.49-6A3.71,3.71,0,0,0,14.72,45Z"/><path class="cls-1" d="M15.07,43.55A3.72,3.72,0,0,0,15.93,47a3.73,3.73,0,0,0,2.35-2.61"/><path class="cls-2" d="M15.93,47a3.71,3.71,0,0,1-1-2.69,3.66,3.66,0,0,0-.25.68,3.71,3.71,0,0,0,.86,3.4,3.71,3.71,0,0,0,2.35-2.61A3.47,3.47,0,0,0,18,45,3.72,3.72,0,0,1,15.93,47Z"/><path class="cls-3" d="M14.72,45a3.71,3.71,0,0,0,.86,3.4,3.73,3.73,0,0,0,1.49-6A3.71,3.71,0,0,0,14.72,45Z"/><path class="cls-1" d="M15.47,41.94a3.7,3.7,0,0,0,.86,3.4,3.72,3.72,0,0,0,1.49-6A3.69,3.69,0,0,0,15.47,41.94Z"/><path class="cls-1" d="M15.81,40.55a3.74,3.74,0,0,0,.86,3.4A3.71,3.71,0,0,0,19,41.35"/><path class="cls-2" d="M16.67,44a3.73,3.73,0,0,1-1-2.69,3.94,3.94,0,0,0-.25.68,3.7,3.7,0,0,0,.86,3.4,3.69,3.69,0,0,0,2.35-2.6,3.57,3.57,0,0,0,.1-.72A3.73,3.73,0,0,1,16.67,44Z"/><path class="cls-3" d="M15.47,41.94a3.7,3.7,0,0,0,.86,3.4,3.72,3.72,0,0,0,1.49-6A3.69,3.69,0,0,0,15.47,41.94Z"/><path class="cls-1" d="M16.21,38.94a3.74,3.74,0,0,0,.86,3.4,3.73,3.73,0,0,0,1.5-6A3.74,3.74,0,0,0,16.21,38.94Z"/><path class="cls-1" d="M16.56,37.54A3.72,3.72,0,0,0,17.42,41a3.73,3.73,0,0,0,2.35-2.61"/><path class="cls-2" d="M17.42,41a3.75,3.75,0,0,1-1-2.69,3.66,3.66,0,0,0-.25.68,3.74,3.74,0,0,0,.86,3.4,3.71,3.71,0,0,0,2.35-2.61,3.47,3.47,0,0,0,.1-.71A3.72,3.72,0,0,1,17.42,41Z"/><path class="cls-3" d="M16.21,38.94a3.74,3.74,0,0,0,.86,3.4,3.73,3.73,0,0,0,1.5-6A3.74,3.74,0,0,0,16.21,38.94Z"/><path class="cls-1" d="M17,35.93a3.73,3.73,0,0,0,.86,3.41,3.73,3.73,0,0,0,1.49-6A3.69,3.69,0,0,0,17,35.93Z"/><path class="cls-1" d="M17.31,34.54a3.71,3.71,0,0,0,.86,3.4,3.73,3.73,0,0,0,2.35-2.6"/><path class="cls-2" d="M18.17,37.94a3.69,3.69,0,0,1-1-2.69,3.94,3.94,0,0,0-.25.68,3.73,3.73,0,0,0,.86,3.41,3.73,3.73,0,0,0,2.35-2.61,3.57,3.57,0,0,0,.1-.72A3.71,3.71,0,0,1,18.17,37.94Z"/><path class="cls-3" d="M17,35.93a3.73,3.73,0,0,0,.86,3.41,3.73,3.73,0,0,0,1.49-6A3.69,3.69,0,0,0,17,35.93Z"/><path class="cls-1" d="M17.71,32.93a3.71,3.71,0,0,0,.86,3.4,3.73,3.73,0,0,0,1.49-6A3.71,3.71,0,0,0,17.71,32.93Z"/><path class="cls-1" d="M18.05,31.53a3.75,3.75,0,0,0,.86,3.41,3.73,3.73,0,0,0,2.35-2.61"/><path class="cls-2" d="M18.91,34.94a3.75,3.75,0,0,1-1-2.69,3.64,3.64,0,0,0-.24.68,3.71,3.71,0,0,0,.86,3.4,3.71,3.71,0,0,0,2.35-2.61A4.19,4.19,0,0,0,21,33,3.73,3.73,0,0,1,18.91,34.94Z"/><path class="cls-3" d="M17.71,32.93a3.71,3.71,0,0,0,.86,3.4,3.73,3.73,0,0,0,1.49-6A3.71,3.71,0,0,0,17.71,32.93Z"/><path class="cls-1" d="M49.28,45a3.71,3.71,0,0,1-.86,3.4,3.73,3.73,0,0,1-1.49-6A3.71,3.71,0,0,1,49.28,45Z"/><path class="cls-1" d="M48.93,43.55A3.72,3.72,0,0,1,48.07,47a3.73,3.73,0,0,1-2.35-2.61"/><path class="cls-2" d="M48.07,47a3.71,3.71,0,0,0,1-2.69,3.66,3.66,0,0,1,.25.68,3.71,3.71,0,0,1-.86,3.4,3.71,3.71,0,0,1-2.35-2.61A3.47,3.47,0,0,1,46,45,3.72,3.72,0,0,0,48.07,47Z"/><path class="cls-3" d="M49.28,45a3.71,3.71,0,0,1-.86,3.4,3.73,3.73,0,0,1-1.49-6A3.71,3.71,0,0,1,49.28,45Z"/><path class="cls-1" d="M48.53,41.94a3.7,3.7,0,0,1-.86,3.4,3.72,3.72,0,0,1-1.49-6A3.69,3.69,0,0,1,48.53,41.94Z"/><path class="cls-1" d="M48.19,40.55a3.74,3.74,0,0,1-.86,3.4A3.71,3.71,0,0,1,45,41.35"/><path class="cls-2" d="M47.33,44a3.73,3.73,0,0,0,1-2.69,3.94,3.94,0,0,1,.25.68,3.7,3.7,0,0,1-.86,3.4,3.69,3.69,0,0,1-2.35-2.6,3.57,3.57,0,0,1-.1-.72A3.73,3.73,0,0,0,47.33,44Z"/><path class="cls-3" d="M48.53,41.94a3.7,3.7,0,0,1-.86,3.4,3.72,3.72,0,0,1-1.49-6A3.69,3.69,0,0,1,48.53,41.94Z"/><path class="cls-1" d="M47.79,38.94a3.74,3.74,0,0,1-.86,3.4,3.73,3.73,0,0,1-1.5-6A3.74,3.74,0,0,1,47.79,38.94Z"/><path class="cls-1" d="M47.44,37.54A3.72,3.72,0,0,1,46.58,41a3.73,3.73,0,0,1-2.35-2.61"/><path class="cls-2" d="M46.58,41a3.75,3.75,0,0,0,1-2.69,3.66,3.66,0,0,1,.25.68,3.74,3.74,0,0,1-.86,3.4,3.71,3.71,0,0,1-2.35-2.61,3.47,3.47,0,0,1-.1-.71A3.72,3.72,0,0,0,46.58,41Z"/><path class="cls-3" d="M47.79,38.94a3.74,3.74,0,0,1-.86,3.4,3.73,3.73,0,0,1-1.5-6A3.74,3.74,0,0,1,47.79,38.94Z"/><path class="cls-1" d="M47,35.93a3.73,3.73,0,0,1-.86,3.41,3.73,3.73,0,0,1-1.49-6A3.69,3.69,0,0,1,47,35.93Z"/><path class="cls-1" d="M46.69,34.54a3.71,3.71,0,0,1-.86,3.4,3.73,3.73,0,0,1-2.35-2.6"/><path class="cls-2" d="M45.83,37.94a3.69,3.69,0,0,0,1-2.69,3.94,3.94,0,0,1,.25.68,3.73,3.73,0,0,1-.86,3.41,3.73,3.73,0,0,1-2.35-2.61,3.57,3.57,0,0,1-.1-.72A3.71,3.71,0,0,0,45.83,37.94Z"/><path class="cls-3" d="M47,35.93a3.73,3.73,0,0,1-.86,3.41,3.73,3.73,0,0,1-1.49-6A3.69,3.69,0,0,1,47,35.93Z"/><path class="cls-1" d="M46.29,32.93a3.71,3.71,0,0,1-.86,3.4,3.73,3.73,0,0,1-1.49-6A3.71,3.71,0,0,1,46.29,32.93Z"/><path class="cls-1" d="M46,31.53a3.75,3.75,0,0,1-.86,3.41,3.73,3.73,0,0,1-2.35-2.61"/><path class="cls-2" d="M45.09,34.94a3.75,3.75,0,0,0,1-2.69,3.64,3.64,0,0,1,.24.68,3.71,3.71,0,0,1-.86,3.4,3.71,3.71,0,0,1-2.35-2.61A4.19,4.19,0,0,1,43,33,3.73,3.73,0,0,0,45.09,34.94Z"/><path class="cls-3" d="M46.29,32.93a3.71,3.71,0,0,1-.86,3.4,3.73,3.73,0,0,1-1.49-6A3.71,3.71,0,0,1,46.29,32.93Z"/><path class="cls-4" d="M56,56V46.26a39.76,39.76,0,0,1-8-1.33c-7.78-2.07-13.34-5.73-12.42-8.18H28.39c.92,2.45-4.64,6.11-12.42,8.18a39.76,39.76,0,0,1-8,1.33V56"/><path class="cls-5" d="M48,44.93c-7.78-2.07-13.34-5.73-12.42-8.18H28.39c.92,2.45-4.64,6.11-12.42,8.18a39.76,39.76,0,0,1-8,1.33v3A39.76,39.76,0,0,0,16,48c7.78-2.07,13.34-5.73,12.42-8.18h7.22C34.69,42.23,40.25,45.89,48,48a39.76,39.76,0,0,0,8,1.33v-3A39.76,39.76,0,0,1,48,44.93Z"/><path class="cls-5" d="M28.39,42.18c-.7,2.35-5.73,5.3-12.42,7.08a39.7,39.7,0,0,1-8,1.32v1.09a39.7,39.7,0,0,0,8-1.32C23.74,48.28,29.29,44.63,28.39,42.18Z"/><path class="cls-5" d="M28.39,45.2h0Z"/><path class="cls-5" d="M28.4,42.17h7.2a1.69,1.69,0,0,1,0-1.09H28.39A1.69,1.69,0,0,1,28.4,42.17Z"/><path class="cls-5" d="M48,49.26c-6.69-1.78-11.72-4.73-12.42-7.08-.9,2.45,4.65,6.1,12.42,8.17a39.7,39.7,0,0,0,8,1.32V50.58A39.7,39.7,0,0,1,48,49.26Z"/><path class="cls-5" d="M35.61,45.2h0Z"/><path class="cls-5" d="M28.39,44.45c-.7,2.35-5.73,5.3-12.42,7.08a40.42,40.42,0,0,1-8,1.32v1.09a40.42,40.42,0,0,0,8-1.32C23.74,50.55,29.29,46.9,28.39,44.45Z"/><path class="cls-5" d="M28.39,47.47h0Z"/><path class="cls-5" d="M28.4,44.44h7.2a1.69,1.69,0,0,1,0-1.09H28.39A1.69,1.69,0,0,1,28.4,44.44Z"/><path class="cls-5" d="M48,51.53c-6.69-1.78-11.72-4.73-12.42-7.08-.9,2.45,4.65,6.1,12.42,8.17a40.42,40.42,0,0,0,8,1.32V52.85A40.42,40.42,0,0,1,48,51.53Z"/><path class="cls-5" d="M35.61,47.47h0Z"/><path class="cls-5" d="M28.39,46.71c-.7,2.35-5.73,5.3-12.42,7.08a40.49,40.49,0,0,1-8,1.33v1.09a40.49,40.49,0,0,0,8-1.33C23.74,52.82,29.29,49.16,28.39,46.71Z"/><path class="cls-5" d="M28.39,49.73v0Z"/><path class="cls-5" d="M28.4,46.7h7.2a1.69,1.69,0,0,1,0-1.09H28.39A1.69,1.69,0,0,1,28.4,46.7Z"/><path class="cls-5" d="M48,53.79C41.34,52,36.31,49.06,35.61,46.71c-.9,2.45,4.65,6.11,12.42,8.17a40.49,40.49,0,0,0,8,1.33V55.12A40.49,40.49,0,0,1,48,53.79Z"/><path class="cls-5" d="M35.61,49.73h0v0Z"/><path class="cls-6" d="M56,56V46.26a39.76,39.76,0,0,1-8-1.33c-7.78-2.07-13.34-5.73-12.42-8.18H28.39c.92,2.45-4.64,6.11-12.42,8.18a39.76,39.76,0,0,1-8,1.33V56"/><path class="cls-7" d="M25.67,33.46l1,11a2,2,0,0,1,0,.25C26.7,49.4,28.22,53.55,32,56c3.78-2.47,5.3-6.62,5.33-11.33a2,2,0,0,1,0-.25l1-11Z"/><path class="cls-8" d="M35.59,35.93,27.25,39.5l4.13,4.72A2.76,2.76,0,0,1,32.06,46V56c3.74-2.47,5.24-6.6,5.27-11.28v-.25L38,37.11Z"/><path class="cls-9" d="M25.67,33.46l1,11a2,2,0,0,1,0,.25C26.7,49.4,28.22,53.55,32,56c3.78-2.47,5.3-6.62,5.33-11.33a2,2,0,0,1,0-.25l1-11Z"/><path class="cls-10" d="M44.45,20.81a12.45,12.45,0,1,0-23.53,5.67,14.91,14.91,0,0,1,1.25,3.27l.24,1a12.48,12.48,0,0,0,3.3,5.9l2.71,2.71a4,4,0,0,0,2.8,1.16h1.56a4,4,0,0,0,2.8-1.16l2.71-2.71a12.48,12.48,0,0,0,3.3-5.9l.23-.95a15.39,15.39,0,0,1,1.29-3.34A12.41,12.41,0,0,0,44.45,20.81Z"/><path class="cls-11" d="M22.48,14l-.8,9.29L23,27.16l1.88-2.73h3.82a3.26,3.26,0,0,0,3.25-3.25h0A3.24,3.24,0,0,1,32.81,19l3.48-3.73Z"/><path class="cls-11" d="M30.33,26.66,31.11,28a.77.77,0,0,1,.11.39l.19,4.29-.94-3a.82.82,0,0,1,0-.44l.21-1a.86.86,0,0,0,0-.39Z"/><path class="cls-7" d="M33.67,26.66,32.89,28a.77.77,0,0,0-.11.39l-.19,4.29.94-3a.82.82,0,0,0,0-.44l-.21-1a.86.86,0,0,1,0-.39Z"/><path class="cls-11" d="M27.8,34a3,3,0,0,0-1.45-1.43A3.1,3.1,0,0,1,24.85,31l-1.27-3-1.9,3.15,4.06,5,3.87,3.6"/><path class="cls-7" d="M36.2,34a3,3,0,0,1,1.45-1.43A3.1,3.1,0,0,0,39.15,31l1.27-3,1.9,3.15-4.06,5-3.87,3.6Z"/><path class="cls-12" d="M31.11,8.42A12.43,12.43,0,0,1,42.64,20.81a12.28,12.28,0,0,1-1.34,5.61A15.36,15.36,0,0,0,40,29.76l-.23.95a12.58,12.58,0,0,1-3.31,5.9l-2.71,2.71a3.94,3.94,0,0,1-2.67,1.14l.12,0h1.56a4,4,0,0,0,2.8-1.16l2.71-2.71a12.48,12.48,0,0,0,3.3-5.9l.23-.95a15.39,15.39,0,0,1,1.29-3.34,12.42,12.42,0,0,0-12-18Z"/><path class="cls-11" d="M30.59,39.32l-2.71-2.71a12.49,12.49,0,0,1-3.31-5.9l-.23-1a14.94,14.94,0,0,0-1.26-3.27,12.45,12.45,0,0,1,9.67-18c.12,0,.23,0,.35,0A12.43,12.43,0,0,0,20.92,26.48a14.91,14.91,0,0,1,1.25,3.27l.24,1a12.48,12.48,0,0,0,3.3,5.9l2.71,2.71a4,4,0,0,0,2.8,1.16h1.56l.3,0A4,4,0,0,1,30.59,39.32Z"/><path class="cls-1" d="M21.5,20.29a2.27,2.27,0,0,0-1.9,1.55,12.5,12.5,0,0,0,1.32,4.64c.2.4.38.79.55,1.2h0c1.29,0,2.33-1.65,2.33-3.69S22.79,20.29,21.5,20.29Z"/><path class="cls-2" d="M22.19,20.48A4.76,4.76,0,0,1,23,23.25c0,1.8-.82,3.3-1.9,3.62.13.27.26.53.37.81h0c1.29,0,2.33-1.65,2.33-3.69A3.87,3.87,0,0,0,22.19,20.48Z"/><path class="cls-13" d="M21.5,20.29a1.77,1.77,0,0,0-1.15.51,3.16,3.16,0,0,0-.67,1.07v0a12.52,12.52,0,0,0,.86,2.91,14,14,0,0,0,.67,1.34c.25.44.48.93.71,1.4l-.45-.3a1.84,1.84,0,0,0,1.43-1.06A5.21,5.21,0,0,0,23.56,24a5,5,0,0,0-.31-2.29A2.11,2.11,0,0,0,21.5,20.29Zm0,0a2.34,2.34,0,0,1,1.88,1.35A5.34,5.34,0,0,1,24.1,24a5.21,5.21,0,0,1-.4,2.53,3,3,0,0,1-.82,1.11,2.05,2.05,0,0,1-1.41.53l-.32,0L21,27.87c-.21-.46-.39-.91-.6-1.4A9.93,9.93,0,0,1,19.91,25a12.76,12.76,0,0,1-.39-3.12v0a3.46,3.46,0,0,1,.79-1A1.73,1.73,0,0,1,21.5,20.29Z"/><path class="cls-1" d="M42.54,20.29a2.27,2.27,0,0,1,1.9,1.55,12.5,12.5,0,0,1-1.32,4.64c-.2.4-.38.79-.55,1.2h0c-1.29,0-2.33-1.65-2.33-3.69S41.25,20.29,42.54,20.29Z"/><path class="cls-2" d="M41.85,20.48A4.76,4.76,0,0,0,41,23.25c0,1.8.82,3.3,1.9,3.62-.13.27-.26.53-.37.81h0c-1.29,0-2.33-1.65-2.33-3.69A3.87,3.87,0,0,1,41.85,20.48Z"/><path class="cls-12" d="M42.54,20.29h0a3.93,3.93,0,0,1,.39.67,12.37,12.37,0,0,1-1.32,4.65c-.2.39-.38.79-.55,1.19h0a1.91,1.91,0,0,0,1.49.88h0c.17-.41.35-.8.55-1.2a12.5,12.5,0,0,0,1.32-4.64A2.27,2.27,0,0,0,42.54,20.29Z"/><path class="cls-13" d="M42.54,20.29a1.73,1.73,0,0,1,1.18.48,3.46,3.46,0,0,1,.79,1v0A12.76,12.76,0,0,1,44.13,25a9.93,9.93,0,0,1-.51,1.51c-.21.49-.39.94-.6,1.4l-.13.28-.32,0a2.05,2.05,0,0,1-1.41-.53,3,3,0,0,1-.82-1.11,5.21,5.21,0,0,1-.4-2.53,5.34,5.34,0,0,1,.72-2.36A2.34,2.34,0,0,1,42.54,20.29Zm0,0a2.11,2.11,0,0,0-1.75,1.42A5,5,0,0,0,40.48,24a5.21,5.21,0,0,0,.65,2.12,1.84,1.84,0,0,0,1.43,1.06l-.45.3c.23-.47.46-1,.71-1.4a14,14,0,0,0,.67-1.34,12.52,12.52,0,0,0,.86-2.91v0a3.33,3.33,0,0,0-.67-1.07A1.77,1.77,0,0,0,42.54,20.29Z"/><path class="cls-6" d="M41.59,30.71l.23-.95a15.39,15.39,0,0,1,1.29-3.34,12.45,12.45,0,1,0-22.19.06,14.91,14.91,0,0,1,1.25,3.27l.24,1a12.48,12.48,0,0,0,3.3,5.9l2.71,2.71a4,4,0,0,0,2.8,1.16"/><path class="cls-6" d="M31.22,40.48h1.56a4,4,0,0,0,2.8-1.16l2.71-2.71a12.48,12.48,0,0,0,3.3-5.9"/><path class="cls-14" d="M30.93,36.68a1.07,1.07,0,1,0,2.14,0Z"/><path class="cls-14" d="M33.29,32.69l-.78.43v0L32,33l-.51.09v0l-.78-.43-.41.21.4.49a2.09,2.09,0,0,0,.7.55l.6.3.6-.3a2.09,2.09,0,0,0,.7-.55l.4-.49Z"/><path class="cls-15" d="M33.22,35.05,32,35.29l-1.22-.24-1,.24s.47.73,2.18.89c1.71-.16,2.18-.89,2.18-.89Z"/><path class="cls-15" d="M32.9,34.48c-.3-.16-.9.23-.9.23s-.6-.39-.9-.23-1.69.67-1.69.67l.52.06.59-.09,1.48.36,1.48-.36.59.09.52-.06S33.21,34.64,32.9,34.48Z"/><path class="cls-13" d="M32,33.4a2,2,0,0,1-.51-.1A3.69,3.69,0,0,1,31.1,33l-.37-.27c-.09-.08-.23,0-.36.11.1-.09.19-.28.41-.22l.43.15a4,4,0,0,0,.41.14,1.55,1.55,0,0,0,.38,0Z"/><path class="cls-13" d="M33.63,32.87c-.13-.07-.27-.19-.36-.11L32.9,33a3.69,3.69,0,0,1-.39.27,2,2,0,0,1-.51.1v-.5a1.55,1.55,0,0,0,.38,0,4,4,0,0,0,.41-.14l.43-.15C33.44,32.59,33.53,32.78,33.63,32.87Z"/><path class="cls-13" d="M29.11,35.12h.82l.82-.14h0L32,35a.25.25,0,0,1,0,.5H31.9l-1.16-.28h0l-.84,0h0Z"/><path class="cls-13" d="M34.89,35.12l-.82.17h0l-.84,0h0l-1.16.28a.25.25,0,0,1-.12-.48H32L33.22,35h0l.82.14h.82Z"/><path class="cls-13" d="M30.88,36.63A5.35,5.35,0,0,1,32,36.5a4.76,4.76,0,0,1,1.12.13,5.29,5.29,0,0,1-2.24,0Z"/><circle class="cls-13" cx="27.54" cy="27.51" r="0.78"/><path class="cls-13" d="M30.19,26.64c-.32-.1-.63-.27-.91-.35a2.43,2.43,0,0,0-.84-.11h0A7.81,7.81,0,0,1,26.88,26a5.72,5.72,0,0,1-1.5-.53A6.12,6.12,0,0,1,27,25.31a8.88,8.88,0,0,1,1.54.19h0a2,2,0,0,1,1,.38A3.83,3.83,0,0,1,30.19,26.64Z"/><circle class="cls-13" cx="36.29" cy="27.51" r="0.78"/><path class="cls-13" d="M33.63,26.64a4.16,4.16,0,0,1,.7-.76,2.12,2.12,0,0,1,1-.38h0a6.38,6.38,0,0,1,1.29-.19,4.4,4.4,0,0,1,1.34.14,4.08,4.08,0,0,1-1.24.53,5.58,5.58,0,0,1-1.29.19h0a2.46,2.46,0,0,0-.84.11C34.27,26.37,34,26.54,33.63,26.64Z"/><path class="cls-1" d="M39.5,56s-.57-2.33,3-6.22c0,0-6.87-7.18-2.46-14.49a32.84,32.84,0,0,0,3.63-10.87l1.92,3.26A11.18,11.18,0,0,1,45,38.2c-3.28,5.27,7.23,6.91,3.44,14,0,0,2.15,1.9,2,3.8"/><path class="cls-2" d="M50.41,55.75a3.36,3.36,0,0,0-.32-1.38c-.1.23-.2.46-.33.7A7.94,7.94,0,0,1,50.41,55.75Z"/><path class="cls-2" d="M49.27,48.64c-.3-2.3-2.25-3.91-3.59-5.56C45.68,45.14,47.81,46.69,49.27,48.64Z"/><path class="cls-2" d="M41.3,38.16A32.82,32.82,0,0,0,44.93,27.3l1.3,2.19a9.72,9.72,0,0,0-.66-1.81l-1.92-3.26A32.84,32.84,0,0,1,40,35.29c-2.69,4.45-1.19,8.85.4,11.61A10.24,10.24,0,0,1,41.3,38.16Z"/><path class="cls-12" d="M44.37,28.85a11.21,11.21,0,0,1-.54,10.52c-3.28,5.27,7.23,6.91,3.44,14A7,7,0,0,1,49.06,56h1.36c.2-1.9-2-3.8-2-3.8,3.79-7.09-6.72-8.73-3.44-14a11.18,11.18,0,0,0,.54-10.52l-1.92-3.26s-.13,1-.46,2.43Z"/><path class="cls-2" d="M43.77,52.65A15,15,0,0,1,42,50.31C39,53.88,39.5,56,39.5,56h1.92A13.92,13.92,0,0,1,43.77,52.65Z"/><path class="cls-13" d="M45,38.2a4.41,4.41,0,0,0-.24,1.86,3.25,3.25,0,0,0,.68,1.54A10.13,10.13,0,0,0,46.69,43c.44.46.92.91,1.39,1.41a7.63,7.63,0,0,1,2.11,3.87A5.65,5.65,0,0,1,50,50.55a7.73,7.73,0,0,1-.93,2L49,51.66a5.54,5.54,0,0,1,.74,1,5.83,5.83,0,0,1,.55,1A3.34,3.34,0,0,1,50.42,56a4,4,0,0,0-.94-1.87,8.47,8.47,0,0,0-.71-.75c-.25-.23-.54-.46-.77-.64l-.39-.29.23-.59a9.37,9.37,0,0,0,.48-1.69,4.68,4.68,0,0,0,0-1.59,7.45,7.45,0,0,0-1.65-3,17.13,17.13,0,0,1-2.33-3.36A3.88,3.88,0,0,1,44,40,3.59,3.59,0,0,1,45,38.2Z"/><path class="cls-13" d="M39.5,56a4,4,0,0,1,0-1.81,7.76,7.76,0,0,1,.56-1.75,11.93,11.93,0,0,1,.88-1.61c.33-.52.7-1,1.07-1.49v.89a16,16,0,0,1-3.8-6,11.16,11.16,0,0,1-.5-5.49l.19-.93.3-.88A10,10,0,0,1,39,35.2c.29-.6.55-1,.82-1.47a23.2,23.2,0,0,0,1.4-3,46.5,46.5,0,0,0,2-6.38l.28-1.12.47,1c.55,1.13,1.07,2.29,1.57,3.46-.78-1-1.54-2-2.27-3.05l.75-.15a30.15,30.15,0,0,1-1.28,6.83,25.41,25.41,0,0,1-1.3,3.28c-.23.52-.6,1.1-.8,1.54a7.33,7.33,0,0,0-.61,1.41l-.24.73-.14.76a9.55,9.55,0,0,0-.15,1.52A11.6,11.6,0,0,0,40,43.63a17.06,17.06,0,0,0,3,5.7l.4.51-.39.37c-.41.4-.81.82-1.19,1.25a15.13,15.13,0,0,0-1,1.35,9.59,9.59,0,0,0-.84,1.5A4.23,4.23,0,0,0,39.5,56Z"/><path class="cls-13" d="M45.57,27.68a7.35,7.35,0,0,1,1.23,2.53A9.24,9.24,0,0,1,47.13,33a8.29,8.29,0,0,1-.59,2.79A7.41,7.41,0,0,1,45,38.2a26.09,26.09,0,0,0,.76-2.61,13.52,13.52,0,0,0,.34-2.6A19.44,19.44,0,0,0,45.57,27.68Z"/><path class="cls-1" d="M24.5,56s.57-2.33-3-6.22c0,0,6.87-7.18,2.46-14.49a32.84,32.84,0,0,1-3.63-10.87l-1.92,3.26A11.18,11.18,0,0,0,19,38.2c3.28,5.27-7.23,6.91-3.44,14,0,0-2.15,1.9-1.95,3.8"/><path class="cls-2" d="M13.58,56h1.71a6.85,6.85,0,0,1,1.83-2.77c-3.79-7.09,6.72-8.73,3.44-14A11.18,11.18,0,0,1,20,28.71l.88-1.49c-.39-1.66-.55-2.8-.55-2.8l-1.92,3.26A11.18,11.18,0,0,0,19,38.2c3.28,5.27-7.23,6.91-3.44,14C15.53,52.2,13.38,54.1,13.58,56Z"/><path class="cls-2" d="M13.59,55.75a3.36,3.36,0,0,1,.32-1.38c.1.23.2.46.33.7A7.94,7.94,0,0,0,13.59,55.75Z"/><path class="cls-2" d="M14.73,48.64c.3-2.3,2.25-3.91,3.59-5.56C18.32,45.14,16.19,46.69,14.73,48.64Z"/><path class="cls-2" d="M22.7,38.16A32.82,32.82,0,0,1,19.07,27.3l-1.3,2.19a9.72,9.72,0,0,1,.66-1.81l1.92-3.26A32.84,32.84,0,0,0,24,35.29c2.69,4.45,1.19,8.85-.4,11.61A10.24,10.24,0,0,0,22.7,38.16Z"/><path class="cls-13" d="M18.43,27.68A19.44,19.44,0,0,0,17.87,33a13.52,13.52,0,0,0,.34,2.6A26.09,26.09,0,0,0,19,38.2a7.41,7.41,0,0,1-1.51-2.38A8.29,8.29,0,0,1,16.87,33a9.24,9.24,0,0,1,.33-2.82A7.35,7.35,0,0,1,18.43,27.68Z"/><path class="cls-2" d="M20.23,52.65A15,15,0,0,0,22,50.31C25,53.88,24.5,56,24.5,56H22.58A13.92,13.92,0,0,0,20.23,52.65Z"/><path class="cls-13" d="M19,38.2A3.59,3.59,0,0,1,20,40a3.88,3.88,0,0,1-.3,2.23,17.13,17.13,0,0,1-2.33,3.36,7.45,7.45,0,0,0-1.65,3,4.68,4.68,0,0,0-.05,1.59,9.37,9.37,0,0,0,.48,1.69l.23.59-.39.29c-.23.18-.52.41-.77.64a8.47,8.47,0,0,0-.71.75A4,4,0,0,0,13.58,56a3.34,3.34,0,0,1,.18-2.32,5.83,5.83,0,0,1,.55-1,5.54,5.54,0,0,1,.74-1l-.16.88a7.73,7.73,0,0,1-.93-2,5.65,5.65,0,0,1-.15-2.32,7.63,7.63,0,0,1,2.11-3.87c.47-.5,1-1,1.39-1.41a10.13,10.13,0,0,0,1.22-1.35,3.25,3.25,0,0,0,.68-1.54A4.41,4.41,0,0,0,19,38.2Z"/><path class="cls-13" d="M24.5,56a4.23,4.23,0,0,0-.39-1.69,9.59,9.59,0,0,0-.84-1.5,15.13,15.13,0,0,0-1-1.35c-.38-.43-.78-.85-1.19-1.25l-.39-.37.4-.51a17.06,17.06,0,0,0,3-5.7,11.6,11.6,0,0,0,.46-3.08A9.55,9.55,0,0,0,24.32,39l-.14-.76-.24-.73a7.33,7.33,0,0,0-.61-1.41c-.2-.44-.57-1-.8-1.54a25.41,25.41,0,0,1-1.3-3.28A30.15,30.15,0,0,1,20,24.48l.75.15c-.73,1-1.49,2.05-2.27,3.05.5-1.17,1-2.33,1.57-3.46l.47-1,.28,1.12a46.5,46.5,0,0,0,2.05,6.38,23.2,23.2,0,0,0,1.4,3c.27.5.53.87.82,1.47a10,10,0,0,1,.78,1.69l.3.88.19.93a11.16,11.16,0,0,1-.5,5.49,16,16,0,0,1-3.8,6v-.89c.37.48.74,1,1.07,1.49A11.93,11.93,0,0,1,24,52.44a7.76,7.76,0,0,1,.56,1.75A4,4,0,0,1,24.5,56Z"/><path class="cls-1" d="M38.7,15.54s-6.12,4.61-15.48,2c0,0,.36,5.76-3,7.91,0,0-4-8.73-.78-10.3,0,0,.77-7.15,12.35-7.15s12.35,7,12.35,7,4.2,3-.86,10.55c0,0-1.64-3.82-1.25-5.75S38.7,15.54,38.7,15.54Z"/><path class="cls-12" d="M34.65,8.17c-.52-.06-1-.11-1.62-.14a16.31,16.31,0,0,1,3.63.85A13.06,13.06,0,0,0,34.65,8.17Z"/><path class="cls-12" d="M44.15,15s-.47-4-5.72-6c4.45,2,4.85,5.64,4.85,5.64s3.9,2.85-.41,9.83c.23.64.42,1.07.42,1.07C48.35,18.07,44.15,15,44.15,15Z"/><path class="cls-2" d="M21.14,18s.77-7.16,12.35-7.16c5.76,0,8.85,1.75,10.49,3.5C43.43,12.55,41.11,8,31.8,8c-11.58,0-12.35,7.15-12.35,7.15-3.18,1.57.78,10.3.78,10.3a3.7,3.7,0,0,0,.49-.37C19.89,22.42,19.24,18.92,21.14,18Z"/><path class="cls-2" d="M45.58,17.39A4.42,4.42,0,0,0,44.15,15V15c-1.77-1.49-4.75-2.82-9.77-2.82C22.79,12.16,22,19.31,22,19.31c-1,.5-1.3,1.73-1.22,3.17A2.56,2.56,0,0,1,22,20.15S22.79,13,34.37,13C41.13,13,44.2,15.39,45.58,17.39Z"/><path class="cls-2" d="M45.39,16.8a4.53,4.53,0,0,0-.72-1.23A17.17,17.17,0,0,0,36.78,14c-6.35,0-9.45,2.16-11,4.1.21,0,.43.08.64.1,1.69-1.71,4.75-3.36,10.31-3.36C40.83,14.82,43.56,15.68,45.39,16.8Z"/><path class="cls-13" d="M20.23,25.45a23.94,23.94,0,0,1-2.14-5.14,10.36,10.36,0,0,1-.43-2.86A4.67,4.67,0,0,1,18,15.88a2.6,2.6,0,0,1,1.19-1.35l-.38.55a8.81,8.81,0,0,1,5.08-6.45A18,18,0,0,1,31.76,7a18.48,18.48,0,0,1,7.93,1.56A8.73,8.73,0,0,1,44.86,15l-.29-.5a5.06,5.06,0,0,1,1.61,2.88,6.7,6.7,0,0,1-.12,3.09,9.93,9.93,0,0,1-.46,1.43c-.2.45-.42.9-.66,1.33s-.49.84-.78,1.24l-.87,1.16.65-1.29c.2-.44.37-.88.56-1.32s.3-.9.44-1.35a9.09,9.09,0,0,0,.27-1.36A6.35,6.35,0,0,0,45,17.62a4.18,4.18,0,0,0-1.31-2l-.22-.17-.07-.33a6.5,6.5,0,0,0-1.66-2.91,8.43,8.43,0,0,0-2.87-2A17.79,17.79,0,0,0,31.76,9a17.22,17.22,0,0,0-7.13,1.29,8.57,8.57,0,0,0-2.85,2,6.58,6.58,0,0,0-1.64,3l-.09.44-.29.11a2,2,0,0,0-1,1.74,11.07,11.07,0,0,0,.1,2.62A34.66,34.66,0,0,0,20.23,25.45Z"/><path class="cls-13" d="M43.29,25.59A10.94,10.94,0,0,1,42,22.94a6.8,6.8,0,0,1-.44-3.05,2.85,2.85,0,0,0-.88-2.23c-.58-.73-1.26-1.41-1.95-2.12a8.07,8.07,0,0,1,2.52,1.59,4.81,4.81,0,0,1,1,1.22,2.31,2.31,0,0,1,.3.81,1.41,1.41,0,0,1,0,.46c0,.16,0,.35,0,.43a9,9,0,0,0,.2,2.69Z"/><path class="cls-13" d="M38.7,15.54a12.9,12.9,0,0,1-3.5,2,16.44,16.44,0,0,1-4,1.06,18.22,18.22,0,0,1-4.11.1,20.47,20.47,0,0,1-4-.76l.59-.47a13.31,13.31,0,0,1-.16,2.28A11.25,11.25,0,0,1,23,22a7.53,7.53,0,0,1-1.06,2,5.35,5.35,0,0,1-1.69,1.46,6.23,6.23,0,0,0,1.39-1.65,9.69,9.69,0,0,0,.76-2,12.56,12.56,0,0,0,.35-2.11,15.19,15.19,0,0,0,0-2.13l0-.59.63.12c.64.13,1.28.3,1.92.41s1.3.22,1.95.25a20.53,20.53,0,0,0,3.92,0A21.46,21.46,0,0,0,35,17,17.82,17.82,0,0,0,38.7,15.54Z"/><line class="cls-6" x1="8" y1="56" x2="56" y2="56"/><path class="cls-13" d="M21.61,15.33a2.54,2.54,0,0,0,.75,1.26,2.27,2.27,0,0,0,.58.37l.31.1.16,0h.15a4.72,4.72,0,1,1-.13.48l-.14.48h-.05l-.06,0-.1-.05-.2-.12a2.42,2.42,0,0,1-.36-.27A2.74,2.74,0,0,1,22,16.9,2.88,2.88,0,0,1,21.61,15.33Z"/></svg>