<svg id="art" xmlns="http://www.w3.org/2000/svg" viewBox="0 0 64 64"><defs><style>.cls-1{fill:#e0bf6c;}.cls-2{fill:#d6af56;}.cls-3{fill:#ffdc8d;}.cls-4{fill:#5df9e6;}.cls-5{fill:#041256;}.cls-10,.cls-6,.cls-7{fill:none;stroke-miterlimit:10;}.cls-10,.cls-6{stroke:#041256;stroke-linecap:round;}.cls-6{stroke-width:2px;}.cls-7{stroke:#fff;}.cls-8{fill:#d37c59;}.cls-9{fill:#ea9e83;}.cls-10{stroke-width:0.5px;}</style></defs><title>game of thrones, game, thrones, series, character, avatar, army, soldier, golden</title><path class="cls-1" d="M56,48c-6-3.08-14.5-5-24-5S14,45,8,48v8H56Z"/><path class="cls-2" d="M39.05,56A10,10,0,0,0,25,56Z"/><path class="cls-3" d="M23.48,43.56A6.42,6.42,0,0,1,22,45.48a2.64,2.64,0,0,0-1,1.92C21,49.92,25.9,52,32,52s11-2,11-4.56a2.64,2.64,0,0,0-1-1.92,6.42,6.42,0,0,1-1.49-1.92,67.48,67.48,0,0,0-17,0Z"/><path class="cls-3" d="M32,43C22.5,43,14,45,8,48v3.16c5.95-3.07,14.5-5,24-5s18,1.93,24,5V48C50.05,45,41.5,43,32,43Z"/><path class="cls-4" d="M29.62,43.07v2c.79,0,1.58,0,2.38,0,9.5,0,18,1.93,24,5V48c-6-3.08-14.5-5-24-5C31.2,43,30.41,43,29.62,43.07Z"/><path class="cls-5" d="M38.76,40.43V36.52H25.24v3.91A4.81,4.81,0,0,1,23.51,44a2.23,2.23,0,0,0-.87,1.63c0,2.13,4.19,3.86,9.36,3.86s9.36-1.73,9.36-3.86A2.23,2.23,0,0,0,40.49,44,4.81,4.81,0,0,1,38.76,40.43Z"/><path class="cls-6" d="M56,48c-6-3.08-14.5-5-24-5S14,45,8,48v8H56Z"/><path class="cls-5" d="M41.68,26.45a9.68,9.68,0,1,0-19.06,2.37,22.66,22.66,0,0,1,.78,5.55v.45A5.58,5.58,0,0,0,25.23,39l3.41,3.09A3.54,3.54,0,0,0,31,43h2a3.54,3.54,0,0,0,2.36-.9L38.77,39a5.53,5.53,0,0,0,1.83-4.12v-.55a21.17,21.17,0,0,1,.75-5.43A9.7,9.7,0,0,0,41.68,26.45Z"/><path class="cls-7" d="M41.68,26.45a9.68,9.68,0,1,0-19.06,2.37,22.66,22.66,0,0,1,.78,5.55v.45A5.58,5.58,0,0,0,25.23,39l3.41,3.09A3.54,3.54,0,0,0,31,43h2a3.54,3.54,0,0,0,2.36-.9L38.77,39a5.53,5.53,0,0,0,1.83-4.12v-.55a21.17,21.17,0,0,1,.75-5.43A9.7,9.7,0,0,0,41.68,26.45Z"/><circle class="cls-1" cx="28.25" cy="30.78" r="0.68"/><circle class="cls-1" cx="35.75" cy="30.78" r="0.68"/><path class="cls-1" d="M39.63,15.14l-3.39-2a8.45,8.45,0,0,0-8.48,0l-3.39,2a8.5,8.5,0,0,0-4.24,7.35V34.25a2.23,2.23,0,0,0,1.12,1.93l6.69,3.87V34.79a1.47,1.47,0,0,0-.75-1.29l-3-1.74V24.88L32,29.39l7.81-4.51v6.88l-3,1.74a1.47,1.47,0,0,0-.75,1.29v5.26l6.69-3.87a2.23,2.23,0,0,0,1.12-1.93V22.49A8.5,8.5,0,0,0,39.63,15.14Z"/><path class="cls-2" d="M43.87,22.66v-.17a8.5,8.5,0,0,0-4.24-7.35l-3.39-2A8.46,8.46,0,0,0,32,12.05v9.31l-2,2,2,2.25v3.82l7.81-4.51v.76Z"/><path class="cls-4" d="M39.63,15.14l-3.39-2a8.49,8.49,0,0,0-6.62-.79,8.5,8.5,0,0,1,5.15,1.08l3.39,2a8.45,8.45,0,0,1,4.24,7.34V34.54a2.21,2.21,0,0,1-1.11,1.93l-5.23,3v.56l6.69-3.87a2.23,2.23,0,0,0,1.12-1.93V22.49A8.5,8.5,0,0,0,39.63,15.14Z"/><path class="cls-4" d="M27.19,33.5l-3-1.74V26l-1.46-.84v6.87l3,1.74a1.5,1.5,0,0,1,.75,1.29V39.2l1.46.85V34.79A1.47,1.47,0,0,0,27.19,33.5Z"/><polygon class="cls-4" points="38.34 25.18 31.52 29.11 32 29.39 38.34 25.73 38.34 25.18"/><path class="cls-3" d="M38.17,37.06V36a1.47,1.47,0,0,1,.75-1.29l3-1.74V24.34l-2.11,1.22v6.2l-3,1.74a1.47,1.47,0,0,0-.75,1.29v5.26l2.11-1.22Z"/><path class="cls-3" d="M22.24,35.5V22.67a6.61,6.61,0,0,1,3.32-5.74l4.31-2.49a8.45,8.45,0,0,1,8.48,0l1.63.94-.35-.24-3.39-2a8.45,8.45,0,0,0-8.48,0l-3.39,2a8.5,8.5,0,0,0-4.24,7.35V34.25a2.23,2.23,0,0,0,1.12,1.93l1.94,1.12A2.24,2.24,0,0,1,22.24,35.5Z"/><path class="cls-3" d="M27.19,33.5,26.3,33v0l1.06.62A.55.55,0,0,0,27.19,33.5Z"/><path class="cls-6" d="M39.63,15.14l-3.39-2a8.45,8.45,0,0,0-8.48,0l-3.39,2a8.5,8.5,0,0,0-4.24,7.35V34.25a2.23,2.23,0,0,0,1.12,1.93l6.69,3.87V34.79a1.47,1.47,0,0,0-.75-1.29l-3-1.74V24.88L32,29.39l7.81-4.51v6.88l-3,1.74a1.47,1.47,0,0,0-.75,1.29v5.26l6.69-3.87a2.23,2.23,0,0,0,1.12-1.93V22.49A8.5,8.5,0,0,0,39.63,15.14Z"/><polyline class="cls-6" points="22.55 23.93 32 29.39 41.45 23.93"/><path class="cls-8" d="M27.59,11v4.37a3.13,3.13,0,0,0,1.58,2.72l1.26.73a3.14,3.14,0,0,0,3.14,0l1.26-.73a3.13,3.13,0,0,0,1.58-2.72V11A.84.84,0,0,0,36,10.3L32,8l-4,2.3A.84.84,0,0,0,27.59,11Z"/><path class="cls-4" d="M36,10.3,32,8l-1,.59,3.39,2a.84.84,0,0,1,.41.72v4.36a3.15,3.15,0,0,1-1.57,2.73L32,19.08a1.79,1.79,0,0,1-.32.13,3.05,3.05,0,0,0,1.94-.37l1.26-.73a3.13,3.13,0,0,0,1.58-2.72V11A.84.84,0,0,0,36,10.3Z"/><path class="cls-9" d="M29.53,16.85V12.48a.84.84,0,0,1,.42-.72l4-2.3,2.45,1.41a.89.89,0,0,0-.4-.57L32,8l-4,2.3a.84.84,0,0,0-.42.72v4.37a3.13,3.13,0,0,0,1.58,2.72l1,.57A3.15,3.15,0,0,1,29.53,16.85Z"/><path class="cls-6" d="M27.59,11v4.37a3.13,3.13,0,0,0,1.58,2.72l1.26.73a3.14,3.14,0,0,0,3.14,0l1.26-.73a3.13,3.13,0,0,0,1.58-2.72V11A.84.84,0,0,0,36,10.3L32,8l-4,2.3A.84.84,0,0,0,27.59,11Z"/><path class="cls-5" d="M32,24.34l-1-4.59a1,1,0,1,1,2-.44,1.09,1.09,0,0,1,0,.44Z"/><polyline class="cls-10" points="28.01 10.9 32 12.91 35.99 10.9"/><polyline class="cls-10" points="28.01 12.91 32 14.91 35.99 12.91"/><polyline class="cls-10" points="28.01 14.91 32 16.92 35.99 14.91"/><circle class="cls-3" cx="15.5" cy="51.83" r="1.25"/><circle class="cls-3" cx="48.5" cy="51.83" r="1.25"/><path class="cls-8" d="M13.37,48.19l6.07-1.35V42a44.5,44.5,0,0,0-6.07,1.51Z"/><path class="cls-9" d="M15.31,44.82c1.3-.42,2.68-.8,4.13-1.12V42a44.5,44.5,0,0,0-6.07,1.51v4.69l1.94-.43Z"/><path class="cls-6" d="M13.37,48.19l6.07-1.35V42a44.5,44.5,0,0,0-6.07,1.51Z"/><path class="cls-8" d="M50.63,48.19l-6.07-1.35V42a44.5,44.5,0,0,1,6.07,1.51Z"/><path class="cls-4" d="M48.69,44.82c-1.3-.42-2.68-.8-4.13-1.12V42a44.5,44.5,0,0,1,6.07,1.51v4.69l-1.94-.43Z"/><path class="cls-6" d="M50.63,48.19l-6.07-1.35V42a44.5,44.5,0,0,1,6.07,1.51Z"/></svg>