<svg id="art" xmlns="http://www.w3.org/2000/svg" viewBox="0 0 64 64"><defs><style>.cls-1{fill:#8ec6f4;}.cls-2{fill:#74b3ed;}.cls-3{fill:#5df9e6;}.cls-4{fill:#b8e2ff;}.cls-5{fill:#d9f1ff;}.cls-6{fill:none;stroke:#041256;stroke-linecap:round;stroke-linejoin:round;stroke-width:2px;}</style></defs><title>game of thrones, game, thrones, series, element, ice, cold, winder</title><polygon class="cls-1" points="22.05 26.25 22.05 37.75 32 43.49 41.95 37.75 41.95 26.25 32 20.51 22.05 26.25"/><polygon class="cls-2" points="41.95 37.75 41.95 26.25 32 20.51 32 43.49 41.95 37.75"/><polygon class="cls-3" points="40.29 25.29 40.29 36.66 32 41.45 32 43.49 41.95 37.75 41.95 26.25 40.29 25.29"/><polygon class="cls-4" points="22.05 26.25 32 32 41.95 26.25 32 20.51 22.05 26.25"/><polygon class="cls-5" points="23.91 27.35 33.87 21.6 41.95 26.27 41.95 26.25 32 20.51 22.05 26.25 22.05 37.75 23.91 38.82 23.91 27.35"/><polygon class="cls-6" points="22.05 26.25 22.05 37.75 32 43.49 41.95 37.75 41.95 26.25 32 20.51 22.05 26.25"/><path class="cls-6" d="M32,8V8Z"/><polyline class="cls-6" points="34.49 11.52 32 14 29.51 11.52"/><polyline class="cls-6" points="35.48 15.89 32 19.37 28.52 15.89"/><path class="cls-6" d="M32,56v0Z"/><polyline class="cls-6" points="29.51 52.48 32 50 34.49 52.48"/><polyline class="cls-6" points="28.52 48.11 32 44.63 35.48 48.11"/><path class="cls-6" d="M11.22,20l10.83,6.25Z"/><polyline class="cls-6" points="15.51 19.61 16.41 23 13.02 23.91"/><polyline class="cls-6" points="19.79 20.93 21.07 25.69 16.3 26.96"/><path class="cls-6" d="M52.78,44,42,37.75Z"/><polyline class="cls-6" points="48.49 44.39 47.59 41 50.98 40.09"/><polyline class="cls-6" points="44.21 43.07 42.94 38.31 47.7 37.04"/><path class="cls-6" d="M11.22,44l10.83-6.25Z"/><polyline class="cls-6" points="13.02 40.09 16.41 41 15.51 44.39"/><polyline class="cls-6" points="16.3 37.04 21.07 38.31 19.79 43.07"/><path class="cls-6" d="M52.78,20,42,26.25Z"/><polyline class="cls-6" points="50.98 23.91 47.59 23 48.49 19.61"/><polyline class="cls-6" points="47.7 26.96 42.94 25.69 44.21 20.93"/><polygon class="cls-1" points="43.41 15.26 43.41 16.5 44.47 17.11 45.54 16.5 45.54 15.26 44.47 14.65 43.41 15.26"/><polygon class="cls-1" points="43.9 7.7 42.34 9.27 42.91 11.4 45.05 11.98 46.61 10.41 46.04 8.27 43.9 7.7"/><polygon class="cls-1" points="38.1 17.7 38.1 18.93 39.16 19.55 40.23 18.93 40.23 17.7 39.16 17.08 38.1 17.7"/><polygon class="cls-1" points="40.3 13.17 40.3 13.78 40.84 14.09 41.37 13.78 41.37 13.17 40.84 12.86 40.3 13.17"/><polygon class="cls-1" points="20.59 48.74 20.59 47.5 19.53 46.89 18.46 47.5 18.46 48.74 19.53 49.35 20.59 48.74"/><polygon class="cls-1" points="20.1 56.3 21.66 54.73 21.09 52.6 18.95 52.02 17.39 53.59 17.96 55.73 20.1 56.3"/><polygon class="cls-1" points="25.9 46.3 25.9 45.07 24.84 44.45 23.77 45.07 23.77 46.3 24.84 46.92 25.9 46.3"/><polygon class="cls-1" points="23.7 50.83 23.7 50.22 23.16 49.91 22.63 50.22 22.63 50.83 23.16 51.14 23.7 50.83"/><polygon class="cls-1" points="11.86 29.91 12.94 29.32 12.97 28.09 11.93 27.45 10.84 28.03 10.81 29.26 11.86 29.91"/><polygon class="cls-1" points="16.52 33.42 17.6 32.84 17.64 31.61 16.59 30.96 15.5 31.55 15.47 32.78 16.52 33.42"/><polygon class="cls-1" points="11.48 33.63 12.03 33.34 12.04 32.73 11.52 32.4 10.98 32.7 10.96 33.31 11.48 33.63"/><polygon class="cls-1" points="52.15 34.09 51.06 34.68 51.02 35.91 52.07 36.55 53.16 35.97 53.19 34.74 52.15 34.09"/><polygon class="cls-1" points="47.48 30.58 46.4 31.16 46.36 32.39 47.41 33.04 48.5 32.45 48.53 31.22 47.48 30.58"/><polygon class="cls-1" points="52.52 30.36 51.97 30.66 51.96 31.27 52.48 31.6 53.02 31.3 53.04 30.69 52.52 30.36"/><polygon class="cls-1" points="20.59 15.26 20.59 16.5 19.53 17.11 18.46 16.5 18.46 15.26 19.53 14.65 20.59 15.26"/><polygon class="cls-1" points="20.1 7.7 21.66 9.27 21.09 11.4 18.95 11.98 17.39 10.41 17.96 8.27 20.1 7.7"/><polygon class="cls-1" points="25.9 17.7 25.9 18.93 24.84 19.55 23.77 18.93 23.77 17.7 24.84 17.08 25.9 17.7"/><polygon class="cls-1" points="23.7 13.17 23.7 13.78 23.16 14.09 22.63 13.78 22.63 13.17 23.16 12.86 23.7 13.17"/><polygon class="cls-1" points="43.41 48.74 43.41 47.5 44.47 46.89 45.54 47.5 45.54 48.74 44.47 49.35 43.41 48.74"/><polygon class="cls-1" points="43.9 56.3 42.34 54.73 42.91 52.6 45.05 52.02 46.61 53.59 46.04 55.73 43.9 56.3"/><polygon class="cls-1" points="38.1 46.3 38.1 45.07 39.16 44.45 40.23 45.07 40.23 46.3 39.16 46.92 38.1 46.3"/><polygon class="cls-1" points="40.3 50.83 40.3 50.22 40.84 49.91 41.37 50.22 41.37 50.83 40.84 51.14 40.3 50.83"/></svg>